<svg id="archives" xmlns="http://www.w3.org/2000/svg" width="21.332" height="21.332" viewBox="0 0 21.332 21.332">
  <g id="Group_5" data-name="Group 5" transform="translate(14.439)">
    <g id="Group_4" data-name="Group 4">
      <path id="Path_6" data-name="Path 6" d="M332.46,0h-5.683a.6.6,0,0,0-.6.6V20.732a.6.6,0,0,0,.6.6h5.683a.605.605,0,0,0,.607-.6V.6A.606.606,0,0,0,332.46,0Zm-2.84,19.206a1.668,1.668,0,1,1,1.668-1.668A1.67,1.67,0,0,1,329.62,19.206Zm2.319-10.184a.333.333,0,0,1-.333.333h-3.97a.333.333,0,0,1-.333-.333V1.461a.333.333,0,0,1,.333-.333h3.97a.333.333,0,0,1,.333.333Z" transform="translate(-326.174)"/>
    </g>
  </g>
  <g id="Group_7" data-name="Group 7" transform="translate(7.22)">
    <g id="Group_6" data-name="Group 6">
      <path id="Path_7" data-name="Path 7" d="M169.373,0H163.69a.6.6,0,0,0-.6.6V20.732a.6.6,0,0,0,.6.6h5.683a.6.6,0,0,0,.6-.6V.6A.6.6,0,0,0,169.373,0Zm-2.841,19.206a1.668,1.668,0,1,1,1.668-1.668A1.67,1.67,0,0,1,166.533,19.206Zm2.318-10.184a.333.333,0,0,1-.333.333h-3.97a.333.333,0,0,1-.333-.333V1.461a.333.333,0,0,1,.333-.333h3.97a.333.333,0,0,1,.333.333Z" transform="translate(-163.087)"/>
    </g>
  </g>
  <g id="Group_9" data-name="Group 9">
    <g id="Group_8" data-name="Group 8">
      <path id="Path_8" data-name="Path 8" d="M6.286,0H.6A.6.6,0,0,0,0,.6V20.732a.6.6,0,0,0,.6.6H6.286a.6.6,0,0,0,.6-.6V.6A.6.6,0,0,0,6.286,0ZM3.445,19.206a1.668,1.668,0,1,1,1.668-1.668A1.67,1.67,0,0,1,3.445,19.206ZM5.763,9.022a.333.333,0,0,1-.333.333H1.46a.333.333,0,0,1-.333-.333V1.461a.333.333,0,0,1,.333-.333H5.43a.333.333,0,0,1,.333.333V9.022Z"/>
    </g>
  </g>
  <g id="Group_11" data-name="Group 11" transform="translate(2.111 2.551)">
    <g id="Group_10" data-name="Group 10">
      <rect id="Rectangle_114" data-name="Rectangle 114" width="2.67" height="0.667"/>
    </g>
  </g>
  <g id="Group_13" data-name="Group 13" transform="translate(2.111 4.122)">
    <g id="Group_12" data-name="Group 12">
      <rect id="Rectangle_115" data-name="Rectangle 115" width="2.67" height="0.667"/>
    </g>
  </g>
  <g id="Group_15" data-name="Group 15" transform="translate(2.111 5.693)">
    <g id="Group_14" data-name="Group 14">
      <rect id="Rectangle_116" data-name="Rectangle 116" width="2.67" height="0.667"/>
    </g>
  </g>
  <g id="Group_17" data-name="Group 17" transform="translate(2.111 7.265)">
    <g id="Group_16" data-name="Group 16">
      <rect id="Rectangle_117" data-name="Rectangle 117" width="2.67" height="0.667"/>
    </g>
  </g>
  <g id="Group_19" data-name="Group 19" transform="translate(9.33 2.551)">
    <g id="Group_18" data-name="Group 18">
      <rect id="Rectangle_118" data-name="Rectangle 118" width="2.67" height="0.667"/>
    </g>
  </g>
  <g id="Group_21" data-name="Group 21" transform="translate(9.33 4.122)">
    <g id="Group_20" data-name="Group 20">
      <rect id="Rectangle_119" data-name="Rectangle 119" width="2.67" height="0.667"/>
    </g>
  </g>
  <g id="Group_23" data-name="Group 23" transform="translate(9.33 5.693)">
    <g id="Group_22" data-name="Group 22">
      <rect id="Rectangle_120" data-name="Rectangle 120" width="2.67" height="0.667"/>
    </g>
  </g>
  <g id="Group_25" data-name="Group 25" transform="translate(9.33 7.265)">
    <g id="Group_24" data-name="Group 24">
      <rect id="Rectangle_121" data-name="Rectangle 121" width="2.67" height="0.667"/>
    </g>
  </g>
  <g id="Group_27" data-name="Group 27" transform="translate(16.551 2.551)">
    <g id="Group_26" data-name="Group 26">
      <rect id="Rectangle_122" data-name="Rectangle 122" width="2.67" height="0.667"/>
    </g>
  </g>
  <g id="Group_29" data-name="Group 29" transform="translate(16.551 4.122)">
    <g id="Group_28" data-name="Group 28">
      <rect id="Rectangle_123" data-name="Rectangle 123" width="2.67" height="0.667"/>
    </g>
  </g>
  <g id="Group_31" data-name="Group 31" transform="translate(16.551 5.693)">
    <g id="Group_30" data-name="Group 30">
      <rect id="Rectangle_124" data-name="Rectangle 124" width="2.67" height="0.667"/>
    </g>
  </g>
  <g id="Group_33" data-name="Group 33" transform="translate(16.551 7.265)">
    <g id="Group_32" data-name="Group 32">
      <rect id="Rectangle_125" data-name="Rectangle 125" width="2.67" height="0.667"/>
    </g>
  </g>
</svg>
