<svg xmlns="http://www.w3.org/2000/svg" width="19.557" height="20" viewBox="0 0 19.557 20">
  <g id="calendar_4_" data-name="calendar (4)" transform="translate(-5.411)">
    <g id="Group_101" data-name="Group 101" transform="translate(5.411)">
      <path id="Path_33905" data-name="Path 33905" d="M119.527,258.7a.454.454,0,0,0-.454-.453h-1.584a.454.454,0,0,0-.454.453v1.584a.454.454,0,0,0,.454.454h1.584a.454.454,0,0,0,.454-.454V258.7Z" transform="translate(-112.462 -247.662)"/>
      <path id="Path_33906" data-name="Path 33906" d="M216.162,258.7a.454.454,0,0,0-.453-.453h-1.584a.454.454,0,0,0-.454.453v1.584a.454.454,0,0,0,.454.454h1.584a.454.454,0,0,0,.453-.454Z" transform="translate(-205.137 -247.662)"/>
      <path id="Path_33907" data-name="Path 33907" d="M312.79,258.7a.454.454,0,0,0-.454-.453h-1.584a.454.454,0,0,0-.454.453v1.584a.454.454,0,0,0,.454.454h1.584a.454.454,0,0,0,.454-.454Z" transform="translate(-297.807 -247.662)"/>
      <path id="Path_33908" data-name="Path 33908" d="M119.527,355.329a.454.454,0,0,0-.454-.454h-1.584a.454.454,0,0,0-.454.454v1.584a.454.454,0,0,0,.454.454h1.584a.454.454,0,0,0,.454-.454v-1.584Z" transform="translate(-112.462 -340.335)"/>
      <path id="Path_33909" data-name="Path 33909" d="M216.162,355.329a.454.454,0,0,0-.453-.454h-1.584a.454.454,0,0,0-.454.454v1.584a.454.454,0,0,0,.454.454h1.584a.454.454,0,0,0,.453-.454Z" transform="translate(-205.137 -340.335)"/>
      <path id="Path_33910" data-name="Path 33910" d="M312.79,355.329a.454.454,0,0,0-.453-.454h-1.584a.454.454,0,0,0-.454.454v1.584a.454.454,0,0,0,.454.454h1.584a.454.454,0,0,0,.453-.454v-1.584Z" transform="translate(-297.807 -340.335)"/>
      <path id="Path_33911" data-name="Path 33911" d="M23.227,54.151V56.57a1.976,1.976,0,0,1-1.98,1.975H20A1.986,1.986,0,0,1,18,56.57V54.142H12.374V56.57a1.986,1.986,0,0,1-1.992,1.975H9.132a1.976,1.976,0,0,1-1.98-1.975V54.151a1.8,1.8,0,0,0-1.741,1.791V70.12a1.8,1.8,0,0,0,1.793,1.8H23.175a1.8,1.8,0,0,0,1.793-1.8V55.942A1.8,1.8,0,0,0,23.227,54.151Zm-.58,15.087a.775.775,0,0,1-.775.775H8.473a.775.775,0,0,1-.775-.775V61.914a.775.775,0,0,1,.775-.775h13.4a.775.775,0,0,1,.775.775v7.324Z" transform="translate(-5.411 -51.924)"/>
      <path id="Path_33912" data-name="Path 33912" d="M80.229,5.324h1.236a.679.679,0,0,0,.679-.679V.679A.679.679,0,0,0,81.465,0H80.229a.679.679,0,0,0-.679.679V4.645A.679.679,0,0,0,80.229,5.324Z" transform="translate(-76.512)"/>
      <path id="Path_33913" data-name="Path 33913" d="M345.137,5.324h1.236a.679.679,0,0,0,.679-.679V.679A.679.679,0,0,0,346.373,0h-1.236a.679.679,0,0,0-.679.679V4.645A.679.679,0,0,0,345.137,5.324Z" transform="translate(-330.567)"/>
    </g>
  </g>
</svg>
