<svg id="accept_1_" data-name="accept (1)" xmlns="http://www.w3.org/2000/svg" width="28" height="28" viewBox="0 0 28 28">
  <path id="Path_9" data-name="Path 9" d="M14,0A14,14,0,1,0,28,14,14.013,14.013,0,0,0,14,0Z" fill="#4bae4f" fill-rule="evenodd"/>
  <path id="Path_10" data-name="Path 10" d="M111.507,149.25c-1.788-1.788-3.566-3.593-5.359-5.381a.515.515,0,0,1,0-.722l2.062-2.062a.515.515,0,0,1,.722,0l2.948,2.948,7.58-7.585a.522.522,0,0,1,.727,0l2.067,2.067a.505.505,0,0,1,0,.722L112.229,149.25a.505.505,0,0,1-.722,0Z" transform="translate(-100.203 -128.846)" fill="#fff"/>
</svg>
