<svg xmlns="http://www.w3.org/2000/svg" width="18.242" height="18.242" viewBox="0 0 18.242 18.242">
  <g id="share_5_" data-name="share (5)" transform="translate(-2 -2)">
    <path id="Path_52" data-name="Path 52" d="M20.033,2H14.56a.912.912,0,1,0,0,1.824h3.271l-7.564,7.564a.912.912,0,1,0,1.29,1.29l7.564-7.564V8.385a.912.912,0,1,0,1.824,0V2.912A.912.912,0,0,0,20.033,2Z" transform="translate(-0.703)" fill="#fff"/>
    <path id="Path_53" data-name="Path 53" d="M17.505,10.009a.912.912,0,0,0-.912.912v6.533a1.14,1.14,0,0,1-1.139,1.139H4.963a1.14,1.14,0,0,1-1.139-1.139V6.963A1.14,1.14,0,0,1,4.963,5.824h5.675a.912.912,0,0,0,0-1.824H4.963A2.967,2.967,0,0,0,2,6.963V17.452a2.967,2.967,0,0,0,2.963,2.965H15.452a2.967,2.967,0,0,0,2.965-2.963V10.921A.912.912,0,0,0,17.505,10.009Z" transform="translate(0 -0.176)" fill="#fff"/>
  </g>
</svg>
