<svg xmlns="http://www.w3.org/2000/svg" width="31" height="29" viewBox="0 0 31 29">
  <g id="Layer_42" data-name="Layer 42" transform="translate(0.241 -0.252)">
    <rect id="Rectangle_33" data-name="Rectangle 33" width="24.503" height="21.003" transform="translate(2.334 2.917)" fill="#ffa726"/>
    <rect id="Rectangle_158" data-name="Rectangle 158" width="31" height="29" rx="3" transform="translate(-0.241 0.252)" fill="#fff"/>
    <g id="folders" transform="translate(3.759 -20.835)">
      <path id="Path_22" data-name="Path 22" d="M6.065,59.085H.537A.537.537,0,0,1,0,58.547V39.608a.537.537,0,0,1,.537-.537H6.065a.537.537,0,0,1,.537.537V58.547A.537.537,0,0,1,6.065,59.085Z" transform="translate(0 -13.359)" fill="#05e29a"/>
      <path id="Path_23" data-name="Path 23" d="M6.046,39.071H4.92v16.19a2.2,2.2,0,0,1-2.2,2.2H0v1.063a.556.556,0,0,0,.556.556h5.49a.556.556,0,0,0,.556-.556v-18.9A.556.556,0,0,0,6.046,39.071Z" transform="translate(0 -13.358)" fill="#1dd08d"/>
      <path id="Path_24" data-name="Path 24" d="M34.539,382.959H33a1.1,1.1,0,0,1-1.1-1.1v-.078a1.1,1.1,0,0,1,1.1-1.1h1.539a1.1,1.1,0,0,1,1.1,1.1v.078A1.1,1.1,0,0,1,34.539,382.959Z" transform="translate(-30.468 -339.669)" fill="#586b76"/>
      <path id="Path_25" data-name="Path 25" d="M35.6,380.672H35.26a1.144,1.144,0,0,1-1.091,1.483H33.044a1.143,1.143,0,0,0,1.091.8H35.6a1.143,1.143,0,0,0,0-2.286Z" transform="translate(-31.565 -339.668)" fill="#465961"/>
      <path id="Path_26" data-name="Path 26" d="M32.513,105.483H29.092a.3.3,0,0,1-.3-.3V95.834a.3.3,0,0,1,.3-.3h3.421a.3.3,0,0,1,.3.3v9.348A.3.3,0,0,1,32.513,105.483Z" transform="translate(-27.501 -67.292)" fill="#fff0e1"/>
      <path id="Path_27" data-name="Path 27" d="M32.5,95.532h-.977v8.408a.312.312,0,0,1-.312.312H28.79v.919a.312.312,0,0,0,.312.312h3.4a.312.312,0,0,0,.312-.312V95.844A.312.312,0,0,0,32.5,95.532Z" transform="translate(-27.501 -67.292)" fill="#ffeccf"/>
      <path id="Path_28" data-name="Path 28" d="M153.507,59.085h-5.528a.537.537,0,0,1-.537-.537V39.608a.537.537,0,0,1,.537-.537h5.528a.537.537,0,0,1,.537.537V58.547A.537.537,0,0,1,153.507,59.085Z" transform="translate(-140.842 -13.359)" fill="#fcb143"/>
      <path id="Path_29" data-name="Path 29" d="M153.488,39.071h-1.125v16.19a2.2,2.2,0,0,1-2.2,2.2h-2.716v1.063a.556.556,0,0,0,.556.556h5.49a.556.556,0,0,0,.556-.556v-18.9A.556.556,0,0,0,153.488,39.071Z" transform="translate(-140.842 -13.358)" fill="#fba615"/>
      <path id="Path_30" data-name="Path 30" d="M181.982,382.959h-1.539a1.1,1.1,0,0,1-1.1-1.1v-.078a1.1,1.1,0,0,1,1.1-1.1h1.539a1.1,1.1,0,0,1,1.1,1.1v.078A1.1,1.1,0,0,1,181.982,382.959Z" transform="translate(-171.311 -339.669)" fill="#586b76"/>
      <path id="Path_31" data-name="Path 31" d="M183.039,380.672H182.7a1.144,1.144,0,0,1-1.091,1.483h-1.124a1.143,1.143,0,0,0,1.091.8h1.461a1.143,1.143,0,0,0,0-2.286Z" transform="translate(-172.408 -339.668)" fill="#465961"/>
      <path id="Path_32" data-name="Path 32" d="M179.955,105.483h-3.421a.3.3,0,0,1-.3-.3V95.834a.3.3,0,0,1,.3-.3h3.421a.3.3,0,0,1,.3.3v9.348A.3.3,0,0,1,179.955,105.483Z" transform="translate(-168.343 -67.292)" fill="#fff0e1"/>
      <path id="Path_33" data-name="Path 33" d="M179.945,95.532h-.977v8.408a.312.312,0,0,1-.312.312h-2.424v.919a.312.312,0,0,0,.312.312h3.4a.312.312,0,0,0,.312-.312V95.844A.312.312,0,0,0,179.945,95.532Z" transform="translate(-168.344 -67.292)" fill="#ffeccf"/>
      <path id="Path_34" data-name="Path 34" d="M304.137,44.82l-5.448.934a.537.537,0,0,1-.62-.439l-3.2-18.667a.537.537,0,0,1,.439-.62l5.448-.934a.537.537,0,0,1,.62.439l3.2,18.667A.537.537,0,0,1,304.137,44.82Z" transform="translate(-281.663)" fill="#fc6b55"/>
      <path id="Path_35" data-name="Path 35" d="M365.305,25.161l-1.136.181,2.736,16a2.2,2.2,0,0,1-1.8,2.545l-2.65.468.179,1a.556.556,0,0,0,.642.454l5.411-.927a.556.556,0,0,0,.454-.642l-3.193-18.63A.556.556,0,0,0,365.305,25.161Z" transform="translate(-346.23 -0.063)" fill="#fc534e"/>
      <path id="Path_36" data-name="Path 36" d="M388.786,371.39l-1.517.26a1.1,1.1,0,0,1-1.274-.9l-.013-.077a1.1,1.1,0,0,1,.9-1.274l1.517-.26a1.1,1.1,0,0,1,1.274.9l.013.077A1.1,1.1,0,0,1,388.786,371.39Z" transform="translate(-368.688 -328.635)" fill="#586b76"/>
      <path id="Path_37" data-name="Path 37" d="M391.151,369.273l-.331.057a1.144,1.144,0,0,1-.825,1.646l-1.108.19a1.143,1.143,0,0,0,1.211.607l1.44-.247a1.143,1.143,0,1,0-.386-2.253Z" transform="translate(-371.478 -328.763)" fill="#465961"/>
      <path id="Path_38" data-name="Path 38" d="M337.268,94.6l-3.372.578a.3.3,0,0,1-.348-.246l-1.579-9.214a.3.3,0,0,1,.246-.348l3.372-.578a.3.3,0,0,1,.348.246l1.579,9.214A.3.3,0,0,1,337.268,94.6Z" transform="translate(-317.104 -57.029)" fill="#fff0e1"/>
      <path id="Path_39" data-name="Path 39" d="M366.178,84.829l-.963.165,1.428,8.344a.312.312,0,0,1-.255.36L364,94.108l.148.848a.312.312,0,0,0,.36.255l3.351-.574a.312.312,0,0,0,.255-.36l-1.576-9.193A.312.312,0,0,0,366.178,84.829Z" transform="translate(-347.706 -57.064)" fill="#ffeccf"/>
      <path id="Path_40" data-name="Path 40" d="M27.081,372.907H25.62a1.49,1.49,0,1,0,0,2.981h1.461a1.49,1.49,0,1,0,0-2.981Zm0,2.286H25.62a.8.8,0,0,1,0-1.591h1.461a.8.8,0,0,1,0,1.591Z" transform="translate(-23.05 -332.251)" fill="#e5ecf1"/>
      <path id="Path_41" data-name="Path 41" d="M51.7,154.7a.348.348,0,0,0,.348-.348v-4.3a.348.348,0,0,0-.7,0v4.3A.348.348,0,0,0,51.7,154.7Z" transform="translate(-49.054 -119.046)" fill="#fbbe66"/>
      <path id="Path_42" data-name="Path 42" d="M80.948,178.882a.348.348,0,0,0,.348-.348v-3.165a.348.348,0,0,0-.7,0v3.165A.348.348,0,0,0,80.948,178.882Z" transform="translate(-76.992 -143.223)" fill="#fbbe66"/>
      <path id="Path_43" data-name="Path 43" d="M174.523,372.907h-1.461a1.49,1.49,0,0,0,0,2.981h1.461a1.49,1.49,0,0,0,0-2.981Zm0,2.286h-1.461a.8.8,0,0,1,0-1.591h1.461a.8.8,0,1,1,0,1.591Z" transform="translate(-163.892 -332.251)" fill="#e5ecf1"/>
      <path id="Path_44" data-name="Path 44" d="M199.143,154.7a.348.348,0,0,0,.348-.348v-4.3a.348.348,0,0,0-.7,0v4.3A.348.348,0,0,0,199.143,154.7Z" transform="translate(-189.896 -119.046)" fill="#fbbe66"/>
      <path id="Path_45" data-name="Path 45" d="M228.39,154.7a.348.348,0,0,0,.348-.348v-4.3a.348.348,0,0,0-.7,0v4.3A.348.348,0,0,0,228.39,154.7Z" transform="translate(-217.834 -119.046)" fill="#fbbe66"/>
      <path id="Path_46" data-name="Path 46" d="M381.009,361.513l-1.44.247a1.491,1.491,0,0,0,.249,2.96,1.512,1.512,0,0,0,.255-.022l1.44-.247a1.491,1.491,0,1,0-.5-2.938Zm.9,1.928a.79.79,0,0,1-.515.325l-1.44.247a.8.8,0,1,1-.269-1.568l1.44-.247a.8.8,0,0,1,.784,1.243Z" transform="translate(-361.395 -321.346)" fill="#e5ecf1"/>
      <g id="Group_77" data-name="Group 77" transform="translate(16.272 30.327)">
        <path id="Path_47" data-name="Path 47" d="M363.8,147.107a.348.348,0,0,0-.284.4l.726,4.237a.348.348,0,1,0,.685-.117l-.726-4.237A.348.348,0,0,0,363.8,147.107Z" transform="translate(-363.515 -146.881)" fill="#fbbe66"/>
        <path id="Path_48" data-name="Path 48" d="M393.416,147.091a.348.348,0,0,0,.343-.406l-.726-4.237a.348.348,0,1,0-.685.117l.726,4.237A.348.348,0,0,0,393.416,147.091Z" transform="translate(-391.052 -142.16)" fill="#fbbe66"/>
      </g>
    </g>
  </g>
</svg>
