<svg id="list_2_" data-name="list (2)" xmlns="http://www.w3.org/2000/svg" width="24.386" height="24.386" viewBox="0 0 24.386 24.386">
  <g id="Group_72" data-name="Group 72" transform="translate(0 0)">
    <g id="Group_71" data-name="Group 71">
      <path id="Path_11" data-name="Path 11" d="M19.051,0H5.334A5.334,5.334,0,0,0,0,5.334V19.051a5.334,5.334,0,0,0,5.334,5.334H19.051a5.334,5.334,0,0,0,5.334-5.334V5.334A5.334,5.334,0,0,0,19.051,0Zm3.81,19.051a3.81,3.81,0,0,1-3.81,3.81H5.334a3.81,3.81,0,0,1-3.81-3.81V5.334a3.81,3.81,0,0,1,3.81-3.81H19.051a3.81,3.81,0,0,1,3.81,3.81Z" fill="#0064fe"/>
      <path id="Path_12" data-name="Path 12" d="M114.286,112h-1.524a.762.762,0,0,0-.762.762v1.524a.762.762,0,0,0,.762.762h1.524a.762.762,0,0,0,.762-.762v-1.524A.762.762,0,0,0,114.286,112Z" transform="translate(-106.666 -106.666)" fill="#0064fe"/>
      <path id="Path_13" data-name="Path 13" d="M114.286,224h-1.524a.762.762,0,0,0-.762.762v1.524a.762.762,0,0,0,.762.762h1.524a.762.762,0,0,0,.762-.762v-1.524A.762.762,0,0,0,114.286,224Z" transform="translate(-106.666 -213.331)" fill="#0064fe"/>
      <path id="Path_14" data-name="Path 14" d="M114.286,336h-1.524a.762.762,0,0,0-.762.762v1.524a.762.762,0,0,0,.762.762h1.524a.762.762,0,0,0,.762-.762v-1.524A.762.762,0,0,0,114.286,336Z" transform="translate(-106.666 -319.997)" fill="#0064fe"/>
      <rect id="Rectangle_127" data-name="Rectangle 127" width="9.572" height="1.914" transform="translate(9.64 5.811)" fill="#0064fe"/>
      <rect id="Rectangle_128" data-name="Rectangle 128" width="9.572" height="1.276" transform="translate(9.64 11.555)" fill="#0064fe"/>
      <rect id="Rectangle_129" data-name="Rectangle 129" width="9.572" height="1.914" transform="translate(9.64 16.66)" fill="#0064fe"/>
    </g>
  </g>
</svg>
