<svg xmlns="http://www.w3.org/2000/svg" width="123.023" height="29" viewBox="0 0 123.023 29">
  <g id="Logo" transform="translate(-50.977 -17)">
    <g id="Logo-2" data-name="Logo" transform="translate(0 2)">
      <g id="Group_14" data-name="Group 14" transform="translate(0 2)">
        <text id="To_Do_List" data-name="To Do List" transform="translate(87 28)" fill="#232e38" font-size="15" font-family="SpaceGrotesk-Bold, Space Grotesk" font-weight="700"><tspan x="0" y="0">To Do List</tspan></text>
        <text id="BY_72_BUSINESS_TOOLS" data-name="BY 72 BUSINESS TOOLS" transform="translate(87 40)" fill="#232e38" font-size="8" font-family="SpaceGrotesk-Medium, Space Grotesk" font-weight="500" opacity="0.4"><tspan x="0" y="0">BY 72 BUSINESS TOOLS</tspan></text>
      </g>
      <g id="folders" transform="translate(50.977 -6.411)">
        <path id="Path_22" data-name="Path 22" d="M6.992,62.143H.619A.619.619,0,0,1,0,61.524V39.69a.619.619,0,0,1,.619-.619H6.992a.619.619,0,0,1,.619.619V61.524A.619.619,0,0,1,6.992,62.143Z" transform="translate(0 -13.263)" fill="#05e29a"/>
        <path id="Path_23" data-name="Path 23" d="M6.97,39.071h-1.3V57.736a2.541,2.541,0,0,1-2.541,2.541H0V61.5a.641.641,0,0,0,.641.641H6.97a.641.641,0,0,0,.641-.641V39.712A.641.641,0,0,0,6.97,39.071Z" transform="translate(0 -13.263)" fill="#1dd08d"/>
        <path id="Path_24" data-name="Path 24" d="M34.942,383.308H33.168a1.272,1.272,0,0,1-1.272-1.272v-.09a1.272,1.272,0,0,1,1.272-1.272h1.774a1.272,1.272,0,0,1,1.272,1.272v.09A1.272,1.272,0,0,1,34.942,383.308Z" transform="translate(-30.25 -337.237)" fill="#586b76"/>
        <path id="Path_25" data-name="Path 25" d="M35.986,380.672H35.6a1.319,1.319,0,0,1-1.258,1.709h-1.3a1.318,1.318,0,0,0,1.258.926h1.684a1.318,1.318,0,1,0,0-2.635Z" transform="translate(-31.339 -337.236)" fill="#465961"/>
        <path id="Path_26" data-name="Path 26" d="M33.082,107H29.138a.348.348,0,0,1-.348-.348V95.88a.348.348,0,0,1,.348-.348h3.944a.348.348,0,0,1,.348.348v10.777A.348.348,0,0,1,33.082,107Z" transform="translate(-27.304 -66.81)" fill="#fff0e1"/>
        <path id="Path_27" data-name="Path 27" d="M33.07,95.532H31.944v9.693a.36.36,0,0,1-.36.36H28.79v1.06a.36.36,0,0,0,.36.36h3.92a.36.36,0,0,0,.36-.36V95.892A.36.36,0,0,0,33.07,95.532Z" transform="translate(-27.304 -66.81)" fill="#ffeccf"/>
        <path id="Path_28" data-name="Path 28" d="M154.434,62.143h-6.372a.619.619,0,0,1-.619-.619V39.69a.619.619,0,0,1,.619-.619h6.372a.619.619,0,0,1,.619.619V61.524A.619.619,0,0,1,154.434,62.143Z" transform="translate(-139.833 -13.263)" fill="#fcb143"/>
        <path id="Path_29" data-name="Path 29" d="M154.412,39.071h-1.3V57.736a2.541,2.541,0,0,1-2.541,2.541h-3.132V61.5a.641.641,0,0,0,.641.641h6.329a.641.641,0,0,0,.641-.641V39.712A.641.641,0,0,0,154.412,39.071Z" transform="translate(-139.833 -13.263)" fill="#fba615"/>
        <path id="Path_30" data-name="Path 30" d="M182.385,383.308h-1.774a1.273,1.273,0,0,1-1.272-1.272v-.09a1.273,1.273,0,0,1,1.272-1.272h1.774a1.272,1.272,0,0,1,1.272,1.272v.09A1.272,1.272,0,0,1,182.385,383.308Z" transform="translate(-170.084 -337.237)" fill="#586b76"/>
        <path id="Path_31" data-name="Path 31" d="M183.429,380.672h-.388a1.319,1.319,0,0,1-1.258,1.709h-1.3a1.318,1.318,0,0,0,1.258.926h1.684a1.318,1.318,0,1,0,0-2.635Z" transform="translate(-171.173 -337.236)" fill="#465961"/>
        <path id="Path_32" data-name="Path 32" d="M180.524,107H176.58a.348.348,0,0,1-.348-.348V95.88a.348.348,0,0,1,.348-.348h3.944a.348.348,0,0,1,.348.348v10.777A.348.348,0,0,1,180.524,107Z" transform="translate(-167.138 -66.81)" fill="#fff0e1"/>
        <path id="Path_33" data-name="Path 33" d="M180.513,95.532h-1.126v9.693a.36.36,0,0,1-.36.36h-2.794v1.06a.36.36,0,0,0,.36.36h3.92a.36.36,0,0,0,.36-.36V95.892A.36.36,0,0,0,180.513,95.532Z" transform="translate(-167.139 -66.81)" fill="#ffeccf"/>
        <path id="Path_34" data-name="Path 34" d="M305.555,47.836l-6.281,1.077a.619.619,0,0,1-.715-.506l-3.689-21.52a.619.619,0,0,1,.506-.715l6.281-1.077a.619.619,0,0,1,.715.506l3.689,21.52A.619.619,0,0,1,305.555,47.836Z" transform="translate(-279.645 0)" fill="#fc6b55"/>
        <path id="Path_35" data-name="Path 35" d="M365.741,25.162l-1.31.209,3.155,18.447a2.541,2.541,0,0,1-2.075,2.934l-3.055.54.206,1.157a.641.641,0,0,0,.74.524l6.238-1.069a.641.641,0,0,0,.524-.74l-3.681-21.477A.641.641,0,0,0,365.741,25.162Z" transform="translate(-343.751 -0.063)" fill="#fc534e"/>
        <path id="Path_36" data-name="Path 36" d="M389.217,371.737l-1.749.3A1.272,1.272,0,0,1,386,371l-.015-.089a1.273,1.273,0,0,1,1.039-1.469l1.748-.3a1.272,1.272,0,0,1,1.469,1.039l.015.089A1.272,1.272,0,0,1,389.217,371.737Z" transform="translate(-366.048 -326.281)" fill="#586b76"/>
        <path id="Path_37" data-name="Path 37" d="M391.5,369.275l-.382.066a1.319,1.319,0,0,1-.951,1.9l-1.277.219a1.318,1.318,0,0,0,1.4.7l1.66-.284a1.318,1.318,0,1,0-.445-2.6Z" transform="translate(-368.818 -326.409)" fill="#465961"/>
        <path id="Path_38" data-name="Path 38" d="M338.079,96.1l-3.888.666a.348.348,0,0,1-.4-.284l-1.821-10.622a.347.347,0,0,1,.284-.4l3.888-.666a.348.348,0,0,1,.4.284L338.363,95.7A.348.348,0,0,1,338.079,96.1Z" transform="translate(-314.833 -56.621)" fill="#fff0e1"/>
        <path id="Path_39" data-name="Path 39" d="M366.511,84.83l-1.11.19,1.646,9.62a.36.36,0,0,1-.294.416L364,95.527l.171.978a.36.36,0,0,0,.416.294l3.863-.662a.36.36,0,0,0,.294-.416l-1.817-10.6A.36.36,0,0,0,366.511,84.83Z" transform="translate(-345.216 -56.655)" fill="#ffeccf"/>
        <path id="Path_40" data-name="Path 40" d="M27.532,372.907H25.848a1.718,1.718,0,0,0,0,3.437h1.684a1.718,1.718,0,0,0,0-3.437Zm0,2.635H25.848a.917.917,0,1,1,0-1.834h1.684a.917.917,0,1,1,0,1.834Z" transform="translate(-22.885 -329.871)" fill="#e5ecf1"/>
        <path id="Path_41" data-name="Path 41" d="M51.754,155.468a.4.4,0,0,0,.4-.4v-4.955a.4.4,0,0,0-.8,0v4.955A.4.4,0,0,0,51.754,155.468Z" transform="translate(-48.703 -118.193)" fill="#fbbe66"/>
        <path id="Path_42" data-name="Path 42" d="M81,179.472a.4.4,0,0,0,.4-.4v-3.649a.4.4,0,0,0-.8,0v3.649A.4.4,0,0,0,81,179.472Z" transform="translate(-76.441 -142.197)" fill="#fbbe66"/>
        <path id="Path_43" data-name="Path 43" d="M174.974,372.907H173.29a1.718,1.718,0,1,0,0,3.437h1.684a1.718,1.718,0,1,0,0-3.437Zm0,2.635H173.29a.917.917,0,1,1,0-1.834h1.684a.917.917,0,1,1,0,1.834Z" transform="translate(-162.718 -329.871)" fill="#e5ecf1"/>
        <path id="Path_44" data-name="Path 44" d="M199.2,155.468a.4.4,0,0,0,.4-.4v-4.955a.4.4,0,1,0-.8,0v4.955A.4.4,0,0,0,199.2,155.468Z" transform="translate(-188.536 -118.193)" fill="#fbbe66"/>
        <path id="Path_45" data-name="Path 45" d="M228.443,155.468a.4.4,0,0,0,.4-.4v-4.955a.4.4,0,0,0-.8,0v4.955A.4.4,0,0,0,228.443,155.468Z" transform="translate(-216.274 -118.193)" fill="#fbbe66"/>
        <path id="Path_46" data-name="Path 46" d="M381.419,361.516l-1.66.284a1.719,1.719,0,0,0,.287,3.412,1.742,1.742,0,0,0,.294-.025L382,364.9a1.718,1.718,0,0,0-.581-3.387Zm1.039,2.223a.91.91,0,0,1-.594.374l-1.66.285a.917.917,0,1,1-.31-1.807l1.66-.284a.917.917,0,0,1,.9,1.433Z" transform="translate(-358.807 -319.045)" fill="#e5ecf1"/>
        <g id="Group_77" data-name="Group 77" transform="translate(18.759 31.128)">
          <path id="Path_47" data-name="Path 47" d="M363.848,147.108a.4.4,0,0,0-.327.463l.837,4.884a.4.4,0,0,0,.79-.135l-.837-4.884A.4.4,0,0,0,363.848,147.108Z" transform="translate(-363.515 -146.847)" fill="#fbbe66"/>
          <path id="Path_48" data-name="Path 48" d="M393.58,147.845a.4.4,0,0,0,.4-.468l-.837-4.884a.4.4,0,1,0-.79.135l.837,4.884A.4.4,0,0,0,393.58,147.845Z" transform="translate(-390.855 -142.16)" fill="#fbbe66"/>
        </g>
      </g>
    </g>
  </g>
</svg>
