<svg xmlns="http://www.w3.org/2000/svg" width="17.004" height="24.418" viewBox="0 0 17.004 24.418">
  <g id="add-user" transform="translate(-4.41 -1.25)">
    <g id="Group_18310" data-name="Group 18310" transform="translate(7.16 1.25)">
      <path id="Path_34526" data-name="Path 34526" d="M19.193,20.469H14.609a.859.859,0,0,1,0-1.719h4.583a.859.859,0,0,1,0,1.719Z" transform="translate(-5.797 1.302)" fill="#141414"/>
      <path id="Path_34527" data-name="Path 34527" d="M16.609,23.052a.866.866,0,0,1-.859-.859V17.609a.859.859,0,1,1,1.719,0v4.583A.866.866,0,0,1,16.609,23.052Z" transform="translate(-5.506 1.011)" fill="#141414"/>
      <path id="Path_34528" data-name="Path 34528" d="M12.94,13.133h-.092a.622.622,0,0,0-.206,0A5.922,5.922,0,0,1,6.81,7.2,5.837,5.837,0,0,1,8.54,3a5.942,5.942,0,1,1,4.434,10.129ZM12.745,2.969A4.218,4.218,0,0,0,12.6,11.4a1.908,1.908,0,0,1,.367,0,4.2,4.2,0,0,0,4.01-4.217,4.238,4.238,0,0,0-4.228-4.217Z" transform="translate(-6.81 -1.25)" fill="#141414"/>
    </g>
    <path id="Path_34529" data-name="Path 34529" d="M13.1,24.037a11.254,11.254,0,0,1-6.222-1.73A4.968,4.968,0,0,1,4.41,18.216a4.944,4.944,0,0,1,2.464-4.068,12.08,12.08,0,0,1,12.421,0,.865.865,0,0,1,.241,1.192.855.855,0,0,1-1.192.241,10.409,10.409,0,0,0-10.519,0,3.276,3.276,0,0,0-1.7,2.635,3.311,3.311,0,0,0,1.7,2.658,9.538,9.538,0,0,0,5.26,1.432.865.865,0,0,1,.011,1.73Z" transform="translate(0 1.631)" fill="#141414"/>
  </g>
</svg>
