<svg id="Add" xmlns="http://www.w3.org/2000/svg" width="23.574" height="23.574" viewBox="0 0 23.574 23.574">
  <g id="_01.Add" data-name="01.Add">
    <path id="Path_42" data-name="Path 42" d="M18.146,0H5.428A5.444,5.444,0,0,0,0,5.428V18.146a5.444,5.444,0,0,0,5.428,5.428H18.146a5.444,5.444,0,0,0,5.428-5.428V5.428A5.444,5.444,0,0,0,18.146,0ZM16.628,12.8H13.05a.208.208,0,0,0-.209.209V16.6a1.053,1.053,0,1,1-2.106,0V13.012a.208.208,0,0,0-.209-.209H6.947a1.053,1.053,0,1,1,0-2.106h3.578a.208.208,0,0,0,.209-.209V6.909a1.053,1.053,0,0,1,2.106,0v3.578a.208.208,0,0,0,.209.214h3.578a1.053,1.053,0,0,1,0,2.106Z" fill="#fff"/>
  </g>
</svg>
