<svg xmlns="http://www.w3.org/2000/svg" width="14.546" height="18.182" viewBox="0 0 14.546 18.182">
  <path id="add_alert_FILL0_wght400_GRAD0_opsz48" d="M166.591,187.659h1.364V185.75h1.909v-1.364h-1.909v-1.909h-1.364v1.909h-1.909v1.364h1.909Zm-6.591,3.8v-1.364h1.909v-6.955a5.484,5.484,0,0,1,1.125-3.4A4.852,4.852,0,0,1,166,177.864V177.2a1.124,1.124,0,0,1,.37-.864,1.276,1.276,0,0,1,.9-.341,1.3,1.3,0,0,1,.9.341,1.117,1.117,0,0,1,.375.864v.659a4.9,4.9,0,0,1,2.977,1.873,5.448,5.448,0,0,1,1.136,3.4v6.955h1.886v1.364ZM167.273,184.75Zm0,9.432a1.762,1.762,0,0,1-1.273-.534,1.733,1.733,0,0,1-.545-1.284h3.636a1.824,1.824,0,0,1-1.818,1.818Zm-4-4.091H171.3v-6.955a3.939,3.939,0,0,0-1.159-2.864,4.019,4.019,0,0,0-5.693,0,3.919,3.919,0,0,0-1.17,2.864Z" transform="translate(-160 -176)" opacity="0.75"/>
</svg>
