<svg xmlns="http://www.w3.org/2000/svg" width="22.32" height="22.32" viewBox="0 0 22.32 22.32">
  <path id="archive" d="M2,8.363a2.232,2.232,0,0,1,.489-1.394l2.97-3.712A3.348,3.348,0,0,1,8.073,2H18.247a3.348,3.348,0,0,1,2.614,1.256l2.97,3.712a2.232,2.232,0,0,1,.489,1.394V20.972a3.348,3.348,0,0,1-3.348,3.348H5.348A3.348,3.348,0,0,1,2,20.972ZM8.073,4.232H18.247a1.116,1.116,0,0,1,.871.419L21.1,7.127a.279.279,0,0,1-.218.453H5.439a.279.279,0,0,1-.218-.453L7.2,4.651a1.116,1.116,0,0,1,.871-.419Zm6.205,7.811a1.116,1.116,0,1,0-2.232,0V17.72l-.887-.887a1.116,1.116,0,1,0-1.578,1.578l2,2a2.232,2.232,0,0,0,3.156,0l2-2a1.116,1.116,0,1,0-1.578-1.578l-.883.883Z" transform="translate(-2 -2)" fill="#693dfe" fill-rule="evenodd"/>
</svg>
