<svg xmlns="http://www.w3.org/2000/svg" width="18.897" height="18.897" viewBox="0 0 18.897 18.897">
  <path id="archive_FILL0_wght400_GRAD0_opsz48" d="M121.575,234.9A1.615,1.615,0,0,1,120,233.322V219.6a2.464,2.464,0,0,1,.079-.669,1.308,1.308,0,0,1,.289-.512l1.47-1.995a1.117,1.117,0,0,1,.486-.328,2.072,2.072,0,0,1,.653-.092h12.945a1.95,1.95,0,0,1,.64.092,1.131,1.131,0,0,1,.472.328l1.5,1.995a1.308,1.308,0,0,1,.289.512,2.464,2.464,0,0,1,.079.669v13.727a1.615,1.615,0,0,1-1.575,1.575Zm.446-16.115H136.85l-.956-1.207H122.966Zm-.446,1.575v12.965h15.748V220.357Zm7.874,10.6,4.094-4.094-1.05-1.05-2.257,2.257V222.8h-1.575v5.275l-2.257-2.257-1.05,1.05Zm-7.874,2.362h0Z" transform="translate(-120 -216)"/>
</svg>
