<svg xmlns="http://www.w3.org/2000/svg" width="15" height="15" viewBox="0 0 15 15">
  <path id="archive_FILL0_wght400_GRAD0_opsz48" d="M121.25,231a1.282,1.282,0,0,1-1.25-1.25v-10.9a1.956,1.956,0,0,1,.063-.531,1.038,1.038,0,0,1,.229-.406l1.167-1.583a.887.887,0,0,1,.385-.26,1.645,1.645,0,0,1,.518-.073h10.276a1.548,1.548,0,0,1,.508.073.9.9,0,0,1,.375.26l1.188,1.583a1.038,1.038,0,0,1,.229.406,1.956,1.956,0,0,1,.062.531v10.9a1.282,1.282,0,0,1-1.25,1.25Zm.354-12.792h11.771l-.759-.958H122.354Zm-.354,1.25V229.75h12.5V219.458Zm6.25,8.417,3.25-3.25-.833-.833-1.792,1.792V221.4h-1.25v4.188l-1.792-1.792-.833.833Zm-6.25,1.875h0Z" transform="translate(-120 -216)" opacity="0.75"/>
</svg>
