<svg xmlns="http://www.w3.org/2000/svg" width="13.964" height="13.964" viewBox="0 0 13.964 13.964">
  <path id="archive" d="M2,5.981a1.4,1.4,0,0,1,.306-.872L4.164,2.786A2.1,2.1,0,0,1,5.8,2h6.365a2.1,2.1,0,0,1,1.636.786l1.858,2.322a1.4,1.4,0,0,1,.306.872v7.888a2.1,2.1,0,0,1-2.095,2.095H4.095A2.1,2.1,0,0,1,2,13.869ZM5.8,3.4h6.365a.7.7,0,0,1,.545.262l1.239,1.549a.175.175,0,0,1-.136.284H4.151a.175.175,0,0,1-.136-.284L5.254,3.658A.7.7,0,0,1,5.8,3.4ZM9.682,8.283a.7.7,0,1,0-1.4,0v3.551L7.73,11.28a.7.7,0,1,0-.987.987L8,13.52a1.4,1.4,0,0,0,1.975,0l1.25-1.25a.7.7,0,0,0-.987-.987l-.552.552Z" transform="translate(-2 -2)" fill-rule="evenodd" opacity="0.4"/>
</svg>
