<svg xmlns="http://www.w3.org/2000/svg" width="97.634" height="31" viewBox="0 0 97.634 31">
  <g id="Group_18531" data-name="Group 18531" transform="translate(-152.069 -14.198)">
    <g id="web-design" transform="translate(170.572 16.597) rotate(90)">
      <g id="Group_18474" data-name="Group 18474" transform="translate(0.615 0.614)">
        <g id="Group_18472" data-name="Group 18472" transform="translate(0 0)">
          <path id="Path_34548" data-name="Path 34548" d="M0,0H12.487V8.637H0Z" fill="#5fcdff"/>
          <path id="Path_34549" data-name="Path 34549" d="M0,0H12.487V8.637H0Z" transform="translate(12.487)" fill="#f9d335"/>
        </g>
        <g id="Group_18473" data-name="Group 18473" transform="translate(0 8.637)">
          <path id="Path_34550" data-name="Path 34550" d="M0,0H12.487V8.637H0Z" fill="#ff4a73"/>
          <path id="Path_34551" data-name="Path 34551" d="M0,0H12.487V8.637H0Z" transform="translate(12.487)" fill="#44c7b6"/>
        </g>
      </g>
      <g id="Group_18475" data-name="Group 18475" transform="translate(6.738 2.887)">
        <path id="Path_34552" data-name="Path 34552" d="M.969,0C.954.05.015,3.192.015,3.2a.35.35,0,0,0,.432.436l3.2-.941L2.307,1.346l-.018-.018Z" transform="translate(0 9.084)" fill="#a4a4a5"/>
        <path id="Path_34553" data-name="Path 34553" d="M2.677,11.774,1.292,10.382l-.6-.606L.608,9.7,0,9.086H0L8.831.244a.833.833,0,0,1,1.178,0l1.5,1.5a.833.833,0,0,1,0,1.178Z" transform="translate(0.97 0)" fill="#73d7f9"/>
        <path id="Path_34554" data-name="Path 34554" d="M2.2,0,0,2.2a.344.344,0,0,0,.358.1l3.2-.941L2.217.018Z" transform="translate(0.09 10.412)" fill="#87828e"/>
        <path id="Path_34555" data-name="Path 34555" d="M1.385,10.825,0,9.433,9.422,0l.8.8a.833.833,0,0,1,0,1.178Z" transform="translate(2.261 0.949)" fill="#5fcdff"/>
      </g>
      <g id="Group_18476" data-name="Group 18476">
        <path id="Path_34559" data-name="Path 34559" d="M25.589,0H.614A.614.614,0,0,0,0,.614V17.888a.614.614,0,0,0,.614.614H25.589a.614.614,0,0,0,.614-.614V.614A.614.614,0,0,0,25.589,0Zm-.614,8.637H17.267l2.389-2.392a1.448,1.448,0,0,0,0-2.045l-1.5-1.5a1.445,1.445,0,0,0-2.046,0L13.716,5.089V1.228H24.975ZM10.386,13.791l-1.81-1.818c6.561-6.57,1.794-1.8,8.4-8.408a.219.219,0,0,1,.31,0l1.5,1.5a.217.217,0,0,1,0,.309ZM8,13.135l1.221,1.227-1.739.513ZM1.228,1.228H12.488V6.317l-2.317,2.32H1.228Zm0,8.637H8.944L7.291,11.52a.612.612,0,0,0-.173.278s-.951,3.194-.953,3.193a.964.964,0,0,0,1.194,1.2l3.2-.941a.611.611,0,0,0,.261-.155l1.669-1.672v3.852H1.228Zm23.747,7.409H13.716V12.193L16.04,9.865h8.935Z" fill="#5f266d"/>
      </g>
    </g>
    <text id="Attendance_Entry" data-name="Attendance
Entry" transform="translate(176.703 27.198)" fill="#232e38" font-size="13" font-family="SpaceGrotesk-Bold, Space Grotesk" font-weight="700"><tspan x="0" y="0">Attendance</tspan><tspan x="0" y="14">Entry</tspan></text>
  </g>
</svg>
