<svg xmlns="http://www.w3.org/2000/svg" width="13.618" height="13.618" viewBox="0 0 13.618 13.618">
  <g id="layer1" transform="translate(-0.53 -280.596)">
    <path id="path2813" d="M7.339,280.6a6.787,6.787,0,0,0-2.811.6.227.227,0,0,0-.109.309l.406.813a.227.227,0,0,0,.3.105,5.445,5.445,0,0,1,6.725,8.029l-.715-.716a.227.227,0,0,0-.387.161v2.5a.227.227,0,0,0,.226.228h2.5a.227.227,0,0,0,.161-.389l-.8-.8A6.8,6.8,0,0,0,7.339,280.6ZM1.21,282.184a.227.227,0,0,0-.161.387l.805.805a6.808,6.808,0,0,0,8.3,10.231.227.227,0,0,0,.109-.309l-.407-.813a.227.227,0,0,0-.295-.105,5.446,5.446,0,0,1-6.728-8.028l.718.716a.227.227,0,0,0,.387-.161v-2.5a.227.227,0,0,0-.228-.228Zm6.571,1.362a.227.227,0,0,0-.181.106l-2.722,4.312a.227.227,0,0,0,.191.348h1.8l-.208,2.706a.227.227,0,0,0,.417.139L9.8,286.845a.227.227,0,0,0-.193-.348H7.81l.209-2.706a.227.227,0,0,0-.238-.245Z" fill="#007deb"/>
  </g>
</svg>
