<svg xmlns="http://www.w3.org/2000/svg" width="6.282" height="7.156" viewBox="0 0 6.282 7.156">
  <g id="back-to-top" transform="translate(0)">
    <path id="Subtraction_1" data-name="Subtraction 1" d="M3.612,7.156h-.94a.4.4,0,0,1-.38-.409V2.708L1.172,3.828a.5.5,0,0,1-.349.148.425.425,0,0,1-.3-.123l-.4-.4A.463.463,0,0,1,.147,2.8L2.8.147A.491.491,0,0,1,3.134,0h.017a.43.43,0,0,1,.3.122L6.136,2.8a.463.463,0,0,1,.024.651l-.4.4a.424.424,0,0,1-.3.123.5.5,0,0,1-.348-.148l-1.12-1.12V6.747A.4.4,0,0,1,3.612,7.156Z" transform="translate(0 0)" fill="#fff"/>
  </g>
</svg>
