<svg height="512" viewBox="0 0 24 24" width="512" fill="#FFFFFF" xmlns="http://www.w3.org/2000/svg"><g id="Layer_2" data-name="Layer 2"><path d="m2.27 13.216a1.216 1.216 0 0 1 0-2.432h19.46a1.216 1.216 0 1 1 0 2.432z"/><path d="m21.73 12.73h-19.46a.73.73 0 0 1 0-1.46h19.46a.73.73 0 0 1 0 1.46z"/><path d="m10.054 21a1.207 1.207 0 0 1 -.86-.356l-7.784-7.784a1.217 1.217 0 0 1 0-1.72l7.784-7.784a1.216 1.216 0 0 1 1.72 1.72l-6.924 6.924 6.924 6.924a1.216 1.216 0 0 1 -.86 2.076z"/><path d="m10.054 20.514a.73.73 0 0 1 -.516-.214l-7.784-7.784a.73.73 0 0 1 0-1.032l7.784-7.784a.73.73 0 0 1 1.032 1.032l-7.27 7.268 7.268 7.268a.73.73 0 0 1 -.516 1.246z"/></g></svg>