<svg xmlns="http://www.w3.org/2000/svg" width="12.565" height="14.313" viewBox="0 0 12.565 14.313">
  <g id="back-to-top" transform="translate(0)">
    <path id="Subtraction_1" data-name="Subtraction 1" d="M7.224,14.313H5.343a.791.791,0,0,1-.76-.818V5.417L2.345,7.656a1,1,0,0,1-.7.3A.849.849,0,0,1,1.041,7.7l-.8-.8a.927.927,0,0,1,.051-1.3L5.606.295A.981.981,0,0,1,6.269,0H6.3A.86.86,0,0,1,6.91.244l5.361,5.361a.926.926,0,0,1,.049,1.3l-.8.8a.847.847,0,0,1-.605.247,1,1,0,0,1-.7-.3L7.982,5.417v8.078A.79.79,0,0,1,7.224,14.313Z" transform="translate(0 0)" fill="#fff"/>
  </g>
</svg>
