<svg xmlns="http://www.w3.org/2000/svg" width="46.891" height="50.501" viewBox="0 0 46.891 50.501">
  <g id="Layer_42" data-name="Layer 42" transform="translate(-3 -2)">
    <rect id="Rectangle_33" data-name="Rectangle 33" width="37.874" height="32.463" transform="translate(6.607 7.411)" fill="#ffa726"/>
    <path id="Path_9" data-name="Path 9" d="M44.481,2H8.411A5.411,5.411,0,0,0,3,7.411V50.695a1.8,1.8,0,0,0,2.958,1.389l9.667-8.062,8.6,7.106a3.607,3.607,0,0,0,4.617,0l8.422-7.106,9.667,8.062a1.8,1.8,0,0,0,2.958-1.389V7.411A5.411,5.411,0,0,0,44.481,2ZM39.07,32.66H13.821a1.8,1.8,0,1,1,0-3.607H39.07a1.8,1.8,0,1,1,0,3.607Zm0-9.018H13.821a1.8,1.8,0,1,1,0-3.607H39.07a1.8,1.8,0,1,1,0,3.607Zm0-9.018H13.821a1.8,1.8,0,0,1,0-3.607H39.07a1.8,1.8,0,1,1,0,3.607Z" transform="translate(0)" fill="#ffa726"/>
    <g id="hive" transform="translate(12.735 10.304)">
      <path id="Path_15" data-name="Path 15" d="M105.052,455.476a1.847,1.847,0,0,0,1.845,1.845h15.387a1.845,1.845,0,0,0,0-3.689H106.9a1.847,1.847,0,0,0-1.845,1.845Z" transform="translate(-100.88 -431.291)" fill="#232e38"/>
      <path id="Path_16" data-name="Path 16" d="M72.038,367.082a1.847,1.847,0,0,0,1.845,1.845H93.441a1.845,1.845,0,0,0,0-3.69H73.883A1.847,1.847,0,0,0,72.038,367.082Z" transform="translate(-69.952 -348.482)" fill="#232e38"/>
      <path id="Path_17" data-name="Path 17" d="M105.052,101.9a1.847,1.847,0,0,0,1.845,1.845h15.387a1.845,1.845,0,0,0,0-3.689H106.9A1.847,1.847,0,0,0,105.052,101.9Z" transform="translate(-100.88 -100.056)" fill="#232e38"/>
      <path id="Path_18" data-name="Path 18" d="M93.441,188.449H73.883a1.845,1.845,0,1,0,0,3.689H93.441a1.845,1.845,0,1,0,0-3.689Z" transform="translate(-69.952 -182.864)" fill="#232e38"/>
      <path id="Path_19" data-name="Path 19" d="M64.6,276.843H40.868a1.845,1.845,0,1,0,0,3.689H64.6a1.845,1.845,0,1,0,0-3.689Z" transform="translate(-39.023 -265.673)" fill="#232e38"/>
    </g>
  </g>
</svg>
