<svg xmlns="http://www.w3.org/2000/svg" width="96.762" height="35" viewBox="0 0 96.762 35">
  <g id="App_Logo" data-name="App Logo" transform="translate(-106.238 -14.5)">
    <text id="SWOT_Analysis" data-name="SWOT
Analysis" transform="translate(142 29.5)" fill="#232e38" font-size="15" font-family="SpaceGrotesk-Bold, Space Grotesk" font-weight="700"><tspan x="0" y="0">SWOT</tspan><tspan x="0" y="16">Analysis</tspan></text>
    <g id="logo" transform="translate(106.238 17.5)">
      <path id="Path_30" data-name="Path 30" d="M14.226,0H2.634A2.637,2.637,0,0,0,0,2.634V14.226H14.226Z" transform="translate(0)" fill="#66bb6a"/>
      <path id="Path_31" data-name="Path 31" d="M257.226,14.226V2.634A2.637,2.637,0,0,0,254.591,0H243V14.226Z" transform="translate(-228.774)" fill="#ffa726"/>
      <path id="Path_33" data-name="Path 33" d="M0,243v11.591a2.637,2.637,0,0,0,2.634,2.634H14.226V243Z" transform="translate(0 -228.774)" fill="#42a5f5"/>
      <path id="Icon_awesome-plus" data-name="Icon awesome-plus" d="M5.507,4.2H3.6V2.3a.424.424,0,0,0-.424-.424H2.753A.424.424,0,0,0,2.33,2.3V4.2H.424A.424.424,0,0,0,0,4.628v.424a.424.424,0,0,0,.424.424H2.33V7.382a.424.424,0,0,0,.424.424h.424A.424.424,0,0,0,3.6,7.382V5.476H5.507a.424.424,0,0,0,.424-.424V4.628A.424.424,0,0,0,5.507,4.2Z" transform="translate(4.148 16.047)" fill="#fff"/>
      <path id="Path_40" data-name="Path 40" d="M257.226,0V11.591a2.637,2.637,0,0,1-2.634,2.634H243V0Z" transform="translate(-228.774 14.226)" fill="#ef5350"/>
      <g id="back-to-top" transform="translate(4.554 4.186)">
        <path id="Subtraction_1" data-name="Subtraction 1" d="M2.942,5.83H2.176a.322.322,0,0,1-.31-.333V2.206l-.912.912a.408.408,0,0,1-.284.12.346.346,0,0,1-.247-.1L.1,2.814A.377.377,0,0,1,.12,2.283L2.283.12A.4.4,0,0,1,2.553,0h.014a.35.35,0,0,1,.247.1L5,2.283a.377.377,0,0,1,.02.531l-.325.324a.345.345,0,0,1-.247.1.405.405,0,0,1-.283-.12l-.913-.912V5.5A.322.322,0,0,1,2.942,5.83Z" transform="translate(0 0)" fill="#fff"/>
      </g>
      <g id="back-to-top-2" data-name="back-to-top" transform="translate(18.78 4.198)">
        <path id="Subtraction_1-2" data-name="Subtraction 1" d="M2.942,0H2.176a.322.322,0,0,0-.31.333v3.29L.955,2.711a.409.409,0,0,0-.284-.12.346.346,0,0,0-.247.1L.1,3.016a.378.378,0,0,0,.021.531L2.283,5.71a.4.4,0,0,0,.27.12h.014a.35.35,0,0,0,.247-.1L5,3.546a.377.377,0,0,0,.02-.531l-.325-.324a.345.345,0,0,0-.247-.1.405.405,0,0,0-.283.12l-.913.912V.333A.322.322,0,0,0,2.942,0Z" transform="translate(0 0)" fill="#fff"/>
      </g>
      <path id="Icon_awesome-exclamation" data-name="Icon awesome-exclamation" d="M2.791,5a.927.927,0,1,1-.927-.927A.928.928,0,0,1,2.791,5ZM1.045.292,1.2,3.442a.278.278,0,0,0,.278.264h.768a.278.278,0,0,0,.278-.264L2.684.292A.278.278,0,0,0,2.406,0H1.322A.278.278,0,0,0,1.045.292Z" transform="translate(19.035 17.922)" fill="#fff"/>
    </g>
  </g>
</svg>
