<svg xmlns="http://www.w3.org/2000/svg" width="26" height="27" viewBox="0 0 26 27">
  <g id="Calendar" transform="translate(-0.271 0.291)">
    <rect id="Rectangle_118" data-name="Rectangle 118" width="26" height="27" transform="translate(0.271 -0.291)" fill="#fff"/>
    <g id="calendar_1_" data-name="calendar (1)" transform="translate(5.119 5.119)">
      <g id="Group_60" data-name="Group 60">
        <path id="Path_26" data-name="Path 26" d="M14.393,1.274h-.764V0H12.355V1.274H3.949V0H2.675V1.274H1.911A1.913,1.913,0,0,0,0,3.184V14.393A1.913,1.913,0,0,0,1.911,16.3h9.06L16.3,10.765V3.184A1.913,1.913,0,0,0,14.393,1.274ZM11.336,14.087V11.782a.638.638,0,0,1,.637-.637h2.2ZM15.03,9.871H11.973a1.913,1.913,0,0,0-1.911,1.911V15.03H1.911a.638.638,0,0,1-.637-.637V5.987H15.03Zm0-5.159H1.274V3.184a.638.638,0,0,1,.637-.637h.764V3.821H3.949V2.547h8.407V3.821h1.274V2.547h.764a.638.638,0,0,1,.637.637Z"/>
      </g>
    </g>
  </g>
</svg>
