<svg xmlns="http://www.w3.org/2000/svg" width="26" height="27" viewBox="0 0 26 27">
  <g id="Calendar" transform="translate(0)">
    <rect id="Rectangle_118" data-name="Rectangle 118" width="26" height="27" transform="translate(0)" fill="none"/>
    <g id="Layer_93" data-name="Layer 93" transform="translate(4.419 2.709)">
      <path id="Union_1" data-name="Union 1" d="M3.237,21.581A3.237,3.237,0,0,1,0,18.344V9.712H21.581v8.632a3.238,3.238,0,0,1-3.237,3.237ZM0,7.553V6.475A3.237,3.237,0,0,1,3.237,3.237h1.08V1.08a1.079,1.079,0,1,1,2.157,0V3.237h8.632V1.08a1.079,1.079,0,1,1,2.158,0V3.237h1.079a3.238,3.238,0,0,1,3.237,3.237V7.553Z" fill="#d9d9d9"/>
    </g>
  </g>
</svg>
