<svg xmlns="http://www.w3.org/2000/svg" width="52.594" height="52.873" viewBox="0 0 52.594 52.873">
  <g id="megaphone" transform="translate(-6.264 -5.982)">
    <path id="Path_20583" data-name="Path 20583" d="M25.693,10.936c-2.637,6.147-3.024,12.247-9.817,17.072l-6.409,3.85C6.228,33.8,4.891,39.811,8.11,45.079A11.838,11.838,0,0,0,14.9,50.864c2.28.635,4.218,1.226,6.094,3.116l4.41,5.058a2.81,2.81,0,0,0,3.438.522l4.121-2.38a2.039,2.039,0,0,0,.659-2.887L28.94,46.177c3.765-2.176,13.081-.051,17.527.745,2.225.394,3.617-2.087,2.415-4.168-6.127-10.61-18.374-31.825-18.374-31.825-1.332-2.306-3.93-2.056-4.816.007Z" transform="translate(0 -1.07)" fill="#ff5722"/>
    <path id="Path_20584" data-name="Path 20584" d="M54.045,18.863a2.373,2.373,0,0,0,0,4.082,13.419,13.419,0,0,1,6.331,10.964,2.372,2.372,0,1,0,4.741-.129A18.1,18.1,0,0,0,56.524,18.9,2.381,2.381,0,0,0,54.045,18.863Z" transform="translate(-15.065 -4.055)" fill="#ffc107"/>
    <path id="Path_20585" data-name="Path 20585" d="M57.9,6.358a2.374,2.374,0,0,0,.363,4.186,20.777,20.777,0,0,1,9.2,8.641,20.772,20.772,0,0,1,2.88,12.289A2.373,2.373,0,1,0,75.066,32a25.251,25.251,0,0,0-3.49-15.187A25.234,25.234,0,0,0,60.168,6.2a2.38,2.38,0,0,0-2.267.162Z" transform="translate(-16.334)" fill="#ffc107"/>
  </g>
</svg>
