<svg xmlns="http://www.w3.org/2000/svg" width="59.34" height="66.202" viewBox="0 0 59.34 66.202">
  <g id="piggy-bank" transform="translate(-26.536)">
    <path id="Path_44" data-name="Path 44" d="M186.986,12.036q0,.482-.037.953a12.037,12.037,0,0,1-24,0q-.038-.471-.037-.953a12.036,12.036,0,0,1,24.073,0Z" transform="translate(-118.744)" fill="#ffe874"/>
    <path id="Path_46" data-name="Path 46" d="M227.264,35.339c0,2.21-2.249,4.009-5.012,4.009a1,1,0,0,1,0-2c1.633,0,3.013-.921,3.013-2.01s-1.38-2.01-3.013-2.01a5.442,5.442,0,0,1-4.15-1.764,3.458,3.458,0,0,1-.862-2.245c0-1.936,1.727-3.556,4.013-3.927V24.306a1,1,0,1,1,2,0v1.087c2.286.372,4.013,1.992,4.013,3.927a1,1,0,1,1-2,0c0-1.088-1.38-2.009-3.013-2.009s-3.014.921-3.014,2.009,1.38,2.01,3.014,2.01c.136,0,.271,0,.4.015h0C225.233,31.511,227.264,33.238,227.264,35.339Z" transform="translate(-166.047 -20.293)" fill="#ffb300"/>
    <path id="Path_48" data-name="Path 48" d="M261.384,310.64a31.22,31.22,0,0,1,4.866,17.665,4.937,4.937,0,0,0,9.576,1.821,31.323,31.323,0,0,0,.6-19.822Z" transform="translate(-204.482 -270.181)" fill="#d93380"/>
    <path id="Path_49" data-name="Path 49" d="M140.478,310.64a31.221,31.221,0,0,0-4.867,17.665,4.937,4.937,0,0,1-9.576,1.821,31.323,31.323,0,0,1-.6-19.822Z" transform="translate(-84.968 -270.181)" fill="#d93380"/>
    <path id="Path_50" data-name="Path 50" d="M326.26,347.549a31.2,31.2,0,0,1-1.509,5.8,4.97,4.97,0,0,1-1.806,2.357,4.941,4.941,0,0,1-7.769-4.178,31.22,31.22,0,0,0-4.867-17.665l15.046-.337A30.613,30.613,0,0,1,326.26,347.549Z" transform="translate(-247.08 -290.396)" fill="#ff4b9f"/>
    <path id="Path_51" data-name="Path 51" d="M86.687,351.522a4.833,4.833,0,0,1-.035.726,4.937,4.937,0,0,1-9.541,1.095,31.241,31.241,0,0,1-1.509-5.791,30.609,30.609,0,0,1,.906-14.032l15.046.337A31.221,31.221,0,0,0,86.687,351.522Z" transform="translate(-42.37 -290.395)" fill="#ff4b9f"/>
    <path id="Path_52" data-name="Path 52" d="M40.259,117.425c-3.609,2.53-9.172.821-12.427-3.819-.1-.148-.2-.3-.289-.454-2.722-4.708.931-12.529.931-12.529s6.68-.6,10.66,2.109A6.779,6.779,0,0,1,40.9,104.44C44.156,109.08,43.868,114.894,40.259,117.425Z" transform="translate(0 -87.562)" fill="#ff4b9f"/>
    <path id="Path_54" data-name="Path 54" d="M67.782,142.726c-1.362.955-3.753-.111-5.343-2.378a4.712,4.712,0,0,1-.773-2.106,9.156,9.156,0,0,1,.207-3.172.664.664,0,0,1,.725-.507,9.673,9.673,0,0,1,2.528.642,5.067,5.067,0,0,1,2.241,1.688C68.956,139.159,69.142,141.772,67.782,142.726Z" transform="translate(-30.535 -117.159)" fill="#fff"/>
    <path id="Path_55" data-name="Path 55" d="M67.777,141.243c1.589,2.267,1.776,4.88.416,5.834s-3.753-.111-5.343-2.378a4.712,4.712,0,0,1-.773-2.106l.145-.148a30.471,30.471,0,0,1,3.315-2.889A5.066,5.066,0,0,1,67.777,141.243Z" transform="translate(-30.946 -121.51)" fill="#fff"/>
    <path id="Path_56" data-name="Path 56" d="M372.475,113.144c-.091.157-.188.312-.293.461-3.255,4.64-8.818,6.349-12.427,3.819s-3.9-8.345-.642-12.985a6.772,6.772,0,0,1,1.776-1.715c3.982-2.7,10.651-2.1,10.651-2.1S375.189,108.435,372.475,113.144Z" transform="translate(-287.603 -87.562)" fill="#ff4b9f"/>
    <path id="Path_58" data-name="Path 58" d="M402.613,138.238a4.727,4.727,0,0,1-.773,2.109c-1.591,2.267-3.982,3.333-5.343,2.378s-1.174-3.566.416-5.834a5.073,5.073,0,0,1,2.245-1.691,9.691,9.691,0,0,1,2.523-.639.664.664,0,0,1,.725.507A9.174,9.174,0,0,1,402.613,138.238Z" transform="translate(-321.333 -117.159)" fill="#fff"/>
    <path id="Path_59" data-name="Path 59" d="M402.613,142.571a4.727,4.727,0,0,1-.773,2.109c-1.591,2.267-3.982,3.333-5.343,2.378s-1.174-3.566.416-5.834a5.073,5.073,0,0,1,2.245-1.691q.635.482,1.246.993Q401.572,141.506,402.613,142.571Z" transform="translate(-321.333 -121.492)" fill="#fff"/>
    <path id="Path_60" data-name="Path 60" d="M91.417,140.437c0,12.946-12.184,19.7-27.459,20.046q-.619.014-1.244.015c-15.852,0-28.7-6.765-28.7-20.06,0-11.69,9.934-21.434,23.108-23.617a34.241,34.241,0,0,1,5.6-.457C78.566,116.363,91.417,127.142,91.417,140.437Z" transform="translate(-6.508 -101.317)" fill="#ff76b6"/>
    <g id="Group_54" data-name="Group 54" transform="translate(45.161 26.539)">
      <ellipse id="Ellipse_12" data-name="Ellipse 12" cx="9.028" cy="6.018" rx="9.028" ry="6.018" transform="translate(2.017 3.553)" fill="#fff"/>
      <g id="Group_50" data-name="Group 50" transform="translate(0)">
        <path id="Path_62" data-name="Path 62" d="M173.31,208.034a3.288,3.288,0,0,1-2.479-1.129,1,1,0,1,1,1.506-1.313,1.288,1.288,0,0,0,1.945,0,1,1,0,1,1,1.507,1.313A3.288,3.288,0,0,1,173.31,208.034Z" transform="translate(-170.585 -205.249)" fill="#444d56"/>
      </g>
      <g id="Group_51" data-name="Group 51" transform="translate(16.639)">
        <path id="Path_63" data-name="Path 63" d="M301.991,208.034a3.288,3.288,0,0,1-2.479-1.129,1,1,0,1,1,1.506-1.313,1.288,1.288,0,0,0,1.946,0,1,1,0,1,1,1.506,1.313A3.289,3.289,0,0,1,301.991,208.034Z" transform="translate(-299.267 -205.249)" fill="#444d56"/>
      </g>
      <g id="Group_52" data-name="Group 52" transform="translate(7.036 6.566)">
        <path id="Path_64" data-name="Path 64" d="M226,260.035a1,1,0,0,1-1-1V257.03a1,1,0,1,1,2,0v2.006A1,1,0,0,1,226,260.035Z" transform="translate(-225.001 -256.031)" fill="#ff76b6"/>
      </g>
      <g id="Group_53" data-name="Group 53" transform="translate(13.054 6.566)">
        <path id="Path_65" data-name="Path 65" d="M272.545,260.035a1,1,0,0,1-1-1V257.03a1,1,0,1,1,2,0v2.006A1,1,0,0,1,272.545,260.035Z" transform="translate(-271.546 -256.031)" fill="#ff76b6"/>
      </g>
    </g>
  </g>
</svg>
