<svg xmlns="http://www.w3.org/2000/svg" xmlns:xlink="http://www.w3.org/1999/xlink" width="50.889" height="50.889" viewBox="0 0 50.889 50.889">
  <defs>
    <filter id="Rectangle_19" x="0" y="0" width="50.889" height="50.889" filterUnits="userSpaceOnUse">
      <feOffset dy="1.852" input="SourceAlpha"/>
      <feGaussianBlur stdDeviation="3.148" result="blur"/>
      <feFlood flood-color="#294898" flood-opacity="0.012"/>
      <feComposite operator="in" in2="blur"/>
      <feComposite in="SourceGraphic"/>
    </filter>
  </defs>
  <g id="Group_5" data-name="Group 5" transform="translate(-1312.556 -39.407)">
    <g transform="matrix(1, 0, 0, 1, 1312.56, 39.41)" filter="url(#Rectangle_19)">
      <g id="Rectangle_19-2" data-name="Rectangle 19" transform="translate(9.44 7.59)" fill="#fefeff" stroke="#efeeee" stroke-width="1">
        <rect width="32" height="32" rx="6" stroke="none"/>
        <rect x="0.5" y="0.5" width="31" height="31" rx="5.5" fill="none"/>
      </g>
    </g>
    <path id="plus_2_" data-name="plus (2)" d="M15.164,7.681H8.78V.853a.8.8,0,1,0-1.6,0V7.681H.8a.855.855,0,0,0,0,1.707H7.183v6.827a.8.8,0,1,0,1.6,0V9.387h6.385a.855.855,0,0,0,0-1.707Zm0,0" transform="translate(1338.069 51) rotate(45)"/>
  </g>
</svg>
