<svg xmlns="http://www.w3.org/2000/svg" width="43" height="43" viewBox="0 0 43 43">
  <g id="Export" transform="translate(0.001)">
    <rect id="Rectangle_7289" data-name="Rectangle 7289" width="43" height="43" rx="5" transform="translate(-0.001)" fill="#232e38" opacity="0.7"/>
    <g id="pdf-file-format-symbol" transform="translate(-21.011 9.557)">
      <path id="Path_34563" data-name="Path 34563" d="M118.886,259.656c0-.7-.485-1.115-1.34-1.115a2.929,2.929,0,0,0-.709.067v2.242a2.661,2.661,0,0,0,.574.045C118.323,260.9,118.886,260.433,118.886,259.656Z" transform="translate(-81.505 -246.946)" fill="#fafafa"/>
      <path id="Path_34564" data-name="Path 34564" d="M257.134,259.019a3.576,3.576,0,0,0-.778.068v4.967a3.118,3.118,0,0,0,.6.034,2.354,2.354,0,0,0,2.568-2.658A2.177,2.177,0,0,0,257.134,259.019Z" transform="translate(-214.795 -247.477)" fill="#fafafa"/>
      <path id="Path_34565" data-name="Path 34565" d="M52.089,8.876h-.6V6a.419.419,0,0,0-.005-.054.477.477,0,0,0-.115-.315L46.588.166l0,0a.483.483,0,0,0-.1-.081L46.456.063a.5.5,0,0,0-.1-.04L46.333.014A.485.485,0,0,0,46.222,0H34.464a.974.974,0,0,0-.973.973v7.9h-.6A1.391,1.391,0,0,0,31.5,10.267V17.5a1.391,1.391,0,0,0,1.391,1.391h.6v4.951a.974.974,0,0,0,.973.973H50.52a.974.974,0,0,0,.973-.973V18.89h.6A1.391,1.391,0,0,0,53.48,17.5V10.267A1.391,1.391,0,0,0,52.089,8.876ZM34.464.973H45.735V5.952a.487.487,0,0,0,.487.487h4.3V8.876H34.464ZM46.409,13.922A3.683,3.683,0,0,1,45.2,16.865a5.213,5.213,0,0,1-3.352.938,14.282,14.282,0,0,1-1.865-.108V10.558a14.7,14.7,0,0,1,2.221-.151,4.678,4.678,0,0,1,2.975.776A3.215,3.215,0,0,1,46.409,13.922ZM33.72,17.728V10.558a13.505,13.505,0,0,1,2.221-.151,3.483,3.483,0,0,1,2.221.582,2.123,2.123,0,0,1,.776,1.682,2.32,2.32,0,0,1-.668,1.725,3.368,3.368,0,0,1-2.361.766,4.114,4.114,0,0,1-.56-.033v2.6H33.72Zm16.8,5.85H34.464V18.89H50.52v4.688Zm1.41-11.769H49.137v1.66h2.609v1.337H49.137v2.921H47.489V10.462H51.93Z" transform="translate(0 0)" fill="#fafafa"/>
    </g>
  </g>
</svg>
