<svg xmlns="http://www.w3.org/2000/svg" width="13.272" height="16.606" viewBox="0 0 13.272 16.606">
  <g id="copy" transform="translate(0.3 0.3)">
    <path id="Path_34481" data-name="Path 34481" d="M19.1,2.415h-.973v-.97A1.368,1.368,0,0,0,16.759.08h-7.6A1.368,1.368,0,0,0,7.79,1.445V12.383a1.368,1.368,0,0,0,1.365,1.365h.973v.973a1.368,1.368,0,0,0,1.365,1.365h7.6a1.368,1.368,0,0,0,1.365-1.365V3.78A1.366,1.366,0,0,0,19.1,2.415ZM8.511,12.38V1.445A.646.646,0,0,1,9.158.8h7.6a.646.646,0,0,1,.646.646V12.383a.646.646,0,0,1-.646.646H9.155a.649.649,0,0,1-.644-.649Zm11.232,2.338a.646.646,0,0,1-.646.646h-7.6a.646.646,0,0,1-.646-.646v-.973h5.913a1.368,1.368,0,0,0,1.365-1.365V3.134H19.1a.646.646,0,0,1,.646.646Z" transform="translate(-7.79 -0.08)" fill="#fff" stroke="#fff" stroke-width="0.6"/>
  </g>
</svg>
