<svg xmlns="http://www.w3.org/2000/svg" width="43" height="43" viewBox="0 0 43 43">
  <g id="Export" transform="translate(0.001)">
    <rect id="Rectangle_7289" data-name="Rectangle 7289" width="43" height="43" rx="5" transform="translate(-0.001)" fill="#232e38" opacity="0.7"/>
    <g id="google-sheets" transform="translate(-49.001 8)">
      <path id="Path_34566" data-name="Path 34566" d="M331.764,14.455h4.9L331,8.789v4.9A.765.765,0,0,0,331.764,14.455Z" transform="translate(-256.244 -8.341)" fill="#fafafa"/>
      <path id="Path_34567" data-name="Path 34567" d="M271,241h3.057v1.528H271Z" transform="translate(-199.301 -228.722)" fill="#fafafa"/>
      <path id="Path_34568" data-name="Path 34568" d="M271,301h3.057v1.528H271Z" transform="translate(-199.301 -285.665)" fill="#fafafa"/>
      <path id="Path_34569" data-name="Path 34569" d="M181,301h3.057v1.528H181Z" transform="translate(-113.886 -285.665)" fill="#fafafa"/>
      <path id="Path_34570" data-name="Path 34570" d="M271,361h3.057v1.528H271Z" transform="translate(-199.301 -342.608)" fill="#fafafa"/>
      <path id="Path_34571" data-name="Path 34571" d="M63.293,26.085H78.577a2.3,2.3,0,0,0,2.293-2.293V7.642H75.52a2.3,2.3,0,0,1-2.293-2.293V0H63.293A2.3,2.3,0,0,0,61,2.293v21.5A2.3,2.3,0,0,0,63.293,26.085Zm2.293-14.571a.764.764,0,0,1,.764-.764h9.17a.764.764,0,0,1,.764.764v9.17a.764.764,0,0,1-.764.764h-9.17a.764.764,0,0,1-.764-.764Z" fill="#fafafa"/>
      <path id="Path_34572" data-name="Path 34572" d="M181,361h3.057v1.528H181Z" transform="translate(-113.886 -342.608)" fill="#fafafa"/>
      <path id="Path_34573" data-name="Path 34573" d="M181,241h3.057v1.528H181Z" transform="translate(-113.886 -228.722)" fill="#fafafa"/>
    </g>
  </g>
</svg>
