<svg xmlns="http://www.w3.org/2000/svg" width="11.457" height="15.564" viewBox="0 0 11.457 15.564">
  <g id="Group_18272" data-name="Group 18272" transform="translate(-1818.881 -264.94)">
    <g id="Group_18273" data-name="Group 18273">
      <g id="trash" transform="translate(1818.881 264.94)">
        <path id="Path_4" data-name="Path 4" d="M195.86,147.242h-7.354a.73.73,0,0,1-.728-.681l-.631-9.381a.73.73,0,0,1,.728-.779h8.616a.731.731,0,0,1,.728.779l-.631,9.381A.73.73,0,0,1,195.86,147.242Zm2.079-12.209H186.517a.016.016,0,0,1-.017-.017v-2a.016.016,0,0,1,.017-.017h11.422a.016.016,0,0,1,.017.017v2A.018.018,0,0,1,197.939,135.032Z" transform="translate(-186.5 -131.677)" fill="#fafafa"/>
        <path id="Path_5" data-name="Path 5" d="M344.921,59.205h-6.1a.016.016,0,0,1-.017-.017v-2.27a.016.016,0,0,1,.017-.017h6.1a.016.016,0,0,1,.017.017v2.27A.017.017,0,0,1,344.921,59.205Z" transform="translate(-336.152 -56.9)" fill="#fafafa"/>
      </g>
    </g>
  </g>
</svg>
