<svg xmlns="http://www.w3.org/2000/svg" width="16.772" height="20.924" viewBox="0 0 16.772 20.924">
  <g id="download-arrow" transform="translate(-53.357)">
    <g id="Group_13" data-name="Group 13" transform="translate(53.357)">
      <path id="Path_5" data-name="Path 5" d="M69.3,466.114H54.193a.839.839,0,0,0-.836.836v1.116a.839.839,0,0,0,.836.836h15.1a.839.839,0,0,0,.836-.836V466.95A.825.825,0,0,0,69.3,466.114Z" transform="translate(-53.357 -447.979)" fill="white"/>fill="#ffa726"
      <path id="Path_6" data-name="Path 6" d="M106.47,16.638a.835.835,0,0,0,.589.247.825.825,0,0,0,.589-.247l5.721-5.721a.843.843,0,0,0,0-1.185l-.792-.792a.843.843,0,0,0-1.185,0l-2.941,2.944V.836A.839.839,0,0,0,107.616,0H106.5a.835.835,0,0,0-.836.836V11.888L102.72,8.944a.843.843,0,0,0-1.185,0l-.792.792a.843.843,0,0,0,0,1.185Z" transform="translate(-98.666 0)" fill="white"/>fill="#ffa726"
    </g>
  </g>
</svg>
