<svg xmlns="http://www.w3.org/2000/svg" width="16.372" height="15.38" viewBox="0 0 16.372 15.38">
  <path id="Download" d="M15.872,12.44A3.476,3.476,0,0,1,12.4,15.912H9.92a.5.5,0,0,1,0-.992H12.4a2.48,2.48,0,1,0,0-4.96h-.5a.5.5,0,0,1-.5-.5,3.472,3.472,0,1,0-6.944,0,.5.5,0,0,1-.5.5h-.5a2.48,2.48,0,0,0,0,4.96h2.48a.5.5,0,1,1,0,.992H3.472a3.472,3.472,0,0,1,0-6.944H3.5a4.464,4.464,0,0,1,8.873,0H12.4A3.476,3.476,0,0,1,15.872,12.44ZM9.57,17.05,8.432,18.187V11.944a.5.5,0,0,0-.992,0v6.243L6.3,17.05a.5.5,0,0,0-.7.7l1.984,1.984a.5.5,0,0,0,.7,0l1.984-1.984a.5.5,0,1,0-.7-.7Z" transform="translate(0.25 -4.75)" fill="#fff" stroke="#fff" stroke-width="0.5"/>
</svg>
