<svg xmlns="http://www.w3.org/2000/svg" width="20.337" height="15.231" viewBox="0 0 20.337 15.231">
  <g id="email" transform="translate(0 -64.266)">
    <path id="Path_3" data-name="Path 3" d="M11.868,177.054a3.059,3.059,0,0,1-3.4,0L.135,171.5c-.046-.031-.091-.063-.135-.1v9.1a1.872,1.872,0,0,0,1.872,1.872H18.465a1.872,1.872,0,0,0,1.872-1.872v-9.1c-.044.033-.089.065-.136.1Z" transform="translate(0 -102.881)" fill="#fff"/>
    <path id="Path_4" data-name="Path 4" d="M.8,67.626,9.13,73.182a1.867,1.867,0,0,0,2.077,0l8.333-5.556a1.784,1.784,0,0,0,.8-1.489,1.874,1.874,0,0,0-1.871-1.871H1.872A1.874,1.874,0,0,0,0,66.138a1.784,1.784,0,0,0,.8,1.488Z" fill="#fff"/>
  </g>
</svg>
