<svg xmlns="http://www.w3.org/2000/svg" width="15.14" height="21.3" viewBox="0 0 15.14 21.3">
  <g id="user_1_" data-name="user (1)" opacity="0.4">
    <path id="Path_34524" data-name="Path 34524" d="M12.16,11.62h-.08a.543.543,0,0,0-.18,0,5.145,5.145,0,1,1,.29,0ZM12,2.75a3.686,3.686,0,0,0-.14,7.37,1.651,1.651,0,0,1,.32,0A3.687,3.687,0,0,0,12,2.75Z" transform="translate(-4.6 -1.25)" fill="#fff"/>
    <path id="Path_34525" data-name="Path 34525" d="M12.17,22.55a9.878,9.878,0,0,1-5.42-1.5A4.291,4.291,0,0,1,4.6,17.5a4.336,4.336,0,0,1,2.15-3.57,10.588,10.588,0,0,1,10.84,0,4.314,4.314,0,0,1,2.15,3.55,4.336,4.336,0,0,1-2.15,3.57,9.9,9.9,0,0,1-5.42,1.5ZM7.58,15.19A2.876,2.876,0,0,0,6.1,17.51a2.869,2.869,0,0,0,1.48,2.3,9.037,9.037,0,0,0,9.18,0,2.876,2.876,0,0,0,1.48-2.32,2.869,2.869,0,0,0-1.48-2.3,9.084,9.084,0,0,0-9.18,0Z" transform="translate(-4.6 -1.25)" fill="#fff"/>
  </g>
</svg>
