<svg id="edit_2_" data-name="edit (2)" xmlns="http://www.w3.org/2000/svg" width="17.999" height="18.001" viewBox="0 0 17.999 18.001">
  <path id="Path_34546" data-name="Path 34546" d="M11.511,20.2l.5-2.513a.556.556,0,0,1,.154-.287L17.7,11.873a1.274,1.274,0,0,1,1.8,0L20.5,12.879a1.275,1.275,0,0,1,0,1.8l-5.53,5.53a.558.558,0,0,1-.287.154l-2.513.5a.563.563,0,0,1-.661-.662Z" transform="translate(-2.875 -2.875)" fill="#fafafa"/>
  <path id="Path_34547" data-name="Path 34547" d="M13.59,3.533,10.718.66A2.217,2.217,0,0,0,9.128,0H2.25A2.257,2.257,0,0,0,0,2.25V4.5A1.5,1.5,0,0,0,1.5,6V7.875A1.5,1.5,0,0,0,0,9.375V15.75A2.257,2.257,0,0,0,2.25,18H7.208a1.916,1.916,0,0,1-.045-.968l.105-.533H2.25a.752.752,0,0,1-.75-.75V9.375A1.5,1.5,0,0,0,3,7.875V6A1.5,1.5,0,0,0,1.5,4.5V2.25a.752.752,0,0,1,.75-.75H3V3.188a.563.563,0,1,0,1.125,0V1.5H5.813V3.188a.563.563,0,1,0,1.125,0V1.5H8.625V3.188a.563.563,0,0,0,1.125,0V1.808L12.533,4.59a.742.742,0,0,1,.218.533V8.948l1.013-1.013a2.605,2.605,0,0,1,.488-.383V5.123A2.217,2.217,0,0,0,13.59,3.533Z" transform="translate(0 0)" fill="#fafafa"/>
  <path id="Path_34548" data-name="Path 34548" d="M10.938,14H5.313A1.319,1.319,0,0,0,4,15.313v1.875A1.319,1.319,0,0,0,5.313,18.5H8.568l.1-.48a2.042,2.042,0,0,1,.57-1.05l2.6-2.6a1.27,1.27,0,0,0-.9-.368Z" transform="translate(-1 -3.5)" fill="#fafafa"/>
</svg>
