<svg xmlns="http://www.w3.org/2000/svg" width="34.452" height="53.453" viewBox="0 0 34.452 53.453">
  <g id="donation" transform="translate(-91)">
    <circle id="Ellipse_163" data-name="Ellipse 163" cx="4.752" cy="4.752" r="4.752" transform="translate(106.444 34.452)" fill="#43a047"/>
    <path id="Path_20580" data-name="Path 20580" d="M184.356,280.177a7.833,7.833,0,0,1,5.821-5.821,4.685,4.685,0,1,0-5.821,5.821Z" transform="translate(-80.604 -242.707)" fill="#43a047"/>
    <path id="Path_20581" data-name="Path 20581" d="M93.663,161.022A13.394,13.394,0,0,0,91,169.009v14.981a4.7,4.7,0,0,0,4.7,4.7h25.056a4.7,4.7,0,0,0,4.7-4.7V169.009a13.394,13.394,0,0,0-2.663-7.988,10.241,10.241,0,0,1-2.036-6.106v-.783a1.566,1.566,0,0,0,0-3.132H95.7a1.566,1.566,0,0,0,0,3.132v.783A10.242,10.242,0,0,1,93.663,161.022Zm11.432-.625a7.832,7.832,0,0,1,7.686,6.408,7.823,7.823,0,1,1-9.108,9.108,7.823,7.823,0,0,1,1.422-15.516Z" transform="translate(0 -135.236)" fill="#d81b60"/>
    <path id="Path_20582" data-name="Path 20582" d="M208.528,6.368a6.265,6.265,0,1,0-12.528,0,6.264,6.264,0,0,0,12.528,0Z" transform="translate(-94.038 0)" fill="#43a047"/>
  </g>
</svg>
