<svg xmlns="http://www.w3.org/2000/svg" width="43" height="43" viewBox="0 0 43 43">
  <g id="Export" transform="translate(0.001)">
    <rect id="Rectangle_7289" data-name="Rectangle 7289" width="43" height="43" rx="5" transform="translate(-0.001)" fill="#faf5ff"/>
    <g id="Layer_4" transform="translate(3.999 2.44)">
      <g id="Group_18577" data-name="Group 18577" transform="translate(8 10.56)">
        <path id="Path_34588" data-name="Path 34588" d="M46.369,56.617a6.7,6.7,0,0,0-5.479,2.85,1.055,1.055,0,0,0,0,1.211,6.693,6.693,0,0,0,10.96,0,1.056,1.056,0,0,0,0-1.21A6.7,6.7,0,0,0,46.369,56.617Zm0,5.771a5.563,5.563,0,0,1-4.512-2.315,5.554,5.554,0,0,1,9.023,0A5.563,5.563,0,0,1,46.369,62.388Z" transform="translate(-32.859 -45.574)" fill="#5a00c1" stroke="#5a00c1" stroke-width="0.2"/>
        <path id="Path_34589" data-name="Path 34589" d="M59.023,64.021A1.68,1.68,0,1,0,60.7,65.7,1.682,1.682,0,0,0,59.023,64.021Zm0,2.22a.54.54,0,1,1,.54-.54A.54.54,0,0,1,59.023,66.241Z" transform="translate(-45.512 -51.203)" fill="#5a00c1" stroke="#5a00c1" stroke-width="0.2"/>
        <path id="Path_34590" data-name="Path 34590" d="M26.239,20.819a.57.57,0,0,0,.57-.57V13.5a3.108,3.108,0,0,0-3.033-2.945H10.666A2.786,2.786,0,0,0,8,13.505v8.549a2.623,2.623,0,0,0,2.666,2.755H13.7a.57.57,0,0,0,0-1.14H10.666A1.489,1.489,0,0,1,9.14,22.055V13.505A1.657,1.657,0,0,1,10.666,11.7H23.775a1.95,1.95,0,0,1,1.894,1.805V20.25a.57.57,0,0,0,.57.57Z" transform="translate(-8 -10.56)" fill="#5a00c1" stroke="#5a00c1" stroke-width="0.2"/>
        <path id="Path_34591" data-name="Path 34591" d="M38.45,26.755a1.166,1.166,0,0,0-.7-.23,1.192,1.192,0,0,0-1.222,1.158v4.468a1.192,1.192,0,0,0,1.222,1.158,1.163,1.163,0,0,0,.7-.225l3.088-2.238a1.106,1.106,0,0,0,.448-.9,1.2,1.2,0,0,0-.49-.962Zm-.68,5.41c-.025.018-.09-.014-.1-.014h0L37.661,27.7a.128.128,0,0,1,.111-.029l3.085,2.255Z" transform="translate(-29.687 -22.697)" fill="#5a00c1" stroke="#5a00c1" stroke-width="0.2"/>
      </g>
    </g>
  </g>
</svg>
