<svg xmlns="http://www.w3.org/2000/svg" width="20" height="14.002" viewBox="0 0 20 14.002">
  <g id="eye" transform="translate(-2 -4.999)">
    <circle id="Ellipse_6" data-name="Ellipse 6" cx="2" cy="2" r="2" transform="translate(10 10)" fill="#fff"/>
    <path id="Path_20" data-name="Path 20" d="M21.94,11.65A10.531,10.531,0,0,0,12,5a10.531,10.531,0,0,0-9.94,6.65,1.051,1.051,0,0,0,0,.7A10.531,10.531,0,0,0,12,19a10.531,10.531,0,0,0,9.94-6.65A1.05,1.05,0,0,0,21.94,11.65ZM12,16h0a4,4,0,1,1,4-4,4,4,0,0,1-4,4Z" fill="#fff"/>
  </g>
</svg>
