<svg xmlns="http://www.w3.org/2000/svg" width="51.004" height="51.134" viewBox="0 0 51.004 51.134">
  <g id="form" transform="translate(-0.652)">
    <path id="Path_20586" data-name="Path 20586" d="M327.717,294.549a2.066,2.066,0,0,0,.953-.52l10.4-10.4a2.094,2.094,0,0,0,0-3.033l-3.553-3.553a2.1,2.1,0,0,0-3.033,0h0l-10.4,10.4a2.066,2.066,0,0,0-.52.953l-.867,5.113a1.75,1.75,0,0,0,1.993,1.993Z" transform="translate(-288.064 -248.789)" fill="#ffa726"/>
    <path id="Path_20587" data-name="Path 20587" d="M34.018,0H9.751a9.1,9.1,0,0,0-9.1,9.1V42.034a9.1,9.1,0,0,0,9.1,9.1H26.3a2.752,2.752,0,0,0,1.733-.693,2.213,2.213,0,0,0,.26-2.687,15.132,15.132,0,0,1,4.42-20.974,14.826,14.826,0,0,1,8.32-2.427A2.146,2.146,0,0,0,43.2,22.187V9.1A9.23,9.23,0,0,0,34.018,0ZM19.2,40.127H10.531a2.491,2.491,0,0,1-1.56-.607,2.089,2.089,0,0,1-.607-1.56,2.146,2.146,0,0,1,2.167-2.167H19.2a2.491,2.491,0,0,1,1.56.607,2.089,2.089,0,0,1,.607,1.56A2.146,2.146,0,0,1,19.2,40.127Zm3.467-10.92H10.531a2.491,2.491,0,0,1-1.56-.607,2.089,2.089,0,0,1-.607-1.56,2.146,2.146,0,0,1,2.167-2.167H22.665a2.491,2.491,0,0,1,1.56.607,2.089,2.089,0,0,1,.607,1.56A2.2,2.2,0,0,1,22.664,29.207Zm5.2-11.267H10.531a2.491,2.491,0,0,1-1.56-.607,2.089,2.089,0,0,1-.607-1.56,2.146,2.146,0,0,1,2.167-2.167H27.865a2.491,2.491,0,0,1,1.56.607,2.089,2.089,0,0,1,.607,1.56A2.2,2.2,0,0,1,27.865,17.94Z" transform="translate(0.001)" fill="#8e24aa"/>
  </g>
</svg>
