<svg xmlns="http://www.w3.org/2000/svg" width="43" height="43" viewBox="0 0 43 43">
  <g id="Export" transform="translate(0.001)">
    <rect id="Rectangle_7289" data-name="Rectangle 7289" width="43" height="43" rx="5" transform="translate(-0.001)" fill="#00c14d"/>
    <g id="Layer_2" data-name="Layer 2" transform="translate(11.454 11.844)">
      <path id="Path_34539" data-name="Path 34539" d="M13.685,7.458H8.854a.6.6,0,0,1,0-1.208h4.831a.6.6,0,1,1,0,1.208Z" transform="translate(-0.974 -0.974)" fill="#fff"/>
      <path id="Path_34540" data-name="Path 34540" d="M15.127,18.563a2.205,2.205,0,0,1-1.329-.444l-3.382-2.536a.2.2,0,0,0-.242,0L6.793,18.119A2.214,2.214,0,0,1,3.25,16.348V3.867A2.62,2.62,0,0,1,5.867,1.25h8.857a2.62,2.62,0,0,1,2.617,2.617V16.348a2.221,2.221,0,0,1-2.214,2.216Zm-.6-1.411a1.007,1.007,0,0,0,1.61-.805V3.867a1.411,1.411,0,0,0-1.409-1.409H5.867A1.411,1.411,0,0,0,4.458,3.867V16.348a1.007,1.007,0,0,0,1.61.805L9.45,14.616a1.416,1.416,0,0,1,1.691,0Z" fill="#fff"/>
    </g>
  </g>
</svg>
