<svg xmlns="http://www.w3.org/2000/svg" width="40" height="35" viewBox="0 0 40 35">
  <g id="Group_17515" data-name="Group 17515" transform="translate(-1532 -116)">
    <rect id="Rectangle_6989" data-name="Rectangle 6989" width="40" height="35" rx="3" transform="translate(1532 116)" fill="#9e2aff"/>
    <g id="Icon" transform="translate(1542.077 122)">
      <g id="dashboard_1_" data-name="dashboard (1)" transform="translate(-1.077)">
        <path id="Path_21061" data-name="Path 21061" d="M8.714,0H1.649A1.65,1.65,0,0,0,0,1.649V5.888A1.65,1.65,0,0,0,1.649,7.537H8.714a1.65,1.65,0,0,0,1.649-1.649V1.649A1.65,1.65,0,0,0,8.714,0Zm0,0" fill="#fff"/>
        <path id="Path_21062" data-name="Path 21062" d="M8.714,213.332H1.649A1.65,1.65,0,0,0,0,214.981v9.892a1.65,1.65,0,0,0,1.649,1.649H8.714a1.65,1.65,0,0,0,1.649-1.649v-9.892A1.65,1.65,0,0,0,8.714,213.332Zm0,0" transform="translate(0 -203.911)" fill="#fff"/>
        <path id="Path_21063" data-name="Path 21063" d="M286.046,341.332h-7.065a1.65,1.65,0,0,0-1.649,1.649v4.239a1.65,1.65,0,0,0,1.649,1.649h7.065a1.65,1.65,0,0,0,1.649-1.649v-4.239A1.65,1.65,0,0,0,286.046,341.332Zm0,0" transform="translate(-265.085 -326.259)" fill="#fff"/>
        <path id="Path_21064" data-name="Path 21064" d="M286.046,0h-7.065a1.65,1.65,0,0,0-1.649,1.649V11.54a1.65,1.65,0,0,0,1.649,1.649h7.065a1.65,1.65,0,0,0,1.649-1.649V1.649A1.65,1.65,0,0,0,286.046,0Zm0,0" transform="translate(-265.085)" fill="#fff"/>
      </g>
    </g>
  </g>
</svg>
