<svg xmlns="http://www.w3.org/2000/svg" width="40" height="35" viewBox="0 0 40 35">
  <g id="Group_17515" data-name="Group 17515" transform="translate(-1531.596 -116)">
    <rect id="Rectangle_6989" data-name="Rectangle 6989" width="40" height="35" rx="3" transform="translate(1531.596 116)" fill="#9e2aff"/>
    <path id="categories" d="M16.478,8.61v5.634a1.669,1.669,0,0,1-1.723,1.61H8.723A1.669,1.669,0,0,1,7,14.243V8.61A1.669,1.669,0,0,1,8.723,7h6.031A1.669,1.669,0,0,1,16.478,8.61ZM26.817,7H20.786a1.669,1.669,0,0,0-1.723,1.61v5.634a1.669,1.669,0,0,0,1.723,1.61h6.031a1.669,1.669,0,0,0,1.723-1.61V8.61A1.669,1.669,0,0,0,26.817,7ZM14.755,18.268H8.723A1.669,1.669,0,0,0,7,19.877v5.634a1.669,1.669,0,0,0,1.723,1.61h6.031a1.669,1.669,0,0,0,1.723-1.61V19.877A1.669,1.669,0,0,0,14.755,18.268Zm9.047,0a4.591,4.591,0,0,0-4.739,4.427A4.591,4.591,0,0,0,23.8,27.121a4.591,4.591,0,0,0,4.739-4.427A4.591,4.591,0,0,0,23.8,18.268Z" transform="translate(1534.494 116.839)" fill="#fff"/>
  </g>
</svg>
