<svg xmlns="http://www.w3.org/2000/svg" width="75" height="78" viewBox="0 0 75 78">
  <g id="Group_18217" data-name="Group 18217" transform="translate(-1.259 0.037)">
    <rect id="Rectangle_1476" data-name="Rectangle 1476" width="75" height="78" rx="3" transform="translate(1.259 -0.037)" fill="#353535"/>
    <g id="invoice_1_" data-name="invoice (1)" transform="translate(15.383 17.821)">
      <path id="Path_2234" data-name="Path 2234" d="M25.216,302.449H0v3.9A4.47,4.47,0,0,0,4.167,310.8a1.129,1.129,0,0,1,.151-.012H26.994a6.707,6.707,0,0,1-1.778-4.554Zm0,0" transform="translate(0 -269.879)" fill="#f8f8f8"/>
      <path id="Path_2235" data-name="Path 2235" d="M64,2.9l-.189,27.618H83.235A1.077,1.077,0,0,1,84.312,31.6v4.866a4.638,4.638,0,0,0,4.166,4.554h.367a1.072,1.072,0,0,1,.176.016,4.573,4.573,0,0,0,4.418-4.569V3.246A5.142,5.142,0,0,1,94.51.105H66.852A2.826,2.826,0,0,0,64,2.9Zm4.613,4.564h10.2a1.077,1.077,0,1,1,0,2.155h-10.2a1.077,1.077,0,0,1,0-2.155Zm0,7.7H87.65a1.077,1.077,0,0,1,0,2.155H68.618a1.077,1.077,0,0,1,0-2.155Zm0,7.7H87.65a1.077,1.077,0,0,1,0,2.155H68.618a1.077,1.077,0,0,1,0-2.155Zm0,0" transform="translate(-56.942 -0.105)" fill="#f8f8f8"/>
      <path id="Path_2236" data-name="Path 2236" d="M361.9,1.019A3.071,3.071,0,0,0,358.8,4.062V18.976h6.184V4.062A3.071,3.071,0,0,0,361.9,1.019Zm0,0" transform="translate(-320.153 -0.92)" fill="#f8f8f8"/>
    </g>
  </g>
</svg>
