<svg xmlns="http://www.w3.org/2000/svg" xmlns:xlink="http://www.w3.org/1999/xlink" width="70" height="82" viewBox="0 0 70 82">
  <defs>
    <filter id="Rectangle_7468" x="0" y="0" width="70" height="82" filterUnits="userSpaceOnUse">
      <feOffset dy="3" input="SourceAlpha"/>
      <feGaussianBlur stdDeviation="3" result="blur"/>
      <feFlood flood-opacity="0.102"/>
      <feComposite operator="in" in2="blur"/>
      <feComposite in="SourceGraphic"/>
    </filter>
  </defs>
  <g id="Group_18529" data-name="Group 18529" transform="translate(-681 -156)">
    <g transform="matrix(1, 0, 0, 1, 681, 156)" filter="url(#Rectangle_7468)">
      <rect id="Rectangle_7468-2" data-name="Rectangle 7468" width="52" height="64" rx="2" transform="translate(9 6)" fill="#fff"/>
    </g>
    <g id="web-design" transform="translate(734.566 167.859) rotate(90)">
      <g id="Group_18474" data-name="Group 18474" transform="translate(1.212 1.211)">
        <g id="Group_18472" data-name="Group 18472" transform="translate(0 0)">
          <path id="Path_34548" data-name="Path 34548" d="M0,0H24.627V17.035H0Z" fill="#5fcdff"/>
          <path id="Path_34549" data-name="Path 34549" d="M0,0H24.627V17.035H0Z" transform="translate(24.627)" fill="#f9d335"/>
        </g>
        <g id="Group_18473" data-name="Group 18473" transform="translate(0 17.035)">
          <path id="Path_34550" data-name="Path 34550" d="M0,0H24.627V17.035H0Z" fill="#ff4a73"/>
          <path id="Path_34551" data-name="Path 34551" d="M0,0H24.627V17.035H0Z" transform="translate(24.627)" fill="#44c7b6"/>
        </g>
      </g>
      <g id="Group_18475" data-name="Group 18475" transform="translate(13.289 5.693)">
        <path id="Path_34552" data-name="Path 34552" d="M1.911,0C1.882.1.029,6.3.029,6.3a.689.689,0,0,0,.853.859q3.154-.928,6.309-1.856L4.549,2.654l-.035-.035Z" transform="translate(0 17.915)" fill="#a4a4a5"/>
        <path id="Path_34553" data-name="Path 34553" d="M5.279,23.22,2.548,20.477l-1.191-1.2L1.2,19.123,0,17.919H0L17.417.482a1.643,1.643,0,0,1,2.324,0l2.965,2.965a1.643,1.643,0,0,1,0,2.323Z" transform="translate(1.912)" fill="#73d7f9"/>
        <path id="Path_34554" data-name="Path 34554" d="M4.337,0,0,4.34a.679.679,0,0,0,.705.2q3.154-.928,6.309-1.856L4.372.035Z" transform="translate(0.177 20.534)" fill="#87828e"/>
        <path id="Path_34555" data-name="Path 34555" d="M2.731,21.348,0,18.6,18.583,0l1.575,1.575a1.643,1.643,0,0,1,0,2.323Z" transform="translate(4.46 1.872)" fill="#5fcdff"/>
      </g>
      <g id="Group_18476" data-name="Group 18476">
        <path id="Path_34559" data-name="Path 34559" d="M50.468,0H1.211A1.211,1.211,0,0,0,0,1.211V35.28a1.211,1.211,0,0,0,1.211,1.211H50.468a1.211,1.211,0,0,0,1.211-1.211V1.211A1.211,1.211,0,0,0,50.468,0ZM49.256,17.034h-15.2l4.711-4.717a2.856,2.856,0,0,0,0-4.033L35.8,5.317a2.849,2.849,0,0,0-4.036,0L27.05,10.037V2.422H49.256ZM20.483,27.2l-3.57-3.585c12.939-12.958,3.538-3.54,16.562-16.583a.431.431,0,0,1,.612,0L37.051,10a.428.428,0,0,1,0,.609Zm-4.705-1.293,2.407,2.419-3.43,1.011ZM2.422,2.422H24.628V12.459l-4.569,4.575H2.422Zm0,17.034H17.64l-3.261,3.264a1.208,1.208,0,0,0-.342.548s-1.876,6.3-1.88,6.3a1.9,1.9,0,0,0,2.356,2.365l6.31-1.856a1.205,1.205,0,0,0,.515-.306l3.291-3.3v7.6H2.422ZM49.256,34.069H27.05V24.047l4.584-4.59H49.256Z" fill="#5f266d"/>
      </g>
    </g>
  </g>
</svg>
