<svg xmlns="http://www.w3.org/2000/svg" width="18" height="18" viewBox="0 0 18 18">
  <g id="sort-up" transform="translate(-3 -3)">
    <path id="path2" d="M7.586,15H4a1,1,0,0,1,0-2h6a1,1,0,0,1,.707,1.707L6.414,19H10a1,1,0,0,1,0,2H4a1,1,0,0,1-.707-1.707ZM7,6.236,4.894,10.447a1,1,0,0,1-1.788-.894l3-6a1,1,0,0,1,1.788,0l3,6a1,1,0,0,1-1.788.894Z" fill="#fff" fill-rule="evenodd"/>
    <path id="path4" d="M16,6.414,14.707,7.707a1,1,0,0,1-1.414-1.414l3-3a1,1,0,0,1,1.414,0l3,3a1,1,0,0,1-1.414,1.414L18,6.414V20a1,1,0,0,1-2,0Z" fill="#fff" fill-rule="evenodd"/>
  </g>
</svg>
