<svg id="Glyph" xmlns="http://www.w3.org/2000/svg" width="27.576" height="27.576" viewBox="0 0 27.576 27.576">
  <path id="Path_34520" data-name="Path 34520" d="M23.562,3.632V2.253a1.253,1.253,0,0,0-2.507,0V3.507H16.042V2.253a1.253,1.253,0,1,0-2.507,0V3.507H8.521V2.253a1.253,1.253,0,1,0-2.507,0V3.632A6.267,6.267,0,0,0,1,9.774V22.309a6.267,6.267,0,0,0,6.267,6.267H22.309a6.267,6.267,0,0,0,6.267-6.267V9.774a6.268,6.268,0,0,0-5.015-6.142Zm-2.82,10.855-6.029,5.929a1.253,1.253,0,0,1-1.767,0l-2.858-2.808a1.254,1.254,0,1,1,1.767-1.78l1.98,1.943L19,12.758a1.254,1.254,0,0,1,1.755,1.792Z" transform="translate(-1 -1)" fill="#4faf04"/>
</svg>
