<svg xmlns="http://www.w3.org/2000/svg" xmlns:xlink="http://www.w3.org/1999/xlink" width="121" height="34" viewBox="0 0 121 34">
  <defs>
    <clipPath id="clip-path">
      <path id="Path_23" data-name="Path 23" d="M249.387,8.147a4.262,4.262,0,0,1-4.208-4.314,4.38,4.38,0,0,1,.463-1.967,11.757,11.757,0,0,0-4.333-.776,11.426,11.426,0,0,0-5.1,1.122A8.69,8.69,0,0,0,232.6,5.456a9.552,9.552,0,0,0-1.329,5.166v.641h5v-.721a4.651,4.651,0,0,1,1.387-3.625,5.217,5.217,0,0,1,3.653-1.262,5.321,5.321,0,0,1,3.634,1.181,4.051,4.051,0,0,1,1.329,3.184v.16a4.826,4.826,0,0,1-.527,2.283,4.879,4.879,0,0,1-1.5,1.7,9.012,9.012,0,0,1-2.423,1.181l-2.618.841a15.345,15.345,0,0,0-4.356,2.063,8.3,8.3,0,0,0-2.715,3.2,11.164,11.164,0,0,0-.937,4.866v3.364h19.847V25.12h-14.73v-.16a3.943,3.943,0,0,1,.371-1.783,3.669,3.669,0,0,1,1.308-1.362,10.425,10.425,0,0,1,2.618-1.141l2.5-.8a17.921,17.921,0,0,0,4.181-1.942,8.81,8.81,0,0,0,2.911-3.043,8.958,8.958,0,0,0,1.074-4.546v-.4a9.437,9.437,0,0,0-.234-2.139,4.11,4.11,0,0,1-1.651.345Z" transform="translate(-231.19 -1.09)" fill="none"/>
    </clipPath>
    <clipPath id="clip-path-2">
      <path id="Path_24" data-name="Path 24" d="M4.1,34.836V33.795a13.021,13.021,0,0,1,.234-2.663,9.225,9.225,0,0,1,1.016-2.5l9.181-16.621v-.641H0V6.8H19.691v6.088L10,30.631a7.632,7.632,0,0,0-.7,1.642,6.793,6.793,0,0,0-.2,1.762v.8h-5Z" transform="translate(0 -6.8)" fill="none"/>
    </clipPath>
  </defs>
  <g id="_72BT_Logo" data-name="72BT Logo" transform="translate(0 1.797)">
    <g id="Group_39" data-name="Group 39">
      <g id="Group_33" data-name="Group 33" transform="translate(22.113 0.107)" clip-path="url(#clip-path)">
        <g id="Group_32" data-name="Group 32" transform="translate(-36.622 -23.593)">
          <path id="Path_25" data-name="Path 25" d="M0,0,61.04-.579l-.07,7.242L-.07,7.242Z" transform="translate(13.039 61.756) rotate(-64.73)" fill="#8423d4"/>
          <path id="Path_26" data-name="Path 26" d="M0,0,61.04-.579l-.07,7.242L-.07,7.242Z" transform="translate(6.519 58.601) rotate(-64.73)" fill="#2474ff"/>
          <path id="Path_27" data-name="Path 27" d="M0,0,61.04-.579l-.07,7.242L-.07,7.242Z" transform="translate(0 55.446) rotate(-64.73)" fill="#2288f2"/>
          <path id="Path_28" data-name="Path 28" d="M0,0,61.04-.579l-.07,7.242L-.07,7.242Z" transform="translate(19.559 64.91) rotate(-64.73)" fill="#009688"/>
          <path id="Path_29" data-name="Path 29" d="M0,0,61.04-.579l-.07,7.242L-.07,7.242Z" transform="translate(26.078 68.065) rotate(-64.73)" fill="#66bb6a"/>
          <path id="Path_30" data-name="Path 30" d="M0,0,61.04-.579l-.07,7.242L-.07,7.242Z" transform="translate(32.597 71.219) rotate(-64.73)" fill="#ec407a"/>
          <path id="Path_31" data-name="Path 31" d="M0,0,61.04-.579l-.07,7.242L-.07,7.242Z" transform="translate(39.117 74.374) rotate(-64.73)" fill="#ffd123"/>
          <path id="Path_32" data-name="Path 32" d="M0,0,61.04-.579l-.07,7.242L-.07,7.242Z" transform="translate(45.637 77.528) rotate(-64.73)" fill="#f99a0a"/>
        </g>
      </g>
      <g id="Group_35" data-name="Group 35" transform="translate(0 0.667)" clip-path="url(#clip-path-2)">
        <g id="Group_34" data-name="Group 34" transform="translate(-11.764 -21.047)">
          <path id="Path_33" data-name="Path 33" d="M0,0,61.209-.382l-.046,7.222L-.046,7.222Z" transform="translate(13.906 63.04) rotate(-74.69)" fill="#8423d4"/>
          <path id="Path_34" data-name="Path 34" d="M0,0,61.209-.382l-.046,7.222L-.046,7.222Z" transform="translate(6.954 61.088) rotate(-74.69)" fill="#2196f3"/>
          <path id="Path_35" data-name="Path 35" d="M0,0,61.209-.382l-.046,7.222L-.046,7.222Z" transform="translate(0 59.137) rotate(-74.69)" fill="#ef5350"/>
          <path id="Path_36" data-name="Path 36" d="M0,0,61.209-.382l-.046,7.222L-.046,7.222Z" transform="translate(20.859 64.99) rotate(-74.69)" fill="#791ff8"/>
          <path id="Path_37" data-name="Path 37" d="M0,0,61.209-.382l-.046,7.222L-.046,7.222Z" transform="translate(27.812 66.942) rotate(-74.69)" fill="#66bb6a"/>
          <path id="Path_38" data-name="Path 38" d="M0,0,61.209-.382l-.046,7.222L-.046,7.222Z" transform="translate(34.765 68.893) rotate(-74.69)" fill="#e22f6e"/>
          <path id="Path_39" data-name="Path 39" d="M0,0,61.209-.382l-.046,7.222L-.046,7.222Z" transform="translate(41.718 70.844) rotate(-74.69)" fill="#ffd123"/>
          <path id="Path_40" data-name="Path 40" d="M0,0,61.209-.382l-.046,7.222L-.046,7.222Z" transform="translate(48.671 72.795) rotate(-74.69)" fill="#f99a0a"/>
        </g>
      </g>
    </g>
    <ellipse id="Ellipse_9" data-name="Ellipse 9" cx="2.78" cy="2.849" rx="2.78" ry="2.849" transform="translate(37.53 0)" fill="#4faf04"/>
    <text id="BUSINESS_TOOLS" data-name="BUSINESS
TOOLS" transform="translate(51 13.203)" fill="#232e38" font-size="15" font-family="SpaceGrotesk-Bold, Space Grotesk" font-weight="700"><tspan x="0" y="0">BUSINESS</tspan><tspan x="0" y="15">TOOLS</tspan></text>
  </g>
</svg>
