<svg xmlns="http://www.w3.org/2000/svg" width="20.707" height="27.484" viewBox="0 0 20.707 27.484">
  <g id="hourglass" transform="translate(-63.123)">
    <g id="Group_655" data-name="Group 655" transform="translate(63.123)">
      <path id="Path_28" data-name="Path 28" d="M81.947,24.848V22.106c0-3.23-2.5-5.162-4.894-7.046a1.9,1.9,0,0,1-.753-1.506,2.547,2.547,0,0,1,.753-1.8c2.334-1.964,4.894-3.816,4.894-7.046V2.635H83.83V0H63.123V2.635h1.882V4.706c0,3.23,2.56,5.083,4.894,7.046a2.547,2.547,0,0,1,.753,1.8A1.9,1.9,0,0,1,69.9,15.06c-2.4,1.885-4.894,3.816-4.894,7.046v2.742H63.123v2.635H83.83V24.848ZM68.722,7.153a3.613,3.613,0,0,1-1.082-2.447V2.635H79.312V4.706A3.613,3.613,0,0,1,78.23,7.153H68.722Zm10.589,16.96-4.432-1.73a4.47,4.47,0,0,0-2.806,0l-4.433,1.73V22.106c0-1.827,1.452-3.062,3.823-4.924l.063-.049a4.55,4.55,0,0,0,1.681-2.771,1.231,1.231,0,0,0,.537,0,4.546,4.546,0,0,0,1.68,2.77l.064.05c2.37,1.862,3.823,3.1,3.823,4.924v2.008Z" transform="translate(-63.123)"/>
    </g>
  </g>
</svg>
