<svg xmlns="http://www.w3.org/2000/svg" width="26" height="26" viewBox="0 0 26 26">
  <path id="Icon_ionic-ios-list-box" data-name="Icon ionic-ios-list-box" d="M3.375,5.543V27.207a2.169,2.169,0,0,0,2.168,2.168H27.207a2.169,2.169,0,0,0,2.168-2.168V5.543a2.169,2.169,0,0,0-2.168-2.168H5.543A2.165,2.165,0,0,0,3.375,5.543Zm5.58,18.564a1.248,1.248,0,1,1,1.075-1.075A1.244,1.244,0,0,1,8.955,24.108Zm0-6.5a1.248,1.248,0,1,1,1.075-1.075A1.244,1.244,0,0,1,8.955,17.609Zm0-6.5a1.248,1.248,0,1,1,1.075-1.075A1.244,1.244,0,0,1,8.955,11.111ZM24.414,23.745H13.166a.877.877,0,0,1-.875-.875h0A.877.877,0,0,1,13.166,22H24.414a.877.877,0,0,1,.875.875h0A.877.877,0,0,1,24.414,23.745Zm0-6.5H13.166a.877.877,0,0,1-.875-.875h0a.877.877,0,0,1,.875-.875H24.414a.877.877,0,0,1,.875.875h0A.877.877,0,0,1,24.414,17.247Zm0-6.5H13.166a.877.877,0,0,1-.875-.875h0A.877.877,0,0,1,13.166,9H24.414a.877.877,0,0,1,.875.875h0A.877.877,0,0,1,24.414,10.748Z" transform="translate(-3.375 -3.375)" fill="#fff"/>
</svg>
