<svg xmlns="http://www.w3.org/2000/svg" width="50.879" height="61.318" viewBox="0 0 50.879 61.318">
  <g id="pdf-file_1_" data-name="pdf-file (1)" transform="translate(-139.32 -115)">
    <path id="Path_34521" data-name="Path 34521" d="M145.952,176.318a6.641,6.641,0,0,1-6.632-6.635V121.628A6.641,6.641,0,0,1,145.952,115h29.377L190.2,130.377v39.306a6.641,6.641,0,0,1-6.632,6.634Z" fill="#36a2fb"/>
    <path id="Path_34522" data-name="Path 34522" d="M189.12,135H161.592a2.274,2.274,0,0,0-2.272,2.274v48.049a2.274,2.274,0,0,0,2.272,2.274h37.614a2.274,2.274,0,0,0,2.272-2.274V147.774Z" transform="translate(-15.639 -15.639)" fill="#fff"/>
    <path id="Path_34535" data-name="Path 34535" d="M161.239,317.57h38.32a1.919,1.919,0,0,0,1.919-1.919V301H159.32v14.662A1.919,1.919,0,0,0,161.239,317.57Z" transform="translate(-15.639 -145.447)" fill="#a2d5ff"/>
    <circle id="Ellipse_169" data-name="Ellipse 169" cx="4" cy="4" r="4" transform="translate(151.233 126.452)" fill="#e5bb33"/>
    <path id="Path_34573" data-name="Path 34573" d="M39.482,20.992a1.5,1.5,0,0,1-1.5,1.5H33.5a1.5,1.5,0,0,1,0-2.993h.037a1.87,1.87,0,0,1,3.666,0h.786a1.5,1.5,0,0,1,1.5,1.5Z" transform="translate(132.73 109.475)" fill="#fff"/>
    <path id="Path_34574" data-name="Path 34574" d="M40.556,39.962v2.259a1.5,1.5,0,0,1-1.5,1.5H10.63a1.46,1.46,0,0,1-1.1-.494l9.5-11.941a.723.723,0,0,1,1.152,0l6.157,7.736L32.5,31.284a.723.723,0,0,1,1.152,0Z" transform="translate(138.388 106.201)" fill="#79de89"/>
    <g id="Group_18282" data-name="Group 18282">
      <rect id="Rectangle_7338" data-name="Rectangle 7338" width="32" height="2" transform="translate(148.537 159)" fill="#60b7ff"/>
      <rect id="Rectangle_7339" data-name="Rectangle 7339" width="32" height="2" transform="translate(148.537 163)" fill="#60b7ff"/>
      <rect id="Rectangle_7340" data-name="Rectangle 7340" width="32" height="2" transform="translate(148.537 167)" fill="#60b7ff"/>
    </g>
    <path id="Path_34575" data-name="Path 34575" d="M298.172,147.583a1.923,1.923,0,0,1-1.921-1.919L295.9,134.73l12.427,12.864Z" transform="translate(-122.442 -15.428)" fill="#a2d5ff"/>
  </g>
</svg>
