<svg id="text" xmlns="http://www.w3.org/2000/svg" width="61.011" height="61.011" viewBox="0 0 61.011 61.011">
  <rect id="Rectangle_7337" data-name="Rectangle 7337" width="50" height="49" transform="translate(5.822 6)" fill="#fff"/>
  <path id="Path_34561" data-name="Path 34561" d="M86.5,35.75h40.4v3.575H86.5Z" transform="translate(-76.193 -31.49)" fill="#42a5f5"/>
  <path id="Path_34562" data-name="Path 34562" d="M86.5,446.25h40.4v3.575H86.5Z" transform="translate(-76.193 -393.074)" fill="#42a5f5"/>
  <path id="Path_34563" data-name="Path 34563" d="M256,35.75h20.2v3.575H256Z" transform="translate(-225.495 -31.49)" fill="#42a5f5"/>
  <path id="Path_34564" data-name="Path 34564" d="M256,446.25h20.2v3.575H256Z" transform="translate(-225.495 -393.074)" fill="#42a5f5"/>
  <path id="Path_34565" data-name="Path 34565" d="M163.875,142v6.569H160.3v-2.995h-9.05v20.359h3.1v3.575h-9.771v-3.575h3.1V145.575h-9.05v2.995H135.05V142Z" transform="translate(-118.957 -125.079)" fill="#0d47a1"/>
  <path id="Path_34566" data-name="Path 34566" d="M35.75,86.5h3.575v39.86H35.75Z" transform="translate(-31.49 -76.193)" fill="#42a5f5"/>
  <path id="Path_34567" data-name="Path 34567" d="M446.25,86.5h3.575v39.86H446.25Z" transform="translate(-393.074 -76.193)" fill="#42a5f5"/>
  <g id="Group_18280" data-name="Group 18280">
    <path id="Path_34568" data-name="Path 34568" d="M6.872,13.743A6.872,6.872,0,1,0,0,6.872,6.879,6.879,0,0,0,6.872,13.743Z" fill="#0d47a1"/>
    <path id="Path_34569" data-name="Path 34569" d="M6.872,396.667a6.872,6.872,0,1,0,6.872,6.872A6.879,6.879,0,0,0,6.872,396.667Z" transform="translate(0 -349.4)" fill="#0d47a1"/>
  </g>
  <g id="Group_18281" data-name="Group 18281" transform="translate(47.267)">
    <path id="Path_34570" data-name="Path 34570" d="M403.539,13.743a6.872,6.872,0,1,0-6.872-6.872A6.879,6.879,0,0,0,403.539,13.743Z" transform="translate(-396.667)" fill="#0d47a1"/>
    <path id="Path_34571" data-name="Path 34571" d="M403.539,396.667a6.872,6.872,0,1,0,6.872,6.872A6.879,6.879,0,0,0,403.539,396.667Z" transform="translate(-396.667 -349.4)" fill="#0d47a1"/>
  </g>
  <path id="Path_34572" data-name="Path 34572" d="M260.886,169.508H256V142h14.413v6.569h-3.575v-2.995h-9.05v20.359h3.1Z" transform="translate(-225.495 -125.079)" fill="#0d47a1"/>
</svg>
