<svg xmlns="http://www.w3.org/2000/svg" width="43" height="43" viewBox="0 0 43 43">
  <g id="Export" transform="translate(0.001)">
    <rect id="Rectangle_7289" data-name="Rectangle 7289" width="43" height="43" rx="5" transform="translate(-0.001)" fill="#fdbc64"/>
    <g id="analysis" transform="translate(12.999 13)">
      <path id="Path_34541" data-name="Path 34541" d="M182.752,6.915l.175.493h4.5l-.18-.888A8.114,8.114,0,0,0,180.888.18L180,0V4.482a4,4,0,0,1,2.752,2.433Z" transform="translate(-171.11 0)" fill="#3b3b3b"/>
      <path id="Path_34542" data-name="Path 34542" d="M59.46,185.519a8.147,8.147,0,0,0,13.2-4.631l.18-.888h-4.5a3.839,3.839,0,0,1-3.668,2.963,3.68,3.68,0,0,1-2.041-.615Z" transform="translate(-56.523 -171.11)" fill="#fff"/>
      <path id="Path_34543" data-name="Path 34543" d="M5.06,10.191A3.684,3.684,0,0,1,4.445,8.15,3.936,3.936,0,0,1,7.409,4.482V0L6.521.18A8.132,8.132,0,0,0,1.889,13.362Z" fill="#fff"/>
    </g>
  </g>
</svg>
