<svg xmlns="http://www.w3.org/2000/svg" width="43" height="43" viewBox="0 0 43 43">
  <g id="Export" transform="translate(0.001)">
    <rect id="Rectangle_7289" data-name="Rectangle 7289" width="43" height="43" rx="5" transform="translate(-0.001)" fill="#0d9cfb"/>
    <g id="edit" transform="translate(9.999 9.997)">
      <path id="Path_34557" data-name="Path 34557" d="M23.486,4.741A5.028,5.028,0,0,0,19.219.508,51.79,51.79,0,0,0,4.742.514,5.027,5.027,0,0,0,.509,4.781a51.5,51.5,0,0,0,0,14.477,5.028,5.028,0,0,0,4.268,4.233A51.7,51.7,0,0,0,12,24a51.723,51.723,0,0,0,7.258-.514,5.027,5.027,0,0,0,4.233-4.267A51.6,51.6,0,0,0,24,12a51.641,51.641,0,0,0-.512-7.25Zm-1.976,14.2a3.017,3.017,0,0,1-2.534,2.567,49.68,49.68,0,0,1-13.915.005,3.017,3.017,0,0,1-2.567-2.535,49.474,49.474,0,0,1,0-13.915A3.017,3.017,0,0,1,5.023,2.494a49.5,49.5,0,0,1,13.915-.005,3.017,3.017,0,0,1,2.567,2.535A49.581,49.581,0,0,1,22,12a49.676,49.676,0,0,1-.489,6.939Z" fill="#fff"/>
      <path id="Path_34558" data-name="Path 34558" d="M18.079,12.034a4.359,4.359,0,0,0-6.113-6.113A30,30,0,0,0,5.883,12.37,4.94,4.94,0,0,0,5,15.21V18a1,1,0,0,0,1,1H8.789a4.951,4.951,0,0,0,2.842-.882,30.073,30.073,0,0,0,4.076-3.411,30.073,30.073,0,0,0,2.372-2.673ZM16.313,7.727a2.32,2.32,0,0,1,.459,2.63l-3.13-3.129a2.35,2.35,0,0,1,2.671.5ZM7,15.414,8.586,17H7Zm3.716.888L7.7,13.284a27.987,27.987,0,0,1,3.009-3.577c.43-.429.879-.844,1.338-1.247l3.495,3.494c-.4.46-.818.909-1.247,1.339A28.088,28.088,0,0,1,10.716,16.3Z" fill="#fff"/>
      <path id="Path_34559" data-name="Path 34559" d="M18,17H15a1,1,0,0,0,0,2h3a1,1,0,0,0,0-2Z" fill="#fff"/>
    </g>
  </g>
</svg>
