<svg xmlns="http://www.w3.org/2000/svg" width="15.164" height="15.164" viewBox="0 0 15.164 15.164">
  <g id="Icon" transform="translate(0 0)" opacity="0.8">
    <g id="Group_17997" data-name="Group 17997" transform="translate(0 0)">
      <path id="Path_34476" data-name="Path 34476" d="M12.586,9.948A3.393,3.393,0,0,0,7.8,10.1L4.4,13.5a3.393,3.393,0,0,0-.155,4.79,3.393,3.393,0,0,0,4.79-.155l1.7-1.7a.656.656,0,0,0-.927-.927l-1.7,1.7a2.082,2.082,0,0,1-2.935.154,2.082,2.082,0,0,1,.154-2.935l3.4-3.4a2.083,2.083,0,0,1,2.936-.155.656.656,0,0,0,.927-.927Z" transform="translate(-3.326 -4.044)" fill="#fff" fill-rule="evenodd"/>
      <path id="Path_34477" data-name="Path 34477" d="M10,12.628a3.276,3.276,0,0,0,4.635,0l3.709-3.708a3.278,3.278,0,0,0-4.636-4.636L11.857,6.139a.655.655,0,0,0,.926.927l1.855-1.855A1.967,1.967,0,0,1,17.42,7.993L13.711,11.7a1.967,1.967,0,0,1-2.781,0,.655.655,0,1,0-.926.927Z" transform="translate(-4.143 -3.325)" fill="#fff" fill-rule="evenodd"/>
    </g>
  </g>
</svg>
