<svg xmlns="http://www.w3.org/2000/svg" width="130" height="130" viewBox="0 0 130 130">
  <g id="_1" data-name="1" transform="translate(-123 -341)">
    <rect id="Rectangle_55" data-name="Rectangle 55" width="130" height="130" rx="24" transform="translate(123 341)" fill="#729c8e"/>
    <path id="Path_2" data-name="Path 2" d="M11.417-58.516c-1.8-1.114-3.726-.581-5.135,1.466-1.718,2.494-3.314,5.076-5.139,7.486C-.81-46.987-2.9-44.471-5.838-42.921c-2.177,1.144-2.9.7-2.84-1.725a44.1,44.1,0,0,1,1.42-8.331c1.044-4.776,2.147-9.541,1.831-14.5-.505-7.92-6.255-11.7-13.636-8.947a32.13,32.13,0,0,0-7.346,4.16c-.939.67-1.853,1.373-2.927,2.166-.094-.54-.165-.857-.205-1.179-.874-6.442-4.4-8.8-10.678-7.194a31.12,31.12,0,0,0-11.329,5.644c.305-.95.44-1.326.54-1.713.469-1.76.011-3.192-1.684-3.967-1.713-.785-3.1-.117-4.084,1.373A9.092,9.092,0,0,0-57.8-74.89,197.512,197.512,0,0,0-63.252-55c-1.039,5.057-2.177,10.1-2.762,15.237-.259,2.253.926,4,2.868,4.336,2.025.352,3.626-.815,4.165-3.068.113-.47.142-.951.235-1.425,1.157-5.92,1.455-12.069,4.043-17.619A25.3,25.3,0,0,1-38.91-71.37c1.566-.5,2.194-.229,2.146,1.6a62.508,62.508,0,0,1-1.865,12.022c-1.414,6.313-2.923,12.608-3.832,19.021-.335,2.364.8,4.165,2.845,4.535,1.971.352,3.586-.84,4.172-3.086a7.553,7.553,0,0,0,.182-.8c.822-5.8,2.218-11.487,3.449-17.207A8.338,8.338,0,0,1-30.2-58.838a36.536,36.536,0,0,1,13.06-10.544c3.332-1.537,4.276-.9,4.523,2.812.241,3.549-.6,6.975-1.314,10.413-.856,4.106-2.105,8.143-1.912,12.414.311,6.975,5.533,10.391,11.968,7.827a19.342,19.342,0,0,0,5.99-3.96c4.184-3.884,7.3-8.589,10.261-13.406,1.268-2.053.833-4.119-.961-5.233Z" transform="translate(214.472 462.546)" fill="#fff"/>
  </g>
</svg>
