<svg xmlns="http://www.w3.org/2000/svg" width="16" height="20" viewBox="0 0 16 20">
  <path id="notifications_FILL0_wght400_GRAD0_opsz48" d="M8,21V19.5h2.1V11.85a6.035,6.035,0,0,1,1.238-3.738A5.333,5.333,0,0,1,14.6,6.05V5.325a1.228,1.228,0,0,1,.413-.95,1.488,1.488,0,0,1,1.975,0,1.228,1.228,0,0,1,.413.95V6.05a5.385,5.385,0,0,1,3.275,2.063,6,6,0,0,1,1.25,3.738V19.5H24V21ZM16,13.625ZM16,24a1.939,1.939,0,0,1-1.4-.587A1.906,1.906,0,0,1,14,22h4a2.006,2.006,0,0,1-2,2Zm-4.4-4.5h8.825V11.85A4.333,4.333,0,0,0,19.15,8.7a4.208,4.208,0,0,0-3.125-1.3,4.249,4.249,0,0,0-3.137,1.3A4.311,4.311,0,0,0,11.6,11.85Z" transform="translate(-8 -4)"/>
</svg>
