<svg id="browser" xmlns="http://www.w3.org/2000/svg" width="44.795" height="44.795" viewBox="0 0 44.795 44.795">
  <rect id="Rectangle_7238" data-name="Rectangle 7238" width="37" height="25" transform="translate(4 15)" fill="#ffca28"/>
  <path id="Path_20592" data-name="Path 20592" d="M0,131.715v31.959a1.312,1.312,0,0,0,1.312,1.312h42.17a1.312,1.312,0,0,0,1.312-1.312V131.715Zm27.857,5.946h9.161a1.312,1.312,0,1,1,0,2.625H27.857a1.312,1.312,0,1,1,0-2.625Zm0,5.377h9.161a1.312,1.312,0,1,1,0,2.625H27.857a1.312,1.312,0,0,1,0-2.625Zm0,5.377h9.161a1.312,1.312,0,1,1,0,2.625H27.857a1.312,1.312,0,0,1,0-2.625ZM6.464,138.973a1.312,1.312,0,0,1,1.312-1.312H22.919a1.312,1.312,0,0,1,1.312,1.312v11.192a1.312,1.312,0,0,1-1.312,1.312H7.777a1.312,1.312,0,0,1-1.312-1.312Zm1.312,14.818H37.018a1.312,1.312,0,1,1,0,2.625H7.777a1.312,1.312,0,0,1,0-2.625Z" transform="translate(0 -120.191)" fill="#ec407a"/>
  <path id="Path_20593" data-name="Path 20593" d="M44.795,8.9V1.312A1.312,1.312,0,0,0,43.483,0H1.312A1.312,1.312,0,0,0,0,1.312V8.9ZM34.013,5.8a1.378,1.378,0,0,1-1.362-1.348,1.362,1.362,0,0,1,2.723,0A1.37,1.37,0,0,1,34.013,5.8Zm4.94,0a1.378,1.378,0,0,1-1.362-1.348,1.362,1.362,0,0,1,2.723,0A1.37,1.37,0,0,1,38.953,5.8Z" fill="#ec407a"/>
  <path id="Path_20594" data-name="Path 20594" d="M103.887,229.675H116.4v8.568H103.887Z" transform="translate(-94.798 -209.581)" fill="#ec407a"/>
</svg>
