<svg xmlns="http://www.w3.org/2000/svg" width="28.065" height="27" viewBox="0 0 28.065 27">
  <g id="Overview" transform="translate(0)">
    <rect id="Rectangle_118" data-name="Rectangle 118" width="26" height="27" transform="translate(0)" fill="#fff"/>
    <path id="homepage" d="M28.712,13.147V26.263A2.637,2.637,0,0,1,26.078,28.9H21.687a1.756,1.756,0,0,1-1.756-1.756v-4.83a.878.878,0,0,0-.878-.878H14.661a.878.878,0,0,0-.878.878v4.83A1.756,1.756,0,0,1,12.026,28.9H7.635A2.637,2.637,0,0,1,5,26.263V13.147a1.765,1.765,0,0,1,.853-1.507l10.1-6.06a1.756,1.756,0,0,1,1.808,0l10.1,6.06A1.765,1.765,0,0,1,28.712,13.147Z" transform="translate(-0.647 -2.897)" fill="#3d5afe"/>
  </g>
</svg>
