<svg xmlns="http://www.w3.org/2000/svg" width="16.948" height="16.948" viewBox="0 0 16.948 16.948">
  <path id="palette_FILL0_wght400_GRAD0_opsz48" d="M88.474,192.948a8.2,8.2,0,0,1-3.284-.667,8.538,8.538,0,0,1-4.523-4.523,8.507,8.507,0,0,1,.011-6.631,8.441,8.441,0,0,1,1.854-2.691,8.55,8.55,0,0,1,2.754-1.79A8.832,8.832,0,0,1,88.665,176a9.013,9.013,0,0,1,3.178.561,8.407,8.407,0,0,1,2.638,1.557,7.483,7.483,0,0,1,1.8,2.362,6.738,6.738,0,0,1,.667,3,4.859,4.859,0,0,1-1.335,3.612,4.8,4.8,0,0,1-3.538,1.324H90.487a.866.866,0,0,0-.657.3.944.944,0,0,0-.275.657,1.559,1.559,0,0,0,.307.975,1.494,1.494,0,0,1,.307.932,1.653,1.653,0,0,1-.445,1.239A1.714,1.714,0,0,1,88.474,192.948ZM88.474,184.474Zm-4.936.551a1.086,1.086,0,1,0-.741-.318A1.016,1.016,0,0,0,83.538,185.025Zm2.669-3.6a1.086,1.086,0,1,0-.741-.318A1.016,1.016,0,0,0,86.207,181.423Zm4.534,0a1.086,1.086,0,1,0-.741-.318A1.016,1.016,0,0,0,90.741,181.423Zm2.775,3.6a1.086,1.086,0,1,0-.741-.318A1.016,1.016,0,0,0,93.516,185.025Zm-5.042,6.652a.456.456,0,0,0,.328-.1.421.421,0,0,0,.1-.307.72.72,0,0,0-.307-.551,1.47,1.47,0,0,1-.307-1.123,2.558,2.558,0,0,1,.636-1.716,2.029,2.029,0,0,1,1.61-.742h1.547a3.635,3.635,0,0,0,2.606-.943,3.571,3.571,0,0,0,1-2.722,5.5,5.5,0,0,0-2.119-4.5,7.58,7.58,0,0,0-4.894-1.705,7.247,7.247,0,0,0-5.243,2.087,6.853,6.853,0,0,0-2.15,5.116,7.2,7.2,0,0,0,7.2,7.2Z" transform="translate(-80 -176)" opacity="0.75"/>
</svg>
