<svg xmlns="http://www.w3.org/2000/svg" width="20.998" height="21" viewBox="0 0 20.998 21">
  <path id="Path_67" data-name="Path 67" d="M19.074,4.437a.175.175,0,0,0,0-.02c-.026-.037-.059-.07-.086-.107q-.294-.4-.623-.771c-.06-.068-.12-.134-.182-.2q-.338-.362-.71-.691c-.046-.041-.089-.083-.134-.122a10.515,10.515,0,0,0-1.991-1.344c-.029-.015-.059-.028-.088-.043A10.433,10.433,0,0,0,14.284.7c-.075-.027-.143-.053-.215-.075q-.443-.16-.9-.28C13.079.325,12.989.3,12.9.28c-.3-.07-.6-.123-.907-.167C11.9.1,11.806.082,11.712.07a9.863,9.863,0,0,0-2.38,0C9.239.082,9.147.1,9.054.113c-.307.044-.61.1-.907.167-.092.021-.182.046-.272.07q-.46.12-.9.28L6.761.7a10.427,10.427,0,0,0-.975.434c-.029.015-.059.028-.088.043a10.517,10.517,0,0,0-2,1.344c-.046.04-.089.082-.134.122a9.758,9.758,0,0,0-.71.691c-.061.066-.122.133-.182.2q-.329.37-.623.771c-.027.037-.059.069-.086.107a.17.17,0,0,0-.009.02,10.435,10.435,0,0,0,0,12.122.163.163,0,0,0,.009.02c.026.037.059.07.086.107q.293.4.623.771c.06.068.12.134.182.2q.339.362.71.691c.046.041.089.083.134.122a10.515,10.515,0,0,0,1.991,1.344c.029.015.059.028.088.043a10.433,10.433,0,0,0,.975.434c.075.027.143.053.215.075q.443.16.9.28c.09.024.18.049.272.07.3.07.6.123.907.167.093.013.185.032.278.043a9.863,9.863,0,0,0,2.38,0c.094-.011.185-.029.278-.043.307-.044.61-.1.907-.167.092-.021.182-.046.272-.07q.461-.12.9-.28l.215-.075a10.427,10.427,0,0,0,.975-.434c.029-.015.059-.028.088-.043a10.517,10.517,0,0,0,1.991-1.344c.046-.04.089-.082.134-.122a9.552,9.552,0,0,0,.71-.691c.061-.066.122-.133.182-.2q.329-.371.623-.771c.027-.037.059-.069.086-.107a.17.17,0,0,0,.009-.02A10.435,10.435,0,0,0,19.074,4.437Zm-.856,1.419a8.927,8.927,0,0,1,1.266,3.891H14.99A14,14,0,0,0,14.57,7.1,13.481,13.481,0,0,0,18.218,5.857ZM12.428,1.7c.042.01.083.023.125.033a8.073,8.073,0,0,1,.8.225c.04.013.079.029.118.044q.387.135.761.3l.13.063q.358.17.7.368l.15.091q.324.2.63.424c.053.038.105.075.157.117a6.845,6.845,0,0,1,.575.482c.048.044.1.086.145.131.192.182.375.375.552.575.023.026.047.05.069.075a12.584,12.584,0,0,1-3.2,1.028,19.076,19.076,0,0,0-2.02-4.008C12.219,1.67,12.325,1.68,12.428,1.7ZM7.546,9.748a12.518,12.518,0,0,1,.413-2.4,21.5,21.5,0,0,0,2.561.15,21.546,21.546,0,0,0,2.563-.154,12.494,12.494,0,0,1,.41,2.4Zm5.948,1.5a12.518,12.518,0,0,1-.413,2.4,21.956,21.956,0,0,0-5.125,0,12.5,12.5,0,0,1-.41-2.4ZM10.519,1.985a18.12,18.12,0,0,1,2.091,3.9A19.856,19.856,0,0,1,10.519,6a20.006,20.006,0,0,1-2.089-.112A18.262,18.262,0,0,1,10.519,1.985ZM3.775,4.555c.176-.2.36-.392.552-.575.047-.045.1-.088.145-.131q.278-.253.575-.482c.052-.04.1-.075.157-.117q.306-.225.63-.424l.15-.091q.341-.2.7-.368l.13-.063q.374-.169.761-.3c.039-.014.075-.03.118-.044.26-.087.525-.159.8-.225.042-.01.083-.023.125-.032.1-.023.209-.033.314-.052a19.077,19.077,0,0,0-2.02,4.008,12.583,12.583,0,0,1-3.2-1.028C3.729,4.605,3.753,4.581,3.775,4.555Zm-.954,1.3A13.479,13.479,0,0,0,6.468,7.1a14,14,0,0,0-.419,2.647H1.555A8.928,8.928,0,0,1,2.821,5.857Zm0,9.283a8.927,8.927,0,0,1-1.266-3.891H6.049a14,14,0,0,0,.42,2.647A13.478,13.478,0,0,0,2.821,15.14Zm5.79,4.154c-.042-.01-.083-.023-.125-.033a8.074,8.074,0,0,1-.8-.225c-.04-.013-.079-.029-.118-.044q-.387-.135-.761-.3l-.13-.063q-.358-.17-.7-.368l-.15-.091q-.324-.2-.63-.424c-.053-.038-.105-.075-.157-.117a6.845,6.845,0,0,1-.575-.482c-.048-.044-.1-.086-.145-.131-.192-.182-.375-.375-.552-.575-.023-.026-.047-.05-.069-.075a12.584,12.584,0,0,1,3.2-1.028,19.076,19.076,0,0,0,2.02,4.008C8.82,19.327,8.714,19.316,8.611,19.294Zm1.909-.282a18.12,18.12,0,0,1-2.091-3.9,19.53,19.53,0,0,1,4.18,0h0A18.258,18.258,0,0,1,10.519,19.012Zm6.744-2.57c-.176.2-.36.392-.552.575-.047.045-.1.088-.145.131q-.278.254-.575.482c-.052.04-.1.079-.157.117q-.306.225-.63.424l-.15.091q-.341.2-.7.368l-.13.063q-.374.169-.761.3c-.039.014-.075.03-.118.044-.26.087-.525.159-.8.225-.042.01-.083.023-.125.032-.1.023-.209.033-.314.052a19.074,19.074,0,0,0,2.02-4.008,12.583,12.583,0,0,1,3.2,1.028C17.31,16.391,17.286,16.415,17.264,16.441Zm.954-1.3A13.479,13.479,0,0,0,14.571,13.9a14,14,0,0,0,.419-2.647h4.494A8.928,8.928,0,0,1,18.218,15.14Z" transform="translate(-0.016 0.002)"/>
</svg>
