<svg xmlns="http://www.w3.org/2000/svg" width="50.497" height="50.501" viewBox="0 0 50.497 50.501">
  <path id="invoice" d="M42.316,1H10.181a2.3,2.3,0,0,0-1.492.574,9.181,9.181,0,0,1,6.083,7.689,4.017,4.017,0,0,1,0,.918V49.2a2.292,2.292,0,0,0,3.787,1.744l6.542-5.6,6.542,5.6a2.3,2.3,0,0,0,2.984,0l6.542-5.6,6.542,5.6A2.3,2.3,0,0,0,49.2,51.5a2.433,2.433,0,0,0,.964-.207A2.3,2.3,0,0,0,51.5,49.2V10.181A9.181,9.181,0,0,0,42.316,1Zm-2.3,32.135H26.249a2.3,2.3,0,0,1,0-4.591H40.021a2.3,2.3,0,0,1,0,4.591Zm0-9.181H26.249a2.3,2.3,0,1,1,0-4.591H40.021a2.3,2.3,0,0,1,0,4.591Zm0-9.181H26.249a2.3,2.3,0,1,1,0-4.591H40.021a2.3,2.3,0,0,1,0,4.591ZM10.181,10.181V28.544H3.3a2.3,2.3,0,0,1-2.3-2.3V9.263a4.614,4.614,0,1,1,9.181.918Z" transform="translate(-1 -1)" fill="#1e88e5"/>
</svg>
