<svg xmlns="http://www.w3.org/2000/svg" xmlns:xlink="http://www.w3.org/1999/xlink" width="62" height="62" viewBox="0 0 62 62">
  <defs>
    <filter id="Path_34015" x="18.161" y="13.807" width="25.679" height="36.385" filterUnits="userSpaceOnUse">
      <feOffset dy="1" input="SourceAlpha"/>
      <feGaussianBlur stdDeviation="1" result="blur"/>
      <feFlood flood-opacity="0.161"/>
      <feComposite operator="in" in2="blur"/>
      <feComposite in="SourceGraphic"/>
    </filter>
    <filter id="Path_34014" x="18.161" y="13.807" width="25.679" height="36.385" filterUnits="userSpaceOnUse">
      <feOffset dy="1" input="SourceAlpha"/>
      <feGaussianBlur stdDeviation="1" result="blur-2"/>
      <feFlood flood-opacity="0.161"/>
      <feComposite operator="in" in2="blur-2"/>
      <feComposite in="SourceGraphic"/>
    </filter>
  </defs>
  <g id="Group_18241" data-name="Group 18241" transform="translate(-90 -1272)">
    <g id="Group_18240" data-name="Group 18240" transform="translate(0 93)">
      <g id="Rectangle_7335" data-name="Rectangle 7335" transform="translate(90 1179)" fill="#ff9800" stroke="#b56c00" stroke-width="2">
        <rect width="62" height="62" rx="10" stroke="none"/>
        <rect x="1" y="1" width="60" height="60" rx="9" fill="none"/>
      </g>
      <g id="Group_18237" data-name="Group 18237">
        <g transform="matrix(1, 0, 0, 1, 90, 1179)" filter="url(#Path_34015)">
          <path id="Path_34015-2" data-name="Path 34015" d="M16.235,6.378h1.437a2,2,0,0,1,0,4H16.72a9.488,9.488,0,0,1-9.432,8.575H6.652l7.61,8.023a2,2,0,0,1-2.837,2.82q-.033-.033-.064-.068L.549,18.329A2,2,0,0,1,2,14.953H7.288a5.473,5.473,0,0,0,5.386-4.576H2.089a2,2,0,1,1,0-4H11.8A5.466,5.466,0,0,0,7.295,4H2.006a2,2,0,1,1,0-4H7.295c.075,0,.145.009.219.011H17.679a2,2,0,1,1,0,4H15.023a9.456,9.456,0,0,1,1.218,2.368Z" transform="translate(21.16 15.81)" fill="#fff"/>
        </g>
        <g transform="matrix(1, 0, 0, 1, 90, 1179)" filter="url(#Path_34014)">
          <path id="Path_34014-2" data-name="Path 34014" d="M16.235,6.378h1.437a2,2,0,0,1,0,4H16.72a9.488,9.488,0,0,1-9.432,8.575H6.652l7.61,8.023a2,2,0,0,1-2.837,2.82q-.033-.033-.064-.068L.549,18.329A2,2,0,0,1,2,14.953H7.288a5.473,5.473,0,0,0,5.386-4.576H2.089a2,2,0,1,1,0-4H11.8A5.466,5.466,0,0,0,7.295,4H2.006a2,2,0,1,1,0-4H7.295c.075,0,.145.009.219.011H17.679a2,2,0,1,1,0,4H15.023a9.456,9.456,0,0,1,1.218,2.368Z" transform="translate(21.16 15.81)" fill="#fff"/>
        </g>
      </g>
    </g>
  </g>
</svg>
