<svg xmlns="http://www.w3.org/2000/svg" xmlns:xlink="http://www.w3.org/1999/xlink" width="61" height="65" viewBox="0 0 61 65">
  <defs>
    <linearGradient id="linear-gradient" x1="-0.142" y1="1.209" x2="1.118" y2="0.142" gradientUnits="objectBoundingBox">
      <stop offset="0" stop-color="#ff6363"/>
      <stop offset="1" stop-color="#c50303"/>
    </linearGradient>
  </defs>
  <g id="_pdf" data-name="@ pdf" transform="translate(-91 -408)">
    <rect id="Rectangle_7330" data-name="Rectangle 7330" width="61" height="65" rx="3" transform="translate(91 408)" fill="#f3f3f3"/>
    <g id="Group_18206" data-name="Group 18206" transform="translate(-3284.092 2061.539)">
      <g id="Group_18205" data-name="Group 18205" transform="translate(3388.571 -1644.539)">
        <path id="convert" d="M99.169,2.5H81.584a1.6,1.6,0,0,0-1.132.469L69.826,13.595a1.6,1.6,0,0,0-.469,1.132V44.545A4.344,4.344,0,0,0,73.7,48.884H99.169a4.344,4.344,0,0,0,4.339-4.339V6.839A4.344,4.344,0,0,0,99.169,2.5Zm-3.48,15.526a1.6,1.6,0,1,1,0,3.2H77.176a1.6,1.6,0,0,1,0-3.2Zm-.459,7.711a1.6,1.6,0,0,1-1.6,1.6H79.236a1.6,1.6,0,1,1,0-3.2H93.629A1.6,1.6,0,0,1,95.23,25.738ZM79.983,7.966v4.022a1.138,1.138,0,0,1-1.137,1.137H74.823ZM96.821,35.735l-2.846,2.846a1.6,1.6,0,1,1-2.264-2.264l.113-.113H85.692a6.923,6.923,0,0,0-6.915,6.915,1.6,1.6,0,1,1-3.2,0A10.129,10.129,0,0,1,85.692,33h6.132l-.113-.113a1.6,1.6,0,1,1,2.264-2.264l2.846,2.846A1.6,1.6,0,0,1,96.821,35.735Z" transform="translate(-69.357 -2.5)" fill="url(#linear-gradient)"/>
        <text id="PDF" transform="translate(14.521 42)" fill="#f3f3f3" font-size="6" font-family="SpaceGrotesk-Bold, Space Grotesk" font-weight="700"><tspan x="0" y="0">PDF</tspan></text>
      </g>
    </g>
  </g>
</svg>
