<svg xmlns="http://www.w3.org/2000/svg" width="33.125" height="26.5" viewBox="0 0 33.125 26.5">
  <g id="photo-camera" transform="translate(0 -47.104)" opacity="0.5">
    <g id="Group_6" data-name="Group 6" transform="translate(0 47.104)">
      <g id="Group_5" data-name="Group 5" transform="translate(0 0)">
        <path id="Path_1" data-name="Path 1" d="M29.164,51.713H25.708L23.8,48.832A3.966,3.966,0,0,0,20.523,47.1H12.6a3.966,3.966,0,0,0-3.276,1.728l-1.908,2.88H3.961A3.949,3.949,0,0,0,0,55.673v13.97A3.949,3.949,0,0,0,3.961,73.6h25.2a3.949,3.949,0,0,0,3.961-3.961V55.673A3.949,3.949,0,0,0,29.164,51.713Zm-12.6,18.651a8.911,8.911,0,1,1,8.929-8.893A8.928,8.928,0,0,1,16.563,70.364Zm12.1-13.07H27.076a1.171,1.171,0,0,1,0-2.34h1.44a1.169,1.169,0,0,1,1.224,1.116A1.14,1.14,0,0,1,28.66,57.294Z" transform="translate(0 -47.104)"/>
      </g>
    </g>
    <g id="Group_8" data-name="Group 8" transform="translate(11.594 56.501)">
      <g id="Group_7" data-name="Group 7" transform="translate(0 0)">
        <path id="Path_2" data-name="Path 2" d="M169.833,180.736a4.951,4.951,0,1,0,4.969,4.933A4.979,4.979,0,0,0,169.833,180.736Z" transform="translate(-164.864 -180.736)"/>
      </g>
    </g>
  </g>
</svg>
