<svg xmlns="http://www.w3.org/2000/svg" width="20.879" height="24.756" viewBox="0 0 20.879 24.756">
  <path id="Icon_ionic-ios-attach" data-name="Icon ionic-ios-attach" d="M20.514,8.588a.769.769,0,0,0-.77.766V18.9a3.84,3.84,0,0,1-3.827,3.869h-.672a3.849,3.849,0,0,1-2.706-1.208,3.931,3.931,0,0,1-1.18-2.71V6.536A2.661,2.661,0,0,1,12.213,4.6a2.948,2.948,0,0,1,2.025-.8,2.788,2.788,0,0,1,1.965.8,2.729,2.729,0,0,1,.81,1.944v11.5a1.555,1.555,0,0,1-1.432,1.581,1.512,1.512,0,0,1-1.393-1.581V11.475a.77.77,0,0,0-1.541,0v6.559a2.966,2.966,0,0,0,5.042,2.209,3.092,3.092,0,0,0,.864-2.209V6.536A4.223,4.223,0,0,0,17.284,3.5a4.382,4.382,0,0,0-6.133,0A4.224,4.224,0,0,0,9.872,6.541V18.854a5.471,5.471,0,0,0,1.61,3.83A5.354,5.354,0,0,0,15.24,24.25h.672a5.41,5.41,0,0,0,3.748-1.576,5.515,5.515,0,0,0,1.18-1.7,5.115,5.115,0,0,0,.44-2.067V9.354A.762.762,0,0,0,20.514,8.588Z" transform="translate(3.576 -6.885) rotate(30)" fill="#fff"/>
</svg>
