<svg id="Layer_2" data-name="Layer 2" xmlns="http://www.w3.org/2000/svg" width="17.226" height="16.311" viewBox="0 0 17.226 16.311">
  <path id="Path_2" data-name="Path 2" d="M17.2,7.567a2.251,2.251,0,0,1-1.774-3.043,1.057,1.057,0,0,0-.316-1.189,8.469,8.469,0,0,0-2.526-1.464,1.062,1.062,0,0,0-1.2.333,2.245,2.245,0,0,1-3.537,0,1.062,1.062,0,0,0-1.2-.333A8.51,8.51,0,0,0,4.29,3.191a1.068,1.068,0,0,0-.333,1.223A2.239,2.239,0,0,1,2.091,7.492a1.062,1.062,0,0,0-.93.856A8.119,8.119,0,0,0,1,9.955,8.223,8.223,0,0,0,1.109,11.3a1.062,1.062,0,0,0,.936.89,2.239,2.239,0,0,1,1.826,3.164,1.045,1.045,0,0,0,.293,1.252,8.533,8.533,0,0,0,2.5,1.441,1.148,1.148,0,0,0,.362.063,1.057,1.057,0,0,0,.861-.448A2.222,2.222,0,0,1,9.728,16.7a2.251,2.251,0,0,1,1.8.907,1.057,1.057,0,0,0,1.24.35,8.613,8.613,0,0,0,2.3-1.372,1.062,1.062,0,0,0,.31-1.212,2.239,2.239,0,0,1,1.8-3.095,1.062,1.062,0,0,0,.9-.873,8.326,8.326,0,0,0,.149-1.453,8.245,8.245,0,0,0-.144-1.535,1.051,1.051,0,0,0-.884-.854ZM12.484,9.955A2.871,2.871,0,1,1,9.613,7.084a2.871,2.871,0,0,1,2.871,2.871Z" transform="translate(-1 -1.804)" fill="#ab47bc"/>
</svg>
