<svg xmlns="http://www.w3.org/2000/svg" xmlns:xlink="http://www.w3.org/1999/xlink" width="50.889" height="50.889" viewBox="0 0 50.889 50.889">
  <defs>
    <filter id="Rectangle_19" x="0" y="0" width="50.889" height="50.889" filterUnits="userSpaceOnUse">
      <feOffset dy="1.852" input="SourceAlpha"/>
      <feGaussianBlur stdDeviation="3.148" result="blur"/>
      <feFlood flood-color="#294898" flood-opacity="0.012"/>
      <feComposite operator="in" in2="blur"/>
      <feComposite in="SourceGraphic"/>
    </filter>
  </defs>
  <g id="Group_5" data-name="Group 5" transform="translate(-1312.306 -39.407)">
    <g transform="matrix(1, 0, 0, 1, 1312.31, 39.41)" filter="url(#Rectangle_19)">
      <g id="Rectangle_19-2" data-name="Rectangle 19" transform="translate(9.44 7.59)" fill="#fefeff" stroke="#efeeee" stroke-width="1">
        <rect width="32" height="32" rx="6" stroke="none"/>
        <rect x="0.5" y="0.5" width="31" height="31" rx="5.5" fill="none"/>
      </g>
    </g>
    <g id="printer" transform="translate(1327.75 53.614)">
      <path id="Path_34592" data-name="Path 34592" d="M19.362,5.517H18.17c.007-.089,0,.245,0-4.108A1.411,1.411,0,0,0,16.765,0H4.006A1.411,1.411,0,0,0,2.6,1.41c0,4.344,0,4.018,0,4.108H1.41A1.411,1.411,0,0,0,0,6.927v7.566A1.411,1.411,0,0,0,1.41,15.9H4.868v3.459a1.411,1.411,0,0,0,1.41,1.41h8.216a1.411,1.411,0,0,0,1.41-1.41V15.9h3.459a1.411,1.411,0,0,0,1.41-1.41V6.927a1.411,1.411,0,0,0-1.41-1.41ZM3.895,5.406v-4A.111.111,0,0,1,4.006,1.3H16.765a.111.111,0,0,1,.111.111v4a.111.111,0,0,1-.111.111H4.006a.111.111,0,0,1-.111-.111ZM14.6,19.362a.111.111,0,0,1-.111.111H6.278a.111.111,0,0,1-.111-.111V12.769a.111.111,0,0,1,.111-.111h8.216a.111.111,0,0,1,.111.111Zm4.868-4.868a.111.111,0,0,1-.111.111H15.9V12.769a1.411,1.411,0,0,0-1.41-1.41H6.278a1.411,1.411,0,0,0-1.41,1.41V14.6H1.41a.111.111,0,0,1-.111-.111V6.927a.111.111,0,0,1,.111-.111H19.362a.111.111,0,0,1,.111.111Z" transform="translate(0 0)"/>
      <path id="Path_34593" data-name="Path 34593" d="M393.623,193.3h-.974a.649.649,0,0,1,0-1.3h.974a.649.649,0,1,1,0,1.3Z" transform="translate(-376.097 -184.211)" fill="#ce0c0c"/>
      <path id="Path_34594" data-name="Path 34594" d="M196.544,345.3h-3.895a.649.649,0,1,1,0-1.3h3.895a.649.649,0,1,1,0,1.3Z" transform="translate(-184.211 -330.044)" fill="#ce0c0c"/>
      <path id="Path_34595" data-name="Path 34595" d="M196.544,417.3h-3.895a.649.649,0,1,1,0-1.3h3.895a.649.649,0,1,1,0,1.3Z" transform="translate(-184.211 -399.123)" fill="#ce0c0c"/>
    </g>
  </g>
</svg>
