<svg xmlns="http://www.w3.org/2000/svg" width="26" height="27" viewBox="0 0 26 27">
  <g id="Projects" transform="translate(0)">
    <rect id="Rectangle_118" data-name="Rectangle 118" width="26" height="27" transform="translate(0)" fill="#fff"/>
    <path id="note" d="M19.508,1H4.868A1.869,1.869,0,0,0,3,2.868V21.591a1.869,1.869,0,0,0,1.868,1.868H19.508a1.869,1.869,0,0,0,1.868-1.868V2.868A1.869,1.869,0,0,0,19.508,1ZM7.084,6.1h5.1a1.021,1.021,0,1,1,0,2.042h-5.1a1.021,1.021,0,0,1,0-2.042ZM17.292,18.355H7.084a1.021,1.021,0,0,1,0-2.042H17.292a1.021,1.021,0,0,1,0,2.042Zm0-5.1H7.084a1.021,1.021,0,0,1,0-2.042H17.292a1.021,1.021,0,0,1,0,2.042Z" transform="translate(1.021 2.541)" fill="#d9d9d9"/>
  </g>
</svg>
