<svg xmlns="http://www.w3.org/2000/svg" width="62" height="63" viewBox="0 0 62 63">
  <g id="Promodoro" transform="translate(-20 -619)">
    <g id="Group_18190" data-name="Group 18190">
      <rect id="Rectangle_7328" data-name="Rectangle 7328" width="62" height="63" rx="5" transform="translate(20 619)" fill="#fc5d3d"/>
      <rect id="Rectangle_7329" data-name="Rectangle 7329" width="56" height="57" rx="28" transform="translate(23 622)" fill="#fff"/>
    </g>
    <g id="technique" transform="translate(12.032 625)">
      <path id="Path_33945" data-name="Path 33945" d="M48.986,47.836c-.81-.262-1.612-.46-1.786-.49-.3-.068-.879-.175-1.232-.22a17.07,17.07,0,0,1-1.742,2.756.866.866,0,0,1-1.385,0A17.07,17.07,0,0,1,41.1,47.126c-.375.05-.793.123-1.232.219-.174.043-.9.2-1.786.491a17.225,17.225,0,1,0,10.906,0Z" transform="translate(-4.436 -35.821)" fill="#fc5d3d"/>
      <circle id="Ellipse_7" data-name="Ellipse 7" cx="12.219" cy="12.219" r="12.219" transform="translate(26.878 16.225)" fill="#efefef"/>
      <circle id="Ellipse_8" data-name="Ellipse 8" cx="12.219" cy="12.219" r="12.219" transform="translate(26.878 16.225)" fill="#efefef"/>
      <path id="Path_33946" data-name="Path 33946" d="M75.49,29.392a3.764,3.764,0,0,0-1.241-.267h-.005c-.116-.009.125-.005-5.757-.005a.864.864,0,0,0-.835,1.106,3.763,3.763,0,0,0,3.594,2.654H72.39c.878-.293,1.612-.448,1.786-.491.439-.1.857-.168,1.232-.219A2.623,2.623,0,0,1,75.49,29.392Z" transform="translate(-38.746 -20.864)" fill="#13bf6d"/>
      <path id="Path_33947" data-name="Path 33947" d="M105.887,32.2c-.375.05-.793.123-1.232.219a3.724,3.724,0,0,1,.068-3.263h.005a3.764,3.764,0,0,1,1.241.267,2.623,2.623,0,0,0-.082,2.777Z" transform="translate(-69.225 -20.893)" fill="#139d6e"/>
      <path id="Path_33948" data-name="Path 33948" d="M149.013,29.118c-5.908,0-5.665-.005-5.814.007h0a3.675,3.675,0,0,0-1.231.285,2.612,2.612,0,0,1,.069,2.758c.365.046.943.155,1.232.22.174.029.976.227,1.786.49h1.2a3.763,3.763,0,0,0,3.594-2.654A.864.864,0,0,0,149.013,29.118Z" transform="translate(-100.502 -20.863)" fill="#13bf6d"/>
      <path id="Path_33949" data-name="Path 33949" d="M143.267,32.429c-.289-.065-.868-.174-1.232-.22a2.612,2.612,0,0,0-.069-2.758,3.674,3.674,0,0,1,1.231-.285h0A3.73,3.73,0,0,1,143.267,32.429Z" transform="translate(-100.502 -20.903)" fill="#139d6e"/>
      <path id="Path_33950" data-name="Path 33950" d="M116.719,27.211a17.071,17.071,0,0,1-1.742,2.756.866.866,0,0,1-1.385,0,17.07,17.07,0,0,1-1.742-2.756,2.623,2.623,0,0,1,.082-2.777,2.8,2.8,0,0,1,4.719.019A2.613,2.613,0,0,1,116.719,27.211Z" transform="translate(-75.186 -15.906)" fill="#13bf6d"/>
      <path id="Path_33951" data-name="Path 33951" d="M140.218,88.393a12.157,12.157,0,0,1-1.637,6.111L128,88.395V76.175A12.219,12.219,0,0,1,140.218,88.393Z" transform="translate(-88.903 -59.95)" fill="#f0c020"/>
      <path id="Path_33952" data-name="Path 33952" d="M138.59,154.436a12.264,12.264,0,0,1-4.471,4.473l-6.109-10.58Z" transform="translate(-88.911 -119.882)" fill="#72c2e9"/>
      <circle id="Ellipse_9" data-name="Ellipse 9" cx="1.822" cy="1.822" r="1.822" transform="translate(37.275 26.622)" fill="#878787"/>
      <path id="Path_33953" data-name="Path 33953" d="M113.684,47.347a16.916,16.916,0,0,1-2,3.265,2.079,2.079,0,0,1-3.329,0,16.818,16.818,0,0,1-2-3.265c.439-.1.857-.168,1.232-.219a17.07,17.07,0,0,0,1.742,2.756.866.866,0,0,0,1.385,0,17.07,17.07,0,0,0,1.742-2.756C112.805,47.172,113.38,47.279,113.684,47.347Z" transform="translate(-70.92 -35.822)" fill="#b34f33"/>
      <g id="Group_18203" data-name="Group 18203" transform="translate(21.39 12.311)">
        <g id="Group_18201" data-name="Group 18201" transform="translate(0 27.944)">
          <path id="Path_33954" data-name="Path 33954" d="M27.086,220.2c-.693-.229-1.41-.429-1.812-2.161-.37,1.6-.964,1.881-1.812,2.161a2.406,2.406,0,0,1,1.812,2.161C25.654,220.729,26.281,220.468,27.086,220.2Z" transform="translate(-23.463 -218.04)" fill="#f0c020"/>
        </g>
        <g id="Group_18202" data-name="Group 18202" transform="translate(31.79 0)">
          <path id="Path_33955" data-name="Path 33955" d="M214.768,55.226c-.693-.229-1.41-.429-1.812-2.161-.37,1.6-.964,1.881-1.812,2.161a2.406,2.406,0,0,1,1.812,2.161C213.336,55.754,213.963,55.493,214.768,55.226Z" transform="translate(-211.145 -53.065)" fill="#f0c020"/>
        </g>
      </g>
      <path id="Path_33956" data-name="Path 33956" d="M73.977,109.7a15.405,15.405,0,0,1-7.742-2.082.423.423,0,0,1,.426-.732A14.559,14.559,0,0,0,84.271,84a.423.423,0,0,1,.6-.6,15.4,15.4,0,0,1-10.893,26.3Zm-9.194-3.042a15.565,15.565,0,0,1-1.7-1.47.423.423,0,0,1,.6-.6,14.729,14.729,0,0,0,1.606,1.39.423.423,0,0,1-.506.679Z" transform="translate(-34.88 -65.847)" fill="#ffcbc3"/>
      <path id="Path_33957" data-name="Path 33957" d="M125.923,199.435a.423.423,0,0,0-.423.423v.81a.423.423,0,0,0,.847,0v-.81A.423.423,0,0,0,125.923,199.435Z" transform="translate(-86.826 -162.331)"/>
      <path id="Path_33958" data-name="Path 33958" d="M96.76,96.569a.423.423,0,1,0,.733-.423l-.4-.7a.423.423,0,1,0-.733.423Z" transform="translate(-62.57 -75.779)"/>
      <path id="Path_33959" data-name="Path 33959" d="M75.132,117.4l.7.4a.423.423,0,1,0,.423-.733l-.7-.4a.423.423,0,0,0-.423.733Z" transform="translate(-44.814 -93.536)"/>
      <path id="Path_33960" data-name="Path 33960" d="M68.753,146.236a.423.423,0,0,0-.423-.423h-.81a.423.423,0,1,0,0,.847h.81A.423.423,0,0,0,68.753,146.236Z" transform="translate(-38.315 -117.792)"/>
      <path id="Path_33961" data-name="Path 33961" d="M179.122,146.236a.423.423,0,0,0,.423.423h.81a.423.423,0,1,0,0-.847h-.81A.423.423,0,0,0,179.122,146.236Z" transform="translate(-131.365 -117.792)"/>
      <path id="Path_33962" data-name="Path 33962" d="M76.412,172.835a.423.423,0,0,0-.578-.155l-.7.4a.423.423,0,0,0,.423.733l.7-.4A.423.423,0,0,0,76.412,172.835Z" transform="translate(-44.814 -140.061)"/>
      <path id="Path_33963" data-name="Path 33963" d="M172.573,117.805l.7-.4a.423.423,0,0,0-.423-.733l-.7.4a.423.423,0,1,0,.423.733Z" transform="translate(-125.398 -93.536)"/>
      <path id="Path_33964" data-name="Path 33964" d="M97.338,192.307a.423.423,0,0,0-.578.155l-.4.7a.423.423,0,1,0,.733.423l.4-.7A.423.423,0,0,0,97.338,192.307Z" transform="translate(-62.57 -156.363)"/>
      <path id="Path_33965" data-name="Path 33965" d="M152.523,96.724a.423.423,0,0,0,.578-.155l.4-.7a.423.423,0,1,0-.733-.423l-.4.7A.423.423,0,0,0,152.523,96.724Z" transform="translate(-109.096 -75.779)"/>
      <path id="Path_33966" data-name="Path 33966" d="M226,127.551a.423.423,0,0,0,.34-.493.424.424,0,1,0-.833.154A.424.424,0,0,0,226,127.551Z" transform="translate(-169.886 -101.926)"/>
      <path id="Path_33967" data-name="Path 33967" d="M40.237,200.535a.423.423,0,1,0,.584.125v0A.435.435,0,0,0,40.237,200.535Z" transform="translate(-15.844 -163.192)"/>
      <path id="Path_33968" data-name="Path 33968" d="M77.433,138.517c0-.5-.02-1.011-.063-1.508a.428.428,0,0,0-.457-.386.422.422,0,0,0-.386.457c.039.474.059.957.059,1.436a16.8,16.8,0,0,1-29.957,10.451.432.432,0,0,0-.595-.068.423.423,0,0,0-.069.593,0,0,0,0,0,0,0,17.61,17.61,0,0,0,13.817,6.67h0A17.645,17.645,0,0,0,77.433,138.517Z" transform="translate(-20.687 -110.158)"/>
      <path id="Path_33969" data-name="Path 33969" d="M23.81,28.359a17.57,17.57,0,0,0,1.948,8.069.424.424,0,0,0,.754-.388,16.611,16.611,0,0,1-1.855-7.682A16.78,16.78,0,0,1,38.78,11.772a18.262,18.262,0,0,0,1.646,2.544,1.29,1.29,0,0,0,2.063,0,18.466,18.466,0,0,0,1.648-2.546,17.041,17.041,0,0,1,2.642.649h0A16.789,16.789,0,0,1,57.6,23.679a.429.429,0,0,0,.523.288.423.423,0,0,0,.29-.523,17.687,17.687,0,0,0-9.5-11.084,4.155,4.155,0,0,0,3.2-2.875,1.287,1.287,0,0,0-1.24-1.653H47.015c-2.07,0-1.985.008-1.985.008a4.041,4.041,0,0,0-1.052.2,3.2,3.2,0,0,0-2.1-1.19V4.423a.423.423,0,0,0-.847,0V6.848a3.206,3.206,0,0,0-2.087,1.176,4.118,4.118,0,0,0-1.065-.187c-.169-.011-.9-.007-1.789-.007a.423.423,0,1,0,0,.847,9.874,9.874,0,0,1,2.4.1,2.9,2.9,0,0,0-.065,2.194,18.422,18.422,0,0,0-2.489.623c-.762,0-3.448.294-4.264-2.354a.444.444,0,0,1,.43-.559h.6a.423.423,0,0,0,0-.847h-.6a1.291,1.291,0,0,0-1.24,1.655A4.182,4.182,0,0,0,34.02,12.35,17.646,17.646,0,0,0,23.81,28.359ZM47.015,8.678h3.857a.44.44,0,0,1,.43.558,3.319,3.319,0,0,1-3.19,2.355H46.978a17.754,17.754,0,0,0-2.489-.622,2.831,2.831,0,0,0-.056-2.183,10.466,10.466,0,0,1,2.582-.108Zm-3.506,2.448a16.239,16.239,0,0,1-1.628,2.586V9.673l.654.472a.424.424,0,0,0,.5-.687l-1.15-.83V7.705A2.308,2.308,0,0,1,43.509,11.126ZM41.035,7.71v2.21l-1.176.85a.424.424,0,1,0,.5.687l.681-.492v2.748a13.425,13.425,0,0,1-1.833-3.1A2.287,2.287,0,0,1,41.035,7.71Z" transform="translate(-2.361)"/>
      <path id="Path_33970" data-name="Path 33970" d="M66,73.67A12.643,12.643,0,1,0,78.646,86.313,12.658,12.658,0,0,0,66,73.67Zm1.4,12.643a1.4,1.4,0,1,1-1.4-1.4A1.4,1.4,0,0,1,67.4,86.313ZM66,98.109a11.794,11.794,0,0,1-.423-23.58v9.58a2.245,2.245,0,1,0,1.159,4.324c3.209,5.556,1.57,2.72,4.792,8.3A11.721,11.721,0,0,1,66,98.109Zm6.259-1.8-4.79-8.3a2.209,2.209,0,0,0,.227-.227l8.3,4.79A11.884,11.884,0,0,1,72.262,96.3ZM76.42,91.84c-2.357-1.362-.259-.151-8.3-4.79a2.243,2.243,0,0,0-1.7-2.941v-9.58A11.787,11.787,0,0,1,76.42,91.84Z" transform="translate(-26.906 -57.869)"/>
      <circle id="Ellipse_10" data-name="Ellipse 10" cx="0.423" cy="0.423" r="0.423" transform="translate(31.616 7.831)"/>
      <path id="Path_33971" data-name="Path 33971" d="M92.81,121.517a5.923,5.923,0,0,0,2.293,4.7.424.424,0,1,0,.522-.667,5.115,5.115,0,0,1-.334-7.781l-.17,1.119a.423.423,0,1,0,.837.127l.325-2.147a.427.427,0,0,0-.355-.482l-2.147-.325a.423.423,0,1,0-.127.837l1.149.174A5.937,5.937,0,0,0,92.81,121.517Z" transform="translate(-59.673 -93.074)"/>
      <path id="Path_33972" data-name="Path 33972" d="M114.348,177.281a.423.423,0,0,0,.3-.793,0,0,0,0,0,0,0,.434.434,0,0,0-.545.249A.425.425,0,0,0,114.348,177.281Z" transform="translate(-77.334 -143.249)"/>
      <path id="Path_33973" data-name="Path 33973" d="M124.229,178.848a6.079,6.079,0,0,0,1.45-.105.423.423,0,1,0-.161-.83,5.188,5.188,0,0,1-1.247.09.423.423,0,0,0-.042.845Z" transform="translate(-85.437 -144.448)"/>
      <path id="Path_33974" data-name="Path 33974" d="M21.258,218.528c1.193.394,1.328.975,1.532,1.855a.424.424,0,0,0,.825,0c.339-1.461.839-1.626,1.532-1.855a.424.424,0,0,0,0-.8c-.663-.219-1.185-.359-1.532-1.855a.424.424,0,0,0-.825,0c-.339,1.461-.84,1.626-1.532,1.855a.424.424,0,0,0,0,.8Zm1.946-1.294a2.358,2.358,0,0,0,.773.9,2.29,2.29,0,0,0-.764.865,2.4,2.4,0,0,0-.807-.859A2.3,2.3,0,0,0,23.2,217.234Z" transform="translate(0 -175.709)"/>
      <path id="Path_33975" data-name="Path 33975" d="M212.829,52.749c-.663-.219-1.185-.359-1.532-1.855a.423.423,0,0,0-.825,0c-.339,1.461-.84,1.626-1.532,1.855a.424.424,0,0,0,0,.8c1.193.394,1.328.975,1.532,1.855a.424.424,0,0,0,.825,0c.339-1.461.839-1.626,1.532-1.855a.424.424,0,0,0,0-.8Zm-1.935,1.271a2.4,2.4,0,0,0-.807-.859,2.294,2.294,0,0,0,.8-.9,2.358,2.358,0,0,0,.773.9A2.288,2.288,0,0,0,210.894,54.02Z" transform="translate(-155.892 -38.678)"/>
    </g>
  </g>
</svg>
