<svg id="Group_18575" data-name="Group 18575" xmlns="http://www.w3.org/2000/svg" width="23.844" height="28" viewBox="0 0 23.844 28">
  <g id="Group_18573" data-name="Group 18573" transform="translate(0 0)">
    <g id="surface1" transform="translate(0 0)">
      <path id="Path_34565" data-name="Path 34565" d="M23.085,18.7A14.126,14.126,0,0,1,19.7,23.969a17.71,17.71,0,0,1-6.612,3.918,2.023,2.023,0,0,1-.643.113h-.024a2.052,2.052,0,0,1-.394-.039,2.136,2.136,0,0,1-.271-.074,17.708,17.708,0,0,1-6.62-3.915A14.1,14.1,0,0,1,1.754,18.7C.388,14.994.466,10.908.528,7.626v-.05C.542,7.3.55,7.019.554,6.7A2.968,2.968,0,0,1,3.349,3.8a11.516,11.516,0,0,0,7.838-3.3L11.2.477a1.794,1.794,0,0,1,2.435,0l.018.017A11.518,11.518,0,0,0,21.5,3.8,2.968,2.968,0,0,1,24.291,6.7c0,.317.013.6.025.87V7.6C24.379,10.886,24.456,14.979,23.085,18.7Zm0,0" transform="translate(-0.5 0)" fill="#fff"/>
      <path id="Path_34567" data-name="Path 34567" d="M104.851,135.376a6.987,6.987,0,0,1-6.954,6.978h-.025a6.978,6.978,0,1,1,0-13.957H97.9A6.987,6.987,0,0,1,104.851,135.376Zm0,0" transform="translate(-85.951 -121.376)" fill="#da0060"/>
    </g>
  </g>
  <g id="Group_18574" data-name="Group 18574" transform="translate(9.188 11.211)">
    <path id="Path_34586" data-name="Path 34586" d="M207.767,144.9v2.32l-1.388,1.389a.82.82,0,0,1-1.16-1.16l1.389-1.388-1.389-1.388a.82.82,0,0,1,1.16-1.16Z" transform="translate(-204.978 -143.267)" fill="#fff"/>
    <path id="Path_34587" data-name="Path 34587" d="M204.978,144.9v2.32l1.388,1.389a.82.82,0,0,0,1.16-1.16l-1.389-1.388,1.389-1.388a.82.82,0,1,0-1.16-1.16Z" transform="translate(-202.244 -143.267)" fill="#fff"/>
  </g>
</svg>
