<svg id="Group_18220" data-name="Group 18220" xmlns="http://www.w3.org/2000/svg" width="64.757" height="64.757" viewBox="0 0 64.757 64.757">
  <g id="calculator" transform="translate(0 0)">
    <path id="Path_34023" data-name="Path 34023" d="M55.777,0H5.691A5.7,5.7,0,0,0,0,5.691V55.777a5.7,5.7,0,0,0,5.691,5.691H43.129a1.9,1.9,0,0,0,1.341-.556L60.912,44.47a1.9,1.9,0,0,0,.556-1.341V5.691A5.7,5.7,0,0,0,55.777,0Z" fill="#696969"/>
    <path id="Path_34024" data-name="Path 34024" d="M30.734,0H5.691A5.7,5.7,0,0,0,0,5.691V30.734H30.734Z" fill="#696969"/>
    <path id="Path_34025" data-name="Path 34025" d="M273.734,30.734V5.691A5.7,5.7,0,0,0,268.043,0H243V30.734Z" transform="translate(-212.266)" fill="#555"/>
    <path id="Path_34026" data-name="Path 34026" d="M243,243v30.734h12.395a1.9,1.9,0,0,0,1.341-.556l16.442-16.442a1.9,1.9,0,0,0,.556-1.341V243Zm28.837,12.395h0Z" transform="translate(-212.266 -212.266)" fill="#414141"/>
    <path id="Path_34027" data-name="Path 34027" d="M0,243v25.043a5.7,5.7,0,0,0,5.691,5.691H30.734V243Z" transform="translate(0 -212.266)" fill="#555"/>
    <path id="Path_34028" data-name="Path 34028" d="M82.251,75.927h-2.53V73.4a1.9,1.9,0,0,0-3.794,0v2.53H73.4a1.9,1.9,0,0,0,0,3.794h2.53v2.53a1.9,1.9,0,1,0,3.794,0v-2.53h2.53a1.9,1.9,0,1,0,0-3.794Z" transform="translate(-62.457 -62.457)" fill="#fff"/>
    <path id="Path_34029" data-name="Path 34029" d="M325.251,110.294H316.4a1.9,1.9,0,0,1,0-3.794h8.853a1.9,1.9,0,0,1,0,3.794Z" transform="translate(-274.723 -93.03)" fill="#fff"/>
    <path id="Path_34030" data-name="Path 34030" d="M89.242,329.559l1.821-1.82a1.9,1.9,0,0,0-2.683-2.683l-1.821,1.821-1.821-1.821a1.9,1.9,0,0,0-2.683,2.683l1.821,1.82-1.821,1.82a1.9,1.9,0,1,0,2.683,2.683l1.821-1.821,1.821,1.821a1.9,1.9,0,1,0,2.683-2.683Z" transform="translate(-71.192 -283.458)" fill="#fff"/>
    <path id="Path_34031" data-name="Path 34031" d="M221.6,241.208a19.6,19.6,0,1,1,19.6-19.6A19.626,19.626,0,0,1,221.6,241.208Z" transform="translate(-176.452 -176.452)" fill="#4caf50"/>
    <g id="Group_18239" data-name="Group 18239" transform="translate(38.829 39.461)">
      <path id="Path_34032" data-name="Path 34032" d="M317.751,375.794H308.9a1.9,1.9,0,1,1,0-3.794h8.853a1.9,1.9,0,1,1,0,3.794Z" transform="translate(-307 -364.411)" fill="#fff"/>
      <path id="Path_34033" data-name="Path 34033" d="M317.751,315.794H308.9a1.9,1.9,0,1,1,0-3.794h8.853a1.9,1.9,0,1,1,0,3.794Z" transform="translate(-307 -312)" fill="#fff"/>
    </g>
  </g>
</svg>
