<svg id="calendar_3_" data-name="calendar (3)" xmlns="http://www.w3.org/2000/svg" width="26.656" height="26.656" viewBox="0 0 26.656 26.656">
  <g id="Group_652" data-name="Group 652">
    <g id="Group_651" data-name="Group 651">
      <circle id="Ellipse_21" data-name="Ellipse 21" cx="1" cy="1" r="1" transform="translate(19.328 9.328)"/>
      <path id="Path_25" data-name="Path 25" d="M22.491,2.083H21.138V1.041a1.041,1.041,0,0,0-2.083,0V2.083H14.317V1.041a1.041,1.041,0,0,0-2.083,0V2.083H7.549V1.041a1.041,1.041,0,0,0-2.083,0V2.083h-1.3A4.17,4.17,0,0,0,0,6.248V22.491a4.17,4.17,0,0,0,4.165,4.165h7.966a1.041,1.041,0,0,0,0-2.083H4.165a2.085,2.085,0,0,1-2.083-2.083V6.248A2.085,2.085,0,0,1,4.165,4.165h1.3V5.206a1.041,1.041,0,0,0,2.083,0V4.165h4.686V5.206a1.041,1.041,0,0,0,2.083,0V4.165h4.738V5.206a1.041,1.041,0,0,0,2.083,0V4.165h1.354a2.085,2.085,0,0,1,2.083,2.083v5.935a1.041,1.041,0,0,0,2.083,0V6.248A4.17,4.17,0,0,0,22.491,2.083Z"/>
      <path id="Path_26" data-name="Path 26" d="M276.3,270a6.3,6.3,0,1,0,6.3,6.3A6.307,6.307,0,0,0,276.3,270Zm0,10.517a4.217,4.217,0,1,1,4.217-4.217A4.222,4.222,0,0,1,276.3,280.517Z" transform="translate(-255.943 -255.943)"/>
      <path id="Path_27" data-name="Path 27" d="M373.551,332.135h-.469v-1.093a1.041,1.041,0,1,0-2.082,0v2.135a1.041,1.041,0,0,0,1.041,1.041h1.51a1.041,1.041,0,1,0,0-2.083Z" transform="translate(-351.685 -312.819)"/>
      <circle id="Ellipse_22" data-name="Ellipse 22" cx="1" cy="1" r="1" transform="translate(14.328 9.328)"/>
      <circle id="Ellipse_23" data-name="Ellipse 23" cx="1" cy="1" r="1" transform="translate(5.328 9.328)"/>
      <circle id="Ellipse_24" data-name="Ellipse 24" cx="1" cy="1" r="1" transform="translate(5.328 14.328)"/>
      <circle id="Ellipse_25" data-name="Ellipse 25" cx="1" cy="1" r="1" transform="translate(5.328 19.328)"/>
      <circle id="Ellipse_26" data-name="Ellipse 26" cx="1" cy="1" r="1" transform="translate(10.328 9.328)"/>
      <circle id="Ellipse_27" data-name="Ellipse 27" cx="1" cy="1" r="1" transform="translate(10.328 14.328)"/>
      <circle id="Ellipse_28" data-name="Ellipse 28" cx="1" cy="1" r="1" transform="translate(10.328 19.328)"/>
    </g>
  </g>
</svg>
