<svg xmlns="http://www.w3.org/2000/svg" width="21.467" height="23" viewBox="0 0 21.467 23">
  <path id="sandclock" d="M22.7,22.467H21.142c-.243-4.5-2.6-6.377-4.352-7.76-1.122-.887-1.757-1.428-1.757-2.206s.635-1.319,1.757-2.206c1.75-1.384,4.109-3.256,4.352-7.76H22.7A.767.767,0,0,0,22.7,1H2.767a.767.767,0,1,0,0,1.533H4.324c.243,4.5,2.6,6.377,4.352,7.76,1.122.887,1.757,1.428,1.757,2.206S9.8,13.819,8.676,14.706c-1.75,1.384-4.109,3.256-4.352,7.76H2.767a.767.767,0,1,0,0,1.533H22.7a.767.767,0,0,0,0-1.533Z" transform="translate(-2 -1)"/>
</svg>
