<svg id="save" xmlns="http://www.w3.org/2000/svg" width="17.332" height="18.488" viewBox="0 0 17.332 18.488">
  <path id="Path_34560" data-name="Path 34560" d="M30.021,0H18.167A2.169,2.169,0,0,0,16,2.167V16.321a2.169,2.169,0,0,0,2.167,2.167h13a2.169,2.169,0,0,0,2.167-2.167V3.312ZM21.777,1.444h5.777V4.333H21.777ZM31.888,16.321a.723.723,0,0,1-.722.722h-13a.723.723,0,0,1-.722-.722V2.167a.723.723,0,0,1,.722-.722h2.167V5.777H29V1.444h.423L31.888,3.91Z" transform="translate(-16)" fill="#fff"/>
  <path id="Path_34561" data-name="Path 34561" d="M98.167,196A2.169,2.169,0,0,0,96,198.167V202.5a2.169,2.169,0,0,0,2.167,2.167h7.222a2.169,2.169,0,0,0,2.167-2.167v-4.333A2.169,2.169,0,0,0,105.388,196Zm7.944,2.167V202.5a.723.723,0,0,1-.722.722H98.167a.723.723,0,0,1-.722-.722v-4.333a.723.723,0,0,1,.722-.722h7.222A.723.723,0,0,1,106.111,198.167Z" transform="translate(-93.111 -188.923)" fill="#fff"/>
  <path id="Path_34562" data-name="Path 34562" d="M176,316h5.777v1.444H176Z" transform="translate(-170.223 -304.59)" fill="#fff"/>
</svg>
