<svg xmlns="http://www.w3.org/2000/svg" xmlns:xlink="http://www.w3.org/1999/xlink" width="145.821" height="23.7" viewBox="0 0 145.821 23.7">
  <defs>
    <linearGradient id="linear-gradient" x1="0.643" y1="0.45" x2="1.31" y2="-0.04" gradientUnits="objectBoundingBox">
      <stop offset="0" stop-color="#b8de6f"/>
      <stop offset="1" stop-color="#8aa753"/>
    </linearGradient>
    <linearGradient id="linear-gradient-2" x1="0.642" y1="0.367" x2="1.306" y2="-0.203" gradientUnits="objectBoundingBox">
      <stop offset="0" stop-color="#fe7695"/>
      <stop offset="1" stop-color="#fe547b"/>
    </linearGradient>
    <linearGradient id="linear-gradient-3" x1="0.641" y1="0.278" x2="1.3" y2="-0.381" gradientUnits="objectBoundingBox">
      <stop offset="0" stop-color="#67dcdc"/>
      <stop offset="1" stop-color="#019394"/>
    </linearGradient>
    <linearGradient id="linear-gradient-4" x1="0.498" y1="0.5" x2="0.498" y2="-0.579" gradientUnits="objectBoundingBox">
      <stop offset="0" stop-color="#fcc344"/>
      <stop offset="1" stop-color="#f7ae3d"/>
    </linearGradient>
    <linearGradient id="linear-gradient-5" x1="0.498" y1="-6.073" x2="0.498" y2="-6.803" gradientUnits="objectBoundingBox">
      <stop offset="0" stop-color="#fcc344" stop-opacity="0"/>
      <stop offset="1" stop-color="#d48000"/>
    </linearGradient>
    <linearGradient id="linear-gradient-6" x1="0.353" y1="-3.406" x2="0.911" y2="-4.192" gradientUnits="objectBoundingBox">
      <stop offset="0" stop-color="#fcc344"/>
      <stop offset="1" stop-color="#d48000"/>
    </linearGradient>
  </defs>
  <g id="notes" transform="translate(0 -1.294)">
    <path id="Path_34617" data-name="Path 34617" d="M46.6,2.188l2.715,17.756a1.053,1.053,0,0,1-.881,1.2L30.675,23.858a1.053,1.053,0,0,1-1.2-.881L26.761,5.221a1.053,1.053,0,0,1,.881-1.2L45.4,1.307A1.053,1.053,0,0,1,46.6,2.188Z" transform="translate(-25.504 0)" fill="url(#linear-gradient)"/>
    <path id="Path_34618" data-name="Path 34618" d="M47.315,31.021l1.361,17.911a1.053,1.053,0,0,1-.97,1.129L29.8,51.422a1.053,1.053,0,0,1-1.129-.97L27.3,32.542a1.053,1.053,0,0,1,.97-1.129l17.911-1.361A1.053,1.053,0,0,1,47.315,31.021Z" transform="translate(-26.031 -27.416)" fill="url(#linear-gradient-2)"/>
    <path id="Path_34619" data-name="Path 34619" d="M47.947,60.063V78.026a1.053,1.053,0,0,1-1.052,1.052H28.932a1.053,1.053,0,0,1-1.052-1.052V60.063a1.053,1.053,0,0,1,1.052-1.052H46.895A1.053,1.053,0,0,1,47.947,60.063Z" transform="translate(-26.583 -55.031)" fill="url(#linear-gradient-3)"/>
    <path id="Path_34620" data-name="Path 34620" d="M14.652,79.367.974,78.338A1.053,1.053,0,0,1,0,77.21L1.351,59.3a1.053,1.053,0,0,1,1.129-.971l17.912,1.348a1.053,1.053,0,0,1,.971,1.129l-1.05,13.953a.613.613,0,0,1-.208.416L15.7,79.019A1.427,1.427,0,0,1,14.652,79.367Z" transform="translate(0 -54.377)" fill="url(#linear-gradient-4)"/>
    <g id="Group_18571" data-name="Group 18571" transform="translate(3.012 10.032)">
      <rect id="Rectangle_7522" data-name="Rectangle 7522" width="15.565" height="1.168" transform="translate(15.97 2.341) rotate(-175.664)" fill="#fff2eb"/>
      <rect id="Rectangle_7523" data-name="Rectangle 7523" width="15.565" height="1.168" transform="translate(15.746 5.305) rotate(-175.664)" fill="#fff2eb"/>
      <rect id="Rectangle_7524" data-name="Rectangle 7524" width="11.521" height="1.168" transform="translate(11.487 7.962) rotate(-175.664)" fill="#fff2eb"/>
    </g>
    <path id="Path_34621" data-name="Path 34621" d="M15.7,448.848l1.554-1.356L.067,446.2l-.063.84a1.053,1.053,0,0,0,.917,1.123l.054.005L14.653,449.2A1.426,1.426,0,0,0,15.7,448.848Z" transform="translate(-0.001 -424.206)" fill="url(#linear-gradient-5)"/>
    <path id="Path_34622" data-name="Path 34622" d="M319.807,411.223a.648.648,0,0,1-.169.2l-4.347,3.8a1.509,1.509,0,0,1-1.105.368h0a.631.631,0,0,0,.677-.582l.232-3.079a1.052,1.052,0,0,1,1.128-.971Z" transform="translate(-299.567 -390.597)" fill="url(#linear-gradient-6)"/>
  </g>
  <text id="Scribble_Notes" data-name="Scribble Notes" transform="translate(35 18)" fill="#232e38" font-size="19" font-family="SpaceGrotesk-Bold, Space Grotesk" font-weight="700"><tspan x="0" y="0">Scribble Notes</tspan></text>
</svg>
