<svg xmlns="http://www.w3.org/2000/svg" width="28" height="28" viewBox="0 0 28 28">
  <g id="Group_34" data-name="Group 34" transform="translate(-740 -396)">
    <g id="Group_33" data-name="Group 33" transform="translate(739.55 395.55)">
      <rect id="Rectangle_55" data-name="Rectangle 55" width="28" height="28" rx="5" transform="translate(0.45 0.45)" fill="#272d35"/>
    </g>
    <g id="share_4_" data-name="share (4)" transform="translate(746.461 402)">
      <g id="Group_32" data-name="Group 32" transform="translate(0)">
        <path id="Path_8" data-name="Path 8" d="M11.308,7.539A3.756,3.756,0,0,0,8.475,8.827L6.083,7.355a2.95,2.95,0,0,0,.11-1.789L9.374,4.1A2.5,2.5,0,1,0,8.8,2.513a2.575,2.575,0,0,0,.045.447L5.663,4.427a3.141,3.141,0,1,0-.237,4L7.815,9.9a3.769,3.769,0,1,0,3.493-2.357Z" fill="#fff"/>
      </g>
    </g>
  </g>
</svg>
