<svg id="shipping" xmlns="http://www.w3.org/2000/svg" width="44.093" height="44.093" viewBox="0 0 44.093 44.093">
  <path id="Path_20577" data-name="Path 20577" d="M20.209,14.378A1.382,1.382,0,0,0,18.831,13H11.942v5.512a1.837,1.837,0,0,1-3.674,0V13H1.378A1.381,1.381,0,0,0,0,14.378V31.831a1.381,1.381,0,0,0,1.378,1.378H18.831a1.382,1.382,0,0,0,1.378-1.378Z" transform="translate(0 10.884)" fill="#ef5350"/>
  <path id="Path_20578" data-name="Path 20578" d="M33.209,14.378A1.382,1.382,0,0,0,31.831,13H24.942v5.512a1.837,1.837,0,0,1-3.674,0V13H14.378A1.381,1.381,0,0,0,13,14.378V31.831a1.381,1.381,0,0,0,1.378,1.378H31.831a1.382,1.382,0,0,0,1.378-1.378Z" transform="translate(10.884 10.884)" fill="#ef5350"/>
  <path id="Path_20579" data-name="Path 20579" d="M26.709,1.378A1.383,1.383,0,0,0,25.331,0H18.442V5.512a1.837,1.837,0,1,1-3.674,0V0H7.878A1.382,1.382,0,0,0,6.5,1.378V18.831a1.381,1.381,0,0,0,1.378,1.378H25.331a1.382,1.382,0,0,0,1.378-1.378Z" transform="translate(5.442)" fill="#ef5350"/>
</svg>
