<svg xmlns="http://www.w3.org/2000/svg" width="48.97" height="49.012" viewBox="0 0 48.97 49.012">
  <g id="digital" transform="translate(-0.218 0)">
    <path id="Path_20595" data-name="Path 20595" d="M4.526,49.012H27.6A4.312,4.312,0,0,0,31.9,44.7V31.887a30.4,30.4,0,0,1-3.8,2.215,6.576,6.576,0,0,1-1.9.455H18.981a1.435,1.435,0,0,1-1.015-.421L16.109,32.28l-1.857,1.857A1.436,1.436,0,0,1,11.8,33.121V30.844L8.508,34.137a1.436,1.436,0,0,1-2.03-2.03l5.744-5.744a1.436,1.436,0,0,1,2.451,1.015v2.277l.421-.421a1.435,1.435,0,0,1,2.03,0l2.451,2.451h2.65a4.274,4.274,0,0,1,.123-3.337,30.079,30.079,0,0,1,5.809-8.178L31.9,16.425V4.308A4.312,4.312,0,0,0,27.6,0H4.526A4.3,4.3,0,0,0,.218,4.308V44.7a4.313,4.313,0,0,0,4.308,4.308ZM13.237,40.4H18.98a1.436,1.436,0,1,1,0,2.872H13.237a1.436,1.436,0,1,1,0-2.872Zm0-34.653H18.98a1.436,1.436,0,1,1,0,2.872H13.237a1.436,1.436,0,1,1,0-2.872ZM7.493,14.455H18.98a1.436,1.436,0,0,1,0,2.872H7.493a1.436,1.436,0,0,1,0-2.872Zm0,5.744H18.98a1.436,1.436,0,0,1,0,2.872H7.493a1.436,1.436,0,0,1,0-2.872Z" fill="#42a5f5"/>
    <path id="Path_20596" data-name="Path 20596" d="M280.471,76.985a2.943,2.943,0,0,0-4.064,0l-14.1,14.1a27.229,27.229,0,0,0-5.254,7.4,1.437,1.437,0,0,0,1.92,1.92,27.23,27.23,0,0,0,7.4-5.254l14.1-14.1A2.874,2.874,0,0,0,280.471,76.985Z" transform="translate(-232.12 -68.877)" fill="#00796b"/>
  </g>
</svg>
