<svg xmlns="http://www.w3.org/2000/svg" width="48" height="35.835" viewBox="0 0 48 35.835">
  <g id="users" transform="translate(-1.381 -4.25)">
    <path id="Path_20588" data-name="Path 20588" d="M25.342,34.685l.363.049.607.085a4.363,4.363,0,0,0,5.009-4.268v-2a4.445,4.445,0,0,0-3-4.181,27.8,27.8,0,0,0-6.39-1.424,8.843,8.843,0,0,1,3.662,7.166V32.6a8.732,8.732,0,0,1-.252,2.088Zm-9.16-14.4a7.655,7.655,0,0,0,2.928.577,7.5,7.5,0,0,0,7.563-7.429A7.5,7.5,0,0,0,19.109,6q-.186,0-.369.009a12.565,12.565,0,0,1-2.559,14.272Z" transform="translate(18.06 2.135)" fill="#9e9d24" fill-rule="evenodd"/>
    <path id="Path_20589" data-name="Path 20589" d="M7.36,34.685,7,34.734l-.607.085a4.363,4.363,0,0,1-5.009-4.268v-2a4.445,4.445,0,0,1,3-4.181,27.8,27.8,0,0,1,6.39-1.424,8.843,8.843,0,0,0-3.662,7.166V32.6a8.726,8.726,0,0,0,.252,2.088Zm9.16-14.4a7.656,7.656,0,0,1-2.928.577,7.5,7.5,0,0,1-7.563-7.429A7.5,7.5,0,0,1,13.592,6q.186,0,.369.009A12.565,12.565,0,0,0,16.52,20.281Z" transform="translate(0 2.135)" fill="#9e9d24" fill-rule="evenodd"/>
    <path id="Path_20590" data-name="Path 20590" d="M26.506,13.474A9.224,9.224,0,1,0,17.282,22.7a9.224,9.224,0,0,0,9.224-9.223Z" transform="translate(8.149)" fill="#689f38" fill-rule="evenodd"/>
    <path id="Path_20591" data-name="Path 20591" d="M9.163,15.591a33.4,33.4,0,0,1,22.468,0,5.512,5.512,0,0,1,3.658,5.191v2.486a5.352,5.352,0,0,1-6.109,5.3l-.741-.106a56.859,56.859,0,0,0-16.085,0l-.741.106a5.352,5.352,0,0,1-6.109-5.3V20.782a5.512,5.512,0,0,1,3.658-5.191Z" transform="translate(5.033 11.464)" fill="#689f38" fill-rule="evenodd"/>
  </g>
</svg>
