<svg xmlns="http://www.w3.org/2000/svg" version="1.1" xmlns:xlink="http://www.w3.org/1999/xlink" xmlns:svgjs="http://svgjs.com/svgjs" width="512" height="512" x="0" y="0" viewBox="0 0 16 16" style="enable-background:new 0 0 512 512" xml:space="preserve" class=""><g><path d="m3 15.5h10a2.5026 2.5026 0 0 0 2.5-2.5v-10a2.5026 2.5026 0 0 0 -2.5-2.5h-10a2.5026 2.5026 0 0 0 -2.5 2.5v10a2.5026 2.5026 0 0 0 2.5 2.5zm-1.5-12.5a1.5017 1.5017 0 0 1 1.5-1.5h10a1.5017 1.5017 0 0 1 1.5 1.5v10a1.5017 1.5017 0 0 1 -1.5 1.5h-10a1.5017 1.5017 0 0 1 -1.5-1.5z" fill="#e7edf3" data-original="#000000" class=""></path></g></svg>