<svg xmlns="http://www.w3.org/2000/svg" width="37.6" height="47" viewBox="0 0 37.6 47">
  <g id="Group_17888" data-name="Group 17888" transform="translate(-363 -460)">
    <rect id="Rectangle_7237" data-name="Rectangle 7237" width="24" height="28" transform="translate(370 468)" fill="#fdd835"/>
    <path id="check-list" d="M20.8,0a4.7,4.7,0,0,0-4.7,4.7H5.525A3.525,3.525,0,0,0,2,8.225v35.25A3.525,3.525,0,0,0,5.525,47h30.55A3.525,3.525,0,0,0,39.6,43.475V8.225A3.525,3.525,0,0,0,36.075,4.7H25.5A4.7,4.7,0,0,0,20.8,0ZM11.4,14.1V12.925A3.525,3.525,0,0,1,14.925,9.4h11.75A3.525,3.525,0,0,1,30.2,12.925V14.1Zm18.112,7.738a2.35,2.35,0,0,1,0,3.323l-9.4,9.4a2.35,2.35,0,0,1-3.323,0l-4.7-4.7a2.35,2.35,0,1,1,3.323-3.323l3.038,3.038,7.738-7.738a2.35,2.35,0,0,1,3.323,0Z" transform="translate(361 460)" fill="#1976d2" fill-rule="evenodd"/>
  </g>
</svg>
