<svg id="idea" xmlns="http://www.w3.org/2000/svg" width="22" height="22" viewBox="0 0 22 22">
  <g id="Group_18223" data-name="Group 18223" transform="translate(3.064 3.064)">
    <g id="Group_18222" data-name="Group 18222">
      <path id="Path_34002" data-name="Path 34002" d="M74.221,73.309,72.4,71.487a.644.644,0,0,0-.911.911l1.823,1.823a.644.644,0,0,0,.911-.911Z" transform="translate(-71.298 -71.298)" fill="#fff"/>
    </g>
  </g>
  <g id="Group_18225" data-name="Group 18225" transform="translate(0 10.355)">
    <g id="Group_18224" data-name="Group 18224">
      <path id="Path_34003" data-name="Path 34003" d="M3.266,241H.645a.645.645,0,0,0,0,1.289H3.266a.645.645,0,0,0,0-1.289Z" transform="translate(0 -241)" fill="#fff"/>
    </g>
  </g>
  <g id="Group_18227" data-name="Group 18227" transform="translate(18.09 10.355)">
    <g id="Group_18226" data-name="Group 18226">
      <path id="Path_34004" data-name="Path 34004" d="M424.266,241h-2.621a.645.645,0,0,0,0,1.289h2.621a.645.645,0,0,0,0-1.289Z" transform="translate(-421 -241)" fill="#fff"/>
    </g>
  </g>
  <g id="Group_18229" data-name="Group 18229" transform="translate(15.825 3.064)">
    <g id="Group_18228" data-name="Group 18228">
      <path id="Path_34005" data-name="Path 34005" d="M371.2,71.487a.644.644,0,0,0-.911,0l-1.823,1.823a.644.644,0,0,0,.911.911L371.2,72.4A.644.644,0,0,0,371.2,71.487Z" transform="translate(-368.281 -71.298)" fill="#fff"/>
    </g>
  </g>
  <g id="Group_18231" data-name="Group 18231" transform="translate(10.355)">
    <g id="Group_18230" data-name="Group 18230">
      <path id="Path_34006" data-name="Path 34006" d="M241.645,0A.644.644,0,0,0,241,.645V3.266a.645.645,0,0,0,1.289,0V.645A.644.644,0,0,0,241.645,0Z" transform="translate(-241)" fill="#fff"/>
    </g>
  </g>
  <g id="Group_18233" data-name="Group 18233" transform="translate(5.202 5.2)">
    <g id="Group_18232" data-name="Group 18232">
      <path id="Path_34007" data-name="Path 34007" d="M130.479,122.273a5.826,5.826,0,0,0-5-1.083,5.715,5.715,0,0,0-4.228,4.164,5.831,5.831,0,0,0,1.56,5.607,3.167,3.167,0,0,1,.838,2.209v.142a.638.638,0,0,0,.645.645h5.156a.638.638,0,0,0,.645-.645v-.142a3.2,3.2,0,0,1,.889-2.247,5.82,5.82,0,0,0-.5-8.65Zm-3.609,2.617A1.885,1.885,0,0,0,125,126.282a.645.645,0,1,1-1.251-.31,3.183,3.183,0,0,1,3.117-2.371.645.645,0,0,1,0,1.289Z" transform="translate(-121.072 -121.024)" fill="#fff"/>
    </g>
  </g>
  <g id="Group_18235" data-name="Group 18235" transform="translate(8.422 19.422)">
    <g id="Group_18234" data-name="Group 18234">
      <path id="Path_34008" data-name="Path 34008" d="M196,452v.645a1.936,1.936,0,0,0,1.934,1.934h1.289a1.936,1.936,0,0,0,1.934-1.934V452Z" transform="translate(-196 -452)" fill="#fff"/>
    </g>
  </g>
</svg>
