<svg xmlns="http://www.w3.org/2000/svg" width="21.615" height="21.606" viewBox="0 0 21.615 21.606">
  <g id="chain" transform="translate(0)">
    <path id="Path_33991" data-name="Path 33991" d="M171.035,71.449,169.083,73.4a4.126,4.126,0,0,0-2.928-1.213c-.127,0-.254.006-.38.018l-2.254-2.254a6.916,6.916,0,0,1,7.514,1.5Z" transform="translate(-156.322 -66.501)" fill="#fff"/>
    <path id="Path_33992" data-name="Path 33992" d="M72.913,171l-2.255-2.255a4.131,4.131,0,0,0-1.195-3.308l1.952-1.952a6.911,6.911,0,0,1,1.5,7.514Z" transform="translate(-54.75 -156.59)" fill="#fff"/>
    <path id="Path_33993" data-name="Path 33993" d="M174.431,179.887l-1.952-1.952a6.911,6.911,0,0,1-1.5-7.514l2.255,2.255a4.131,4.131,0,0,0,1.195,3.308l1.952,1.952a4.127,4.127,0,0,0,2.928,1.213c.127,0,.254-.006.38-.018l2.254,2.254a6.916,6.916,0,0,1-7.514-1.5Z" transform="translate(-167.525 -163.229)" fill="#fff"/>
    <path id="Path_33994" data-name="Path 33994" d="M0,2.76H11.136V0H0Z" transform="translate(7.884 9.828) rotate(-135)" fill="#fff"/>
    <path id="Path_33995" data-name="Path 33995" d="M0,2.76H11.138V0H0Z" transform="translate(19.664 21.606) rotate(-135)" fill="#fff"/>
    <path id="Path_33996" data-name="Path 33996" d="M0,2.532H1.266V0H0Z" transform="translate(17.686 4.824) rotate(-135)" fill="#fff"/>
    <path id="Path_33997" data-name="Path 33997" d="M0,2.533H1.266V0H0Z" transform="translate(19.271 7.648) rotate(-112.514)" fill="#fff"/>
    <path id="Path_33998" data-name="Path 33998" d="M0,2.533H1.266V0H0Z" transform="translate(15.137 2.825) rotate(-157.486)" fill="#fff"/>
    <path id="Path_33999" data-name="Path 33999" d="M0,2.532H1.266V0H0Z" transform="translate(3.044 19.469) rotate(-135)" fill="#fff"/>
    <path id="Path_34000" data-name="Path 34000" d="M0,2.533H1.266V0H0Z" transform="translate(0.485 16.104) rotate(-112.514)" fill="#fff"/>
    <path id="Path_34001" data-name="Path 34001" d="M0,2.533H1.266V0H0Z" transform="translate(6.674 21.604) rotate(-157.486)" fill="#fff"/>
  </g>
</svg>
