<svg xmlns="http://www.w3.org/2000/svg" width="13.654" height="23.303" viewBox="0 0 13.654 23.303">
  <g id="fist" transform="translate(0 0)">
    <path id="Union_1" data-name="Union 1" d="M2.731,0V8.556A5.615,5.615,0,0,0,0,13.39v3.769a2.045,2.045,0,0,0,2.048,2.048h.683c.136,0,3.454-.014,3.919-1.106a.637.637,0,0,0,0-.546c-.4-.892-2.956-1.079-3.919-1.079V13.745h.683A2.045,2.045,0,0,0,5.462,11.7v-.683H6.827V11.7A3.414,3.414,0,0,1,4.1,15.042v.123c1.352.137,2.867.505,3.564,1.461a1.777,1.777,0,0,1,1.557-1.01,1.659,1.659,0,0,1,1.393.778c.328-1.147.928-2.144,2.021-2.144a1.567,1.567,0,0,1,1.024.369V12.257a5.377,5.377,0,0,0-1.365-3.564V0Zm8.875,19.548a1.024,1.024,0,0,0,2.048,0c0-2.15-.529-3.936-1.024-3.936S11.606,17.4,11.606,19.548ZM8.192,20.913a1.024,1.024,0,1,0,2.048,0c0-2.15-.529-3.936-1.024-3.936S8.192,18.763,8.192,20.913Zm-3.267-.522a12.179,12.179,0,0,0-.147,1.887,1.024,1.024,0,1,0,2.048,0,11.565,11.565,0,0,0-.24-2.393A6.365,6.365,0,0,1,4.926,20.392Zm-3.56.522a1.024,1.024,0,1,0,2.048,0c0-.122-.008-.238-.011-.357-.238.01-.466.016-.672.016H2.048a3.41,3.41,0,0,1-.67-.068C1.373,20.64,1.365,20.773,1.365,20.913Z" transform="translate(13.654 23.303) rotate(180)" fill="#fff"/>
  </g>
</svg>
