<svg id="logo" xmlns="http://www.w3.org/2000/svg" width="34.926" height="34.926" viewBox="0 0 34.926 34.926">
  <path id="Path_30" data-name="Path 30" d="M17.463,0H3.234A3.238,3.238,0,0,0,0,3.234V17.463H17.463Z" fill="#66bb6a"/>
  <path id="Path_31" data-name="Path 31" d="M260.463,17.463V3.234A3.238,3.238,0,0,0,257.229,0H243V17.463Z" transform="translate(-225.537)" fill="#ffa726"/>
  <path id="Path_33" data-name="Path 33" d="M0,243v14.229a3.238,3.238,0,0,0,3.234,3.234H17.463V243Z" transform="translate(0 -225.537)" fill="#42a5f5"/>
  <path id="Icon_awesome-plus" data-name="Icon awesome-plus" d="M6.76,4.735H4.42V2.4a.52.52,0,0,0-.52-.52H3.38a.52.52,0,0,0-.52.52v2.34H.52a.52.52,0,0,0-.52.52v.52a.52.52,0,0,0,.52.52H2.86v2.34a.52.52,0,0,0,.52.52H3.9a.52.52,0,0,0,.52-.52V6.3H6.76a.52.52,0,0,0,.52-.52v-.52A.52.52,0,0,0,6.76,4.735Z" transform="translate(5.091 20.125)" fill="#fff"/>
  <path id="Path_40" data-name="Path 40" d="M260.463,0V14.229a3.238,3.238,0,0,1-3.234,3.234H243V0Z" transform="translate(-225.537 17.463)" fill="#ef5350"/>
  <g id="back-to-top" transform="translate(5.59 5.138)">
    <path id="Subtraction_1" data-name="Subtraction 1" d="M3.612,7.156h-.94a.4.4,0,0,1-.38-.409V2.708L1.172,3.828a.5.5,0,0,1-.349.148.425.425,0,0,1-.3-.123l-.4-.4A.463.463,0,0,1,.147,2.8L2.8.147A.491.491,0,0,1,3.134,0h.017a.43.43,0,0,1,.3.122L6.136,2.8a.463.463,0,0,1,.024.651l-.4.4a.424.424,0,0,1-.3.123.5.5,0,0,1-.348-.148l-1.12-1.12V6.747A.4.4,0,0,1,3.612,7.156Z" transform="translate(0 0)" fill="#fff"/>
  </g>
  <g id="back-to-top-2" data-name="back-to-top" transform="translate(23.053 5.153)">
    <path id="Subtraction_1-2" data-name="Subtraction 1" d="M3.612,0H2.671a.4.4,0,0,0-.38.409V4.448L1.172,3.328a.5.5,0,0,0-.349-.148.425.425,0,0,0-.3.123l-.4.4a.464.464,0,0,0,.025.651L2.8,7.009a.491.491,0,0,0,.332.147h.017a.43.43,0,0,0,.3-.122L6.135,4.353A.463.463,0,0,0,6.16,3.7l-.4-.4a.424.424,0,0,0-.3-.123.5.5,0,0,0-.348.148l-1.12,1.12V.409A.4.4,0,0,0,3.612,0Z" transform="translate(0)" fill="#fff"/>
  </g>
  <path id="Icon_awesome-exclamation" data-name="Icon awesome-exclamation" d="M3.213,6.143A1.138,1.138,0,1,1,2.075,5.005,1.139,1.139,0,0,1,3.213,6.143ZM1.069.358l.193,3.868A.341.341,0,0,0,1.6,4.55h.943a.341.341,0,0,0,.341-.324L3.081.358A.341.341,0,0,0,2.74,0H1.41A.341.341,0,0,0,1.069.358Z" transform="translate(23.58 22)" fill="#fff"/>
</svg>
