<svg xmlns="http://www.w3.org/2000/svg" width="20.716" height="19.522" viewBox="0 0 20.716 19.522">
  <g id="warning" transform="translate(0 -14.759)">
    <g id="Group_18236" data-name="Group 18236" transform="translate(0 14.759)">
      <path id="Path_34009" data-name="Path 34009" d="M20.286,29.7,12.968,16.244a3.035,3.035,0,0,0-5.219,0L.431,29.7A3.033,3.033,0,0,0,3.04,34.281H17.676A3.034,3.034,0,0,0,20.286,29.7Zm-9.928,2.156a1.214,1.214,0,1,1,1.214-1.214A1.215,1.215,0,0,1,10.358,31.853ZM11.572,27a1.214,1.214,0,1,1-2.428,0V20.928a1.214,1.214,0,0,1,2.428,0Z" transform="translate(0 -14.759)" fill="#fff"/>
    </g>
  </g>
</svg>
