<svg xmlns="http://www.w3.org/2000/svg" width="16.131" height="16.114" viewBox="0 0 16.131 16.114">
  <g id="edit" opacity="0.15">
    <path id="Path_33984" data-name="Path 33984" d="M9.961,82.473,1.086,91.349a.354.354,0,0,0-.092.162L.01,95.459a.349.349,0,0,0,.339.434.347.347,0,0,0,.085-.01L4.382,94.9a.349.349,0,0,0,.162-.092l8.876-8.875Zm0,0" transform="translate(0 -79.78)"/>
    <path id="Path_33985" data-name="Path 33985" d="M339,1.729l-.988-.988a1.789,1.789,0,0,0-2.471,0l-1.21,1.21,3.459,3.459L339,4.2a1.748,1.748,0,0,0,0-2.471Zm0,0" transform="translate(-323.378 -0.246)"/>
  </g>
</svg>
