<svg xmlns="http://www.w3.org/2000/svg" width="21.475" height="20.934" viewBox="0 0 21.475 20.934">
  <g id="_7-Check" data-name="7-Check" transform="translate(-25.027 -37.756)">
    <path id="Path_34541" data-name="Path 34541" d="M34.259,47.317a2.238,2.238,0,0,0-1.73,3.651l5.686,6.965a2.032,2.032,0,0,0,1.7.754,2.179,2.179,0,0,0,1.71-1.013L53.435,38.652l.006-.009a.612.612,0,0,0-.154-.719.627.627,0,0,0-.912.063L52.362,38,40.45,51.46a.516.516,0,0,1-.734.04l-3.953-3.6a2.229,2.229,0,0,0-1.5-.586Z" transform="translate(-7 0)" fill="#00c14d"/>
  </g>
</svg>
