<svg id="To-Do_list" data-name="To-Do list" xmlns="http://www.w3.org/2000/svg" width="62" height="55.925" viewBox="0 0 62 55.925">
  <path id="Path_22" data-name="Path 22" d="M16.373,93.209H1.45A1.452,1.452,0,0,1,0,91.756V40.524a1.452,1.452,0,0,1,1.45-1.453H16.373a1.452,1.452,0,0,1,1.45,1.453V91.756A1.452,1.452,0,0,1,16.373,93.209Z" transform="translate(0 -37.381)" fill="#05e29a"/>
  <path id="Path_23" data-name="Path 23" d="M16.321,39.071H13.283v43.8a5.956,5.956,0,0,1-5.95,5.962H0v2.876a1.5,1.5,0,0,0,1.5,1.5h14.82a1.5,1.5,0,0,0,1.5-1.5V40.576A1.5,1.5,0,0,0,16.321,39.071Z" transform="translate(0 -37.381)" fill="#1dd08d"/>
  <path id="Path_24" data-name="Path 24" d="M39.03,386.844H34.876a2.98,2.98,0,0,1-2.98-2.98v-.211a2.98,2.98,0,0,1,2.98-2.98H39.03a2.98,2.98,0,0,1,2.98,2.98v.211A2.98,2.98,0,0,1,39.03,386.844Z" transform="translate(-28.042 -337.593)" fill="#586b76"/>
  <path id="Path_25" data-name="Path 25" d="M39.934,380.672h-.908a3.088,3.088,0,0,1-2.947,4H33.044a3.087,3.087,0,0,0,2.947,2.168h3.943a3.085,3.085,0,0,0,0-6.171Z" transform="translate(-29.051 -337.593)" fill="#465961"/>
  <path id="Path_26" data-name="Path 26" d="M38.841,122.4H29.6a.814.814,0,0,1-.814-.814V96.346a.814.814,0,0,1,.814-.814h9.237a.814.814,0,0,1,.814.814v25.237A.814.814,0,0,1,38.841,122.4Z" transform="translate(-25.311 -89.109)" fill="#fff0e1"/>
  <path id="Path_27" data-name="Path 27" d="M38.812,95.532H36.175v22.7a.843.843,0,0,1-.843.843H28.79v2.481a.843.843,0,0,0,.843.843h9.179a.843.843,0,0,0,.843-.843V96.375A.843.843,0,0,0,38.812,95.532Z" transform="translate(-25.311 -89.109)" fill="#ffeccf"/>
  <path id="Path_28" data-name="Path 28" d="M163.815,93.209H148.892a1.452,1.452,0,0,1-1.45-1.453V40.524a1.452,1.452,0,0,1,1.45-1.453h14.923a1.452,1.452,0,0,1,1.45,1.453V91.756A1.452,1.452,0,0,1,163.815,93.209Z" transform="translate(-129.576 -37.381)" fill="#fcb143"/>
  <path id="Path_29" data-name="Path 29" d="M163.763,39.071h-3.038v43.8a5.956,5.956,0,0,1-5.95,5.962h-7.333v2.876a1.5,1.5,0,0,0,1.5,1.5h14.82a1.5,1.5,0,0,0,1.5-1.5V40.576A1.5,1.5,0,0,0,163.763,39.071Z" transform="translate(-129.576 -37.381)" fill="#fba615"/>
  <path id="Path_30" data-name="Path 30" d="M186.473,386.844h-4.154a2.98,2.98,0,0,1-2.98-2.98v-.211a2.98,2.98,0,0,1,2.98-2.98h4.154a2.98,2.98,0,0,1,2.98,2.98v.211A2.98,2.98,0,0,1,186.473,386.844Z" transform="translate(-157.616 -337.593)" fill="#586b76"/>
  <path id="Path_31" data-name="Path 31" d="M187.377,380.672h-.908a3.088,3.088,0,0,1-2.947,4h-3.035a3.087,3.087,0,0,0,2.947,2.168h3.943a3.085,3.085,0,0,0,0-6.171Z" transform="translate(-158.625 -337.593)" fill="#465961"/>
  <path id="Path_32" data-name="Path 32" d="M186.283,122.4h-9.237a.814.814,0,0,1-.814-.814V96.346a.814.814,0,0,1,.814-.814h9.237a.814.814,0,0,1,.814.814v25.237A.814.814,0,0,1,186.283,122.4Z" transform="translate(-154.885 -89.109)" fill="#fff0e1"/>
  <path id="Path_33" data-name="Path 33" d="M186.255,95.532h-2.636v22.7a.843.843,0,0,1-.843.843h-6.543v2.481a.843.843,0,0,0,.843.843h9.179a.843.843,0,0,0,.843-.843V96.375A.843.843,0,0,0,186.255,95.532Z" transform="translate(-154.886 -89.109)" fill="#ffeccf"/>
  <path id="Path_34" data-name="Path 34" d="M319.9,78.465,305.2,80.991a1.45,1.45,0,0,1-1.674-1.187l-8.638-50.493a1.453,1.453,0,0,1,1.184-1.678l14.708-2.526a1.45,1.45,0,0,1,1.674,1.187l8.638,50.493A1.453,1.453,0,0,1,319.9,78.465Z" transform="translate(-259.108 -25.087)" fill="#fc6b55"/>
  <path id="Path_35" data-name="Path 35" d="M370.149,25.174l-3.068.49,7.387,43.283a5.961,5.961,0,0,1-4.859,6.883L362.455,77.1l.482,2.715a1.5,1.5,0,0,0,1.734,1.229l14.607-2.509a1.5,1.5,0,0,0,1.226-1.737L371.883,26.4A1.5,1.5,0,0,0,370.149,25.174Z" transform="translate(-318.533 -25.145)" fill="#fc534e"/>
  <path id="Path_36" data-name="Path 36" d="M393.58,375.247l-4.095.7a2.98,2.98,0,0,1-3.44-2.434l-.036-.208a2.98,2.98,0,0,1,2.434-3.44l4.094-.7a2.98,2.98,0,0,1,3.441,2.434l.036.208A2.98,2.98,0,0,1,393.58,375.247Z" transform="translate(-339.203 -328.709)" fill="#586b76"/>
  <path id="Path_37" data-name="Path 37" d="M395,369.3l-.895.154a3.088,3.088,0,0,1-2.228,4.443l-2.992.513a3.087,3.087,0,0,0,3.27,1.639l3.886-.666A3.085,3.085,0,1,0,395,369.3Z" transform="translate(-341.771 -328.829)" fill="#465961"/>
  <path id="Path_38" data-name="Path 38" d="M346.283,111.278l-9.1,1.56a.814.814,0,0,1-.94-.665L331.976,87.3a.814.814,0,0,1,.665-.94l9.1-1.561a.814.814,0,0,1,.94.665l4.264,24.874A.814.814,0,0,1,346.283,111.278Z" transform="translate(-291.727 -77.573)" fill="#fff0e1"/>
  <path id="Path_39" data-name="Path 39" d="M369.881,84.837l-2.6.445,3.855,22.527a.843.843,0,0,1-.688.973L364,109.888l.4,2.29a.843.843,0,0,0,.973.688l9.047-1.551a.843.843,0,0,0,.689-.973l-4.254-24.817A.843.843,0,0,0,369.881,84.837Z" transform="translate(-319.892 -77.606)" fill="#ffeccf"/>
  <path id="Path_40" data-name="Path 40" d="M32.1,372.907H28.154a4.024,4.024,0,0,0,0,8.048H32.1a4.024,4.024,0,0,0,0-8.048Zm0,6.171H28.154a2.147,2.147,0,1,1,0-4.294H32.1a2.147,2.147,0,1,1,0,4.294Z" transform="translate(-21.214 -330.766)" fill="#e5ecf1"/>
  <path id="Path_41" data-name="Path 41" d="M52.292,163.192a.938.938,0,0,0,.938-.938v-11.6a.938.938,0,0,0-1.877,0v11.6A.938.938,0,0,0,52.292,163.192Z" transform="translate(-45.147 -134.612)" fill="#fbbe66"/>
  <path id="Path_42" data-name="Path 42" d="M81.539,185.443a.938.938,0,0,0,.938-.939v-8.545a.938.938,0,0,0-1.877,0V184.5A.938.938,0,0,0,81.539,185.443Z" transform="translate(-69.365 -156.859)" fill="#fbbe66"/>
  <path id="Path_43" data-name="Path 43" d="M179.539,372.907H175.6a4.024,4.024,0,1,0,0,8.048h3.943a4.024,4.024,0,1,0,0-8.048Zm0,6.171H175.6a2.147,2.147,0,1,1,0-4.294h3.943a2.147,2.147,0,1,1,0,4.294Z" transform="translate(-150.788 -330.766)" fill="#e5ecf1"/>
  <path id="Path_44" data-name="Path 44" d="M199.733,163.192a.938.938,0,0,0,.939-.938v-11.6a.938.938,0,0,0-1.877,0v11.6A.938.938,0,0,0,199.733,163.192Z" transform="translate(-174.723 -134.612)" fill="#fbbe66"/>
  <path id="Path_45" data-name="Path 45" d="M228.98,163.192a.938.938,0,0,0,.939-.938v-11.6a.939.939,0,0,0-1.877,0v11.6A.939.939,0,0,0,228.98,163.192Z" transform="translate(-200.429 -134.612)" fill="#fbbe66"/>
  <path id="Path_46" data-name="Path 46" d="M385.562,361.55l-3.886.666a4.024,4.024,0,0,0,.671,7.991,4.072,4.072,0,0,0,.688-.059l3.886-.666a4.024,4.024,0,0,0-1.36-7.932Zm2.432,5.206a2.132,2.132,0,0,1-1.39.876l-3.886.666a2.147,2.147,0,1,1-.725-4.232l3.886-.666a2.147,2.147,0,0,1,2.115,3.356Z" transform="translate(-332.491 -320.73)" fill="#e5ecf1"/>
  <g id="Group_77" data-name="Group 77" transform="translate(44.026 14.184)">
    <path id="Path_47" data-name="Path 47" d="M364.3,147.116a.938.938,0,0,0-.766,1.084l1.96,11.437a.938.938,0,0,0,1.85-.317l-1.96-11.437A.939.939,0,0,0,364.3,147.116Z" transform="translate(-363.515 -146.505)" fill="#fbbe66"/>
    <path id="Path_48" data-name="Path 48" d="M395.24,155.474a.939.939,0,0,0,.926-1.1l-1.961-11.437a.938.938,0,1,0-1.85.317l1.961,11.437A.939.939,0,0,0,395.24,155.474Z" transform="translate(-388.859 -142.16)" fill="#fbbe66"/>
  </g>
</svg>
