<svg id="calendar" xmlns="http://www.w3.org/2000/svg" width="22.975" height="22.975" viewBox="0 0 22.975 22.975">
  <g id="Group_18261" data-name="Group 18261">
    <g id="Group_18260" data-name="Group 18260">
      <path id="Path_34521" data-name="Path 34521" d="M19.385,1.795H18.219V.9a.9.9,0,1,0-1.795,0v.9H12.34V.9a.9.9,0,0,0-1.795,0v.9H6.507V.9A.9.9,0,1,0,4.712.9v.9H3.59A3.594,3.594,0,0,0,0,5.385v14a3.594,3.594,0,0,0,3.59,3.59h6.866a.9.9,0,1,0,0-1.795H3.59a1.8,1.8,0,0,1-1.795-1.795v-14A1.8,1.8,0,0,1,3.59,3.59H4.712v.9a.9.9,0,1,0,1.795,0v-.9h4.039v.9a.9.9,0,1,0,1.795,0v-.9h4.083v.9a.9.9,0,1,0,1.795,0v-.9h1.167A1.8,1.8,0,0,1,21.18,5.385V10.5a.9.9,0,1,0,1.795,0V5.385A3.594,3.594,0,0,0,19.385,1.795Z"/>
      <path id="Path_34522" data-name="Path 34522" d="M275.43,270a5.43,5.43,0,1,0,5.43,5.43A5.436,5.436,0,0,0,275.43,270Zm0,9.064a3.635,3.635,0,1,1,3.635-3.635A3.639,3.639,0,0,1,275.43,279.064Z" transform="translate(-257.884 -257.884)"/>
      <path id="Path_34523" data-name="Path 34523" d="M373.2,331.84h-.4V330.9a.9.9,0,0,0-1.795,0v1.84a.9.9,0,0,0,.9.9h1.3a.9.9,0,0,0,0-1.795Z" transform="translate(-354.352 -315.192)"/>
      <circle id="Ellipse_16" data-name="Ellipse 16" cx="1" cy="1" r="1" transform="translate(4.488 7.488)"/>
      <circle id="Ellipse_21" data-name="Ellipse 21" cx="1" cy="1" r="1" transform="translate(9.488 7.488)"/>
      <circle id="Ellipse_22" data-name="Ellipse 22" cx="1" cy="1" r="1" transform="translate(15.488 7.488)"/>
      <circle id="Ellipse_17" data-name="Ellipse 17" cx="1" cy="1" r="1" transform="translate(4.488 12.488)"/>
      <circle id="Ellipse_20" data-name="Ellipse 20" cx="1" cy="1" r="1" transform="translate(9.488 12.488)"/>
      <circle id="Ellipse_18" data-name="Ellipse 18" cx="1" cy="1" r="1" transform="translate(4.488 17.488)"/>
      <circle id="Ellipse_19" data-name="Ellipse 19" cx="1" cy="1" r="1" transform="translate(9.488 17.488)"/>
    </g>
  </g>
</svg>
