<svg xmlns="http://www.w3.org/2000/svg" width="30" height="30" viewBox="0 0 30 30">
  <g id="Group_18236" data-name="Group 18236" transform="translate(-1815 -263)">
    <g id="Group_18229" data-name="Group 18229" transform="translate(7 -111)">
      <rect id="Rectangle_7337" data-name="Rectangle 7337" width="30" height="30" rx="3" transform="translate(1808 374)" fill="#fbfbfb"/>
    </g>
    <g id="trash" transform="translate(1821 266)">
      <g id="trash-2" data-name="trash" transform="translate(-186.5 -56.9)" opacity="0.4">
        <path id="Path_4" data-name="Path 4" d="M200.971,155.019H189.6a1.129,1.129,0,0,1-1.126-1.054l-.976-14.5a1.128,1.128,0,0,1,1.126-1.2h13.321a1.13,1.13,0,0,1,1.126,1.2l-.976,14.5A1.129,1.129,0,0,1,200.971,155.019Zm3.215-18.877H186.527a.025.025,0,0,1-.027-.027v-3.088a.025.025,0,0,1,.027-.027h17.659a.025.025,0,0,1,.027.027v3.086A.028.028,0,0,1,204.186,136.142Z" transform="translate(0 -74.055)"/>
        <path id="Path_5" data-name="Path 5" d="M348.264,60.464h-9.437a.025.025,0,0,1-.027-.027v-3.51a.025.025,0,0,1,.027-.027h9.437a.025.025,0,0,1,.027.027v3.51A.027.027,0,0,1,348.264,60.464Z" transform="translate(-148.206)"/>
      </g>
    </g>
  </g>
</svg>
