<svg xmlns="http://www.w3.org/2000/svg" width="30" height="30" viewBox="0 0 30 30">
  <g id="Group_18235" data-name="Group 18235" transform="translate(-1808 -374)">
    <rect id="Rectangle_7337" data-name="Rectangle 7337" width="30" height="30" rx="3" transform="translate(1808 374)" fill="#fbfbfb"/>
    <g id="pencil_4_" data-name="pencil (4)" transform="translate(1813 379)">
      <g id="Group_18217" data-name="Group 18217" transform="translate(13.785 0)">
        <g id="Group_18216" data-name="Group 18216" transform="translate(0 0)">
          <path id="Path_34508" data-name="Path 34508" d="M360.117,2.422l-1.8-1.8a2.116,2.116,0,0,0-2.989,0l-.706.706,4.792,4.793.706-.706A2.112,2.112,0,0,0,360.117,2.422Z" transform="translate(-354.619 0)" fill="rgba(0,0,0,0.4)"/>
        </g>
      </g>
      <g id="Group_18219" data-name="Group 18219" transform="translate(0 14.645)">
        <g id="Group_18218" data-name="Group 18218" transform="translate(0)">
          <path id="Path_34509" data-name="Path 34509" d="M.856,376.747.01,381.315a.583.583,0,0,0,.679.68l4.568-.846Z" transform="translate(0 -376.747)" fill="rgba(0,0,0,0.4)"/>
        </g>
      </g>
      <g id="Group_18221" data-name="Group 18221" transform="translate(1.485 2.149)">
        <g id="Group_18220" data-name="Group 18220">
          <path id="Path_34510" data-name="Path 34510" d="M49.673,55.274,38.2,66.75l4.792,4.793L54.466,60.067Z" transform="translate(-38.198 -55.274)" fill="rgba(0,0,0,0.4)"/>
        </g>
      </g>
    </g>
  </g>
</svg>
