<svg xmlns="http://www.w3.org/2000/svg" width="17.562" height="15.603" viewBox="0 0 17.562 15.603">
  <g id="add_folder" data-name="add folder" transform="translate(-3 -4.95)">
    <path id="Path_34516" data-name="Path 34516" d="M19.211,7.719H11.038V6.3A1.351,1.351,0,0,0,9.687,4.95H4.351A1.355,1.355,0,0,0,3,6.3V19.2a1.355,1.355,0,0,0,1.351,1.351h14.86A1.355,1.355,0,0,0,20.562,19.2V9.07a1.355,1.355,0,0,0-1.351-1.351Zm-2.026,8.106H15.834v1.351a.675.675,0,0,1-1.351,0V15.825H13.132a.675.675,0,0,1,0-1.351h1.351V13.123a.675.675,0,1,1,1.351,0v1.351h1.351a.675.675,0,0,1,0,1.351Z" fill="rgba(0,0,0,0.4)"/>
  </g>
</svg>
