<svg xmlns="http://www.w3.org/2000/svg" width="16.322" height="19.897" viewBox="0 0 16.322 19.897">
  <g id="save_1_" data-name="save (1)" transform="translate(-46 0)">
    <path id="Path_34518" data-name="Path 34518" d="M158.189,312h-6.218a.972.972,0,0,0-.972.972v6.8h8.161v-6.8A.972.972,0,0,0,158.189,312Z" transform="translate(-100.92 -299.875)" fill="#409e0a"/>
    <path id="Path_34519" data-name="Path 34519" d="M61.924,3.829,58.492.4a1.351,1.351,0,0,0-.961-.4H47.36A1.36,1.36,0,0,0,46,1.36V18.537a1.36,1.36,0,0,0,1.36,1.36h1.554V13.1a2.14,2.14,0,0,1,2.137-2.137H57.27A2.14,2.14,0,0,1,59.407,13.1v6.8h1.554a1.36,1.36,0,0,0,1.36-1.36V4.791a1.351,1.351,0,0,0-.4-.961Z" transform="translate(0 0)" fill="#409e0a"/>
  </g>
</svg>
