<?xml version="1.0"?>
<svg xmlns="http://www.w3.org/2000/svg" xmlns:xlink="http://www.w3.org/1999/xlink" xmlns:svgjs="http://svgjs.com/svgjs" version="1.1" width="512px" height="512px" x="0" y="0" viewBox="0 0 24 24" style="enable-background:new 0 0 512 512" xml:space="preserve" class=""><g><path d="m21 5h-18a1 1 0 0 0 0 2h2v12a3.0009 3.0009 0 0 0 3 3h8a3.0008 3.0008 0 0 0 3-3v-12h2a1 1 0 0 0 0-2zm-10 11a1 1 0 0 1 -2 0v-5a1 1 0 0 1 2 0zm4 0a1 1 0 0 1 -2 0v-5a1 1 0 0 1 2 0z" fill="#fe0909" data-original="#000000" class=""/><path d="m10 4h4a1 1 0 0 0 0-2h-4a1 1 0 0 0 0 2z" fill="#fe0909" data-original="#000000" class=""/></g></svg>
