<svg xmlns="http://www.w3.org/2000/svg" width="24" height="24.008" viewBox="0 0 24 24.008">
  <path id="verify" d="M25.472,12.489l-1.632-1.9a2.66,2.66,0,0,1-.564-1.512V7.041A2.325,2.325,0,0,0,20.96,4.725H18.92a2.692,2.692,0,0,1-1.512-.564l-1.9-1.632a2.418,2.418,0,0,0-3.024,0L10.6,4.173a2.769,2.769,0,0,1-1.512.552H7.015A2.325,2.325,0,0,0,4.7,7.041V9.093a2.731,2.731,0,0,1-.552,1.5L2.527,12.5a2.416,2.416,0,0,0,0,3l1.62,1.908a2.731,2.731,0,0,1,.552,1.5v2.052a2.325,2.325,0,0,0,2.316,2.316H9.091a2.692,2.692,0,0,1,1.512.564l1.9,1.632a2.418,2.418,0,0,0,3.024,0l1.9-1.632a2.66,2.66,0,0,1,1.512-.564h2.04a2.325,2.325,0,0,0,2.316-2.316v-2.04a2.692,2.692,0,0,1,.564-1.512l1.632-1.9a2.435,2.435,0,0,0-.012-3.024Zm-6.48-.756-5.8,5.8a.9.9,0,0,1-1.272,0l-2.9-2.9a.9.9,0,1,1,1.272-1.272l2.268,2.268,5.16-5.16a.9.9,0,1,1,1.272,1.272Z" transform="translate(-2.005 -1.998)" fill="#fc9f13"/>
</svg>
