<svg xmlns="http://www.w3.org/2000/svg" width="19.999" height="20.005" viewBox="0 0 19.999 20.005">
  <path id="verify" d="M21.56,10.74,20.2,9.16a2.216,2.216,0,0,1-.47-1.26V6.2A1.938,1.938,0,0,0,17.8,4.27H16.1a2.243,2.243,0,0,1-1.26-.47L13.26,2.44a2.015,2.015,0,0,0-2.52,0L9.17,3.81a2.307,2.307,0,0,1-1.26.46H6.18A1.938,1.938,0,0,0,4.25,6.2V7.91a2.276,2.276,0,0,1-.46,1.25L2.44,10.75a2.013,2.013,0,0,0,0,2.5l1.35,1.59a2.276,2.276,0,0,1,.46,1.25V17.8a1.938,1.938,0,0,0,1.93,1.93H7.91a2.243,2.243,0,0,1,1.26.47l1.58,1.36a2.015,2.015,0,0,0,2.52,0l1.58-1.36a2.216,2.216,0,0,1,1.26-.47h1.7a1.938,1.938,0,0,0,1.93-1.93V16.1a2.243,2.243,0,0,1,.47-1.26l1.36-1.58a2.029,2.029,0,0,0-.01-2.52Zm-5.4-.63-4.83,4.83a.748.748,0,0,1-1.06,0L7.85,12.52a.75.75,0,0,1,1.06-1.06l1.89,1.89,4.3-4.3a.75.75,0,1,1,1.06,1.06Z" transform="translate(-2.005 -1.998)" fill="#857af0"/>
</svg>
